%TF.GenerationSoftware,KiCad,Pcbnew,(6.0.5)*%
%TF.CreationDate,2024-04-02T18:11:07-05:00*%
%TF.ProjectId,final_project,66696e61-6c5f-4707-926f-6a6563742e6b,rev?*%
%TF.SameCoordinates,Original*%
%TF.FileFunction,Copper,L2,Bot*%
%TF.FilePolarity,Positive*%
%FSLAX46Y46*%
G04 Gerber Fmt 4.6, Leading zero omitted, Abs format (unit mm)*
G04 Created by KiCad (PCBNEW (6.0.5)) date 2024-04-02 18:11:07*
%MOMM*%
%LPD*%
G01*
G04 APERTURE LIST*
%TA.AperFunction,ComponentPad*%
%ADD10R,1.700000X1.700000*%
%TD*%
%TA.AperFunction,ComponentPad*%
%ADD11O,1.700000X1.700000*%
%TD*%
%TA.AperFunction,ComponentPad*%
%ADD12C,2.000000*%
%TD*%
%TA.AperFunction,ComponentPad*%
%ADD13C,2.800000*%
%TD*%
%TA.AperFunction,ComponentPad*%
%ADD14C,0.700000*%
%TD*%
%TA.AperFunction,ComponentPad*%
%ADD15O,0.900000X2.400000*%
%TD*%
%TA.AperFunction,ComponentPad*%
%ADD16O,0.900000X1.700000*%
%TD*%
%TA.AperFunction,ViaPad*%
%ADD17C,0.800000*%
%TD*%
%TA.AperFunction,Conductor*%
%ADD18C,0.250000*%
%TD*%
G04 APERTURE END LIST*
D10*
%TO.P,CAM_BOTTOM1,1,Pin_1*%
%TO.N,/HSYNC*%
X135900000Y-110835000D03*
D11*
%TO.P,CAM_BOTTOM1,2,Pin_2*%
%TO.N,/PCLK*%
X138440000Y-110835000D03*
%TO.P,CAM_BOTTOM1,3,Pin_3*%
%TO.N,/CAM_RESET*%
X140980000Y-110835000D03*
%TO.P,CAM_BOTTOM1,4,Pin_4*%
%TO.N,/PWDN*%
X143520000Y-110835000D03*
%TD*%
D10*
%TO.P,PGRM1,1,Pin_1*%
%TO.N,GND*%
X163830000Y-84165000D03*
D11*
%TO.P,PGRM1,2,Pin_2*%
%TO.N,/SWDIO*%
X163830000Y-81625000D03*
%TO.P,PGRM1,3,Pin_3*%
%TO.N,/SWCLK*%
X163830000Y-79085000D03*
%TD*%
D12*
%TO.P,BOOT0,1,1*%
%TO.N,+3V3*%
X116990000Y-74295000D03*
X110490000Y-74295000D03*
%TO.P,BOOT0,2,2*%
%TO.N,Net-(BOOT0-Pad2)*%
X110490000Y-78795000D03*
X116990000Y-78795000D03*
%TD*%
D13*
%TO.P,TP1,1,1*%
%TO.N,Net-(TP1-Pad1)*%
X122555000Y-77470000D03*
%TD*%
D10*
%TO.P,CAM_TOP1,1,Pin_1*%
%TO.N,/SDA*%
X131455000Y-74640000D03*
D11*
%TO.P,CAM_TOP1,2,Pin_2*%
%TO.N,/SCL_1*%
X133995000Y-74640000D03*
%TO.P,CAM_TOP1,3,Pin_3*%
%TO.N,/VSYNC*%
X136535000Y-74640000D03*
%TO.P,CAM_TOP1,4,Pin_4*%
%TO.N,/D5*%
X139075000Y-74640000D03*
%TD*%
D12*
%TO.P,NRST1,1,1*%
%TO.N,GND*%
X116915000Y-86995000D03*
X110415000Y-86995000D03*
%TO.P,NRST1,2,2*%
%TO.N,Net-(C2-Pad1)*%
X116915000Y-91495000D03*
X110415000Y-91495000D03*
%TD*%
D10*
%TO.P,J6,1,Pin_1*%
%TO.N,Net-(J6-Pad1)*%
X164465000Y-112110000D03*
D11*
%TO.P,J6,2,Pin_2*%
%TO.N,Net-(J6-Pad2)*%
X164465000Y-109570000D03*
%TD*%
D10*
%TO.P,SERIAL1,1,Pin_1*%
%TO.N,unconnected-(SERIAL1-Pad1)*%
X124460000Y-98135000D03*
D11*
%TO.P,SERIAL1,2,Pin_2*%
%TO.N,/RX*%
X124460000Y-100675000D03*
%TO.P,SERIAL1,3,Pin_3*%
%TO.N,/TX*%
X124460000Y-103215000D03*
%TO.P,SERIAL1,4,Pin_4*%
%TO.N,+3V3*%
X124460000Y-105755000D03*
%TO.P,SERIAL1,5,Pin_5*%
%TO.N,unconnected-(SERIAL1-Pad5)*%
X124460000Y-108295000D03*
%TO.P,SERIAL1,6,Pin_6*%
%TO.N,GND*%
X124460000Y-110835000D03*
%TD*%
D10*
%TO.P,LCD1,1,Pin_1*%
%TO.N,GND*%
X155575000Y-109565000D03*
D11*
%TO.P,LCD1,2,Pin_2*%
%TO.N,+5V*%
X153035000Y-109565000D03*
%TO.P,LCD1,3,Pin_3*%
%TO.N,/SDA_2*%
X150495000Y-109565000D03*
%TO.P,LCD1,4,Pin_4*%
%TO.N,/SCL_2*%
X147955000Y-109565000D03*
%TD*%
D10*
%TO.P,CAM_LEFT1,1,Pin_1*%
%TO.N,/D4*%
X125095000Y-84683000D03*
D11*
%TO.P,CAM_LEFT1,2,Pin_2*%
%TO.N,/D6*%
X125095000Y-87223000D03*
%TO.P,CAM_LEFT1,3,Pin_3*%
%TO.N,/D7*%
X125095000Y-89763000D03*
%TO.P,CAM_LEFT1,4,Pin_4*%
%TO.N,+3V3*%
X125095000Y-92303000D03*
%TD*%
D14*
%TO.P,J1,A1,GND*%
%TO.N,GND*%
X130370000Y-116470000D03*
%TO.P,J1,A4,VBUS*%
%TO.N,Net-(J1-PadA4)*%
X131220000Y-116470000D03*
%TO.P,J1,A5,CC1*%
%TO.N,unconnected-(J1-PadA5)*%
X132070000Y-116470000D03*
%TO.P,J1,A6,D+*%
%TO.N,unconnected-(J1-PadA6)*%
X132920000Y-116470000D03*
%TO.P,J1,A7,D-*%
%TO.N,unconnected-(J1-PadA7)*%
X133770000Y-116470000D03*
%TO.P,J1,A8,SBU1*%
%TO.N,unconnected-(J1-PadA8)*%
X134620000Y-116470000D03*
%TO.P,J1,A9,VBUS*%
%TO.N,Net-(J1-PadA4)*%
X135470000Y-116470000D03*
%TO.P,J1,A12,GND*%
%TO.N,GND*%
X136320000Y-116470000D03*
%TO.P,J1,B1,GND*%
X136320000Y-117820000D03*
%TO.P,J1,B4,VBUS*%
%TO.N,Net-(J1-PadA4)*%
X135470000Y-117820000D03*
%TO.P,J1,B5,CC2*%
%TO.N,unconnected-(J1-PadB5)*%
X134620000Y-117820000D03*
%TO.P,J1,B6,D+*%
%TO.N,unconnected-(J1-PadB6)*%
X133770000Y-117820000D03*
%TO.P,J1,B7,D-*%
%TO.N,unconnected-(J1-PadB7)*%
X132920000Y-117820000D03*
%TO.P,J1,B8,SBU2*%
%TO.N,unconnected-(J1-PadB8)*%
X132070000Y-117820000D03*
%TO.P,J1,B9,VBUS*%
%TO.N,Net-(J1-PadA4)*%
X131220000Y-117820000D03*
%TO.P,J1,B12,GND*%
%TO.N,GND*%
X130370000Y-117820000D03*
D15*
%TO.P,J1,S1,SHIELD*%
X129020000Y-117450000D03*
D16*
X129020000Y-120830000D03*
X137670000Y-120830000D03*
D15*
X137670000Y-117450000D03*
%TD*%
D10*
%TO.P,SD_SPI1,1,Pin_1*%
%TO.N,GND*%
X144145000Y-74930000D03*
D11*
%TO.P,SD_SPI1,2,Pin_2*%
%TO.N,/MISO*%
X146685000Y-74930000D03*
%TO.P,SD_SPI1,3,Pin_3*%
%TO.N,/SPI_CLK*%
X149225000Y-74930000D03*
%TO.P,SD_SPI1,4,Pin_4*%
%TO.N,/MOSI*%
X151765000Y-74930000D03*
%TO.P,SD_SPI1,5,Pin_5*%
%TO.N,/CS*%
X154305000Y-74930000D03*
%TO.P,SD_SPI1,6,Pin_6*%
%TO.N,+3V3*%
X156845000Y-74930000D03*
%TD*%
D12*
%TO.P,Capture_Pic1,1,1*%
%TO.N,+3V3*%
X110415000Y-102870000D03*
X116915000Y-102870000D03*
%TO.P,Capture_Pic1,2,2*%
%TO.N,Net-(Capture_Pic1-Pad2)*%
X110415000Y-107370000D03*
X116915000Y-107370000D03*
%TD*%
D10*
%TO.P,CAM_RIGHT1,1,Pin_1*%
%TO.N,GND*%
X163830000Y-89245000D03*
D11*
%TO.P,CAM_RIGHT1,2,Pin_2*%
%TO.N,Net-(CAM_RIGHT1-Pad2)*%
X163830000Y-91785000D03*
%TO.P,CAM_RIGHT1,3,Pin_3*%
%TO.N,/D3*%
X163830000Y-94325000D03*
%TO.P,CAM_RIGHT1,4,Pin_4*%
%TO.N,/D2*%
X163830000Y-96865000D03*
%TO.P,CAM_RIGHT1,5,Pin_5*%
%TO.N,/D1*%
X163830000Y-99405000D03*
%TO.P,CAM_RIGHT1,6,Pin_6*%
%TO.N,/D0*%
X163830000Y-101945000D03*
%TD*%
D17*
%TO.N,+3V3*%
X128270000Y-92075000D03*
X133350000Y-106045000D03*
X133985000Y-84455000D03*
X156845000Y-79375000D03*
X152400000Y-106680000D03*
X148590000Y-120650000D03*
%TO.N,Net-(C2-Pad1)*%
X141605000Y-95250000D03*
%TO.N,/SDA_2*%
X151765000Y-113030000D03*
%TO.N,Net-(BOOT0-Pad2)*%
X142240000Y-90170000D03*
%TO.N,Net-(Capture_Pic1-Pad2)*%
X148590000Y-97155000D03*
%TD*%
D18*
%TO.N,Net-(C2-Pad1)*%
X116915000Y-91495000D02*
X117281511Y-91128489D01*
X117281511Y-91128489D02*
X137483489Y-91128489D01*
X137483489Y-91128489D02*
X141605000Y-95250000D01*
%TO.N,/SDA_2*%
X147955000Y-112395000D02*
X151130000Y-112395000D01*
X147955000Y-112105000D02*
X150495000Y-109565000D01*
X151130000Y-112395000D02*
X151765000Y-113030000D01*
X147955000Y-112395000D02*
X147955000Y-112105000D01*
%TO.N,Net-(BOOT0-Pad2)*%
X131865000Y-79795000D02*
X142240000Y-90170000D01*
X116990000Y-78795000D02*
X117990000Y-79795000D01*
X117990000Y-79795000D02*
X131865000Y-79795000D01*
%TO.N,Net-(Capture_Pic1-Pad2)*%
X117355489Y-106929511D02*
X138815489Y-106929511D01*
X138815489Y-106929511D02*
X148590000Y-97155000D01*
X116915000Y-107370000D02*
X117355489Y-106929511D01*
%TD*%
%TA.AperFunction,Conductor*%
%TO.N,+3V3*%
G36*
X173423621Y-69743502D02*
G01*
X173470114Y-69797158D01*
X173481500Y-69849500D01*
X173481500Y-121920500D01*
X173461498Y-121988621D01*
X173407842Y-122035114D01*
X173355500Y-122046500D01*
X137901423Y-122046500D01*
X137833302Y-122026498D01*
X137786809Y-121972842D01*
X137776705Y-121902568D01*
X137806199Y-121837988D01*
X137853205Y-121804091D01*
X137867555Y-121798147D01*
X137972841Y-121754536D01*
X138098282Y-121658282D01*
X138194536Y-121532841D01*
X138255044Y-121386762D01*
X138270500Y-121269361D01*
X138270500Y-120390639D01*
X138255044Y-120273238D01*
X138194536Y-120127159D01*
X138098282Y-120001718D01*
X137972841Y-119905464D01*
X137826762Y-119844956D01*
X137670000Y-119824318D01*
X137513238Y-119844956D01*
X137367159Y-119905464D01*
X137241718Y-120001718D01*
X137145464Y-120127159D01*
X137084956Y-120273238D01*
X137069500Y-120390639D01*
X137069500Y-121269361D01*
X137084956Y-121386762D01*
X137145464Y-121532841D01*
X137241718Y-121658282D01*
X137367159Y-121754536D01*
X137472445Y-121798147D01*
X137486795Y-121804091D01*
X137542076Y-121848639D01*
X137564497Y-121916003D01*
X137546939Y-121984794D01*
X137494977Y-122033172D01*
X137438577Y-122046500D01*
X129251423Y-122046500D01*
X129183302Y-122026498D01*
X129136809Y-121972842D01*
X129126705Y-121902568D01*
X129156199Y-121837988D01*
X129203205Y-121804091D01*
X129217555Y-121798147D01*
X129322841Y-121754536D01*
X129448282Y-121658282D01*
X129544536Y-121532841D01*
X129605044Y-121386762D01*
X129620500Y-121269361D01*
X129620500Y-120390639D01*
X129605044Y-120273238D01*
X129544536Y-120127159D01*
X129448282Y-120001718D01*
X129322841Y-119905464D01*
X129176762Y-119844956D01*
X129020000Y-119824318D01*
X128863238Y-119844956D01*
X128717159Y-119905464D01*
X128591718Y-120001718D01*
X128495464Y-120127159D01*
X128434956Y-120273238D01*
X128419500Y-120390639D01*
X128419500Y-121269361D01*
X128434956Y-121386762D01*
X128495464Y-121532841D01*
X128591718Y-121658282D01*
X128717159Y-121754536D01*
X128822445Y-121798147D01*
X128836795Y-121804091D01*
X128892076Y-121848639D01*
X128914497Y-121916003D01*
X128896939Y-121984794D01*
X128844977Y-122033172D01*
X128788577Y-122046500D01*
X102869500Y-122046500D01*
X102801379Y-122026498D01*
X102754886Y-121972842D01*
X102743500Y-121920500D01*
X102743500Y-118239361D01*
X128419500Y-118239361D01*
X128420038Y-118243447D01*
X128420038Y-118243448D01*
X128430349Y-118321770D01*
X128434956Y-118356762D01*
X128495464Y-118502841D01*
X128591718Y-118628282D01*
X128717159Y-118724536D01*
X128863238Y-118785044D01*
X129020000Y-118805682D01*
X129028188Y-118804604D01*
X129168574Y-118786122D01*
X129176762Y-118785044D01*
X129322841Y-118724536D01*
X129448282Y-118628282D01*
X129544536Y-118502841D01*
X129605044Y-118356762D01*
X129609651Y-118321770D01*
X129619962Y-118243448D01*
X129619962Y-118243447D01*
X129620500Y-118239361D01*
X129620500Y-117884035D01*
X129639553Y-117819146D01*
X129848507Y-117819146D01*
X129867396Y-117848537D01*
X129871436Y-117867697D01*
X129882980Y-117955979D01*
X129940720Y-118087203D01*
X129946497Y-118094076D01*
X129946498Y-118094077D01*
X129953792Y-118102754D01*
X130032970Y-118196948D01*
X130152313Y-118276390D01*
X130289157Y-118319142D01*
X130298129Y-118319306D01*
X130298132Y-118319307D01*
X130363463Y-118320504D01*
X130432499Y-118321770D01*
X130441533Y-118319307D01*
X130562158Y-118286421D01*
X130562160Y-118286420D01*
X130570817Y-118284060D01*
X130692991Y-118209045D01*
X130699014Y-118202391D01*
X130699018Y-118202388D01*
X130700839Y-118200376D01*
X130703134Y-118198971D01*
X130705923Y-118196655D01*
X130706257Y-118197058D01*
X130761384Y-118163298D01*
X130832364Y-118164839D01*
X130877737Y-118190723D01*
X130882970Y-118196948D01*
X130890441Y-118201921D01*
X130890442Y-118201922D01*
X130952825Y-118243448D01*
X131002313Y-118276390D01*
X131139157Y-118319142D01*
X131148129Y-118319306D01*
X131148132Y-118319307D01*
X131213463Y-118320504D01*
X131282499Y-118321770D01*
X131291533Y-118319307D01*
X131412158Y-118286421D01*
X131412160Y-118286420D01*
X131420817Y-118284060D01*
X131542991Y-118209045D01*
X131549014Y-118202391D01*
X131549018Y-118202388D01*
X131550839Y-118200376D01*
X131553134Y-118198971D01*
X131555923Y-118196655D01*
X131556257Y-118197058D01*
X131611384Y-118163298D01*
X131682364Y-118164839D01*
X131727737Y-118190723D01*
X131732970Y-118196948D01*
X131740441Y-118201921D01*
X131740442Y-118201922D01*
X131802825Y-118243448D01*
X131852313Y-118276390D01*
X131989157Y-118319142D01*
X131998129Y-118319306D01*
X131998132Y-118319307D01*
X132063463Y-118320504D01*
X132132499Y-118321770D01*
X132141533Y-118319307D01*
X132262158Y-118286421D01*
X132262160Y-118286420D01*
X132270817Y-118284060D01*
X132392991Y-118209045D01*
X132399014Y-118202391D01*
X132399018Y-118202388D01*
X132400839Y-118200376D01*
X132403134Y-118198971D01*
X132405923Y-118196655D01*
X132406257Y-118197058D01*
X132461384Y-118163298D01*
X132532364Y-118164839D01*
X132577737Y-118190723D01*
X132582970Y-118196948D01*
X132590441Y-118201921D01*
X132590442Y-118201922D01*
X132652825Y-118243448D01*
X132702313Y-118276390D01*
X132839157Y-118319142D01*
X132848129Y-118319306D01*
X132848132Y-118319307D01*
X132913463Y-118320504D01*
X132982499Y-118321770D01*
X132991533Y-118319307D01*
X133112158Y-118286421D01*
X133112160Y-118286420D01*
X133120817Y-118284060D01*
X133242991Y-118209045D01*
X133249014Y-118202391D01*
X133249018Y-118202388D01*
X133250839Y-118200376D01*
X133253134Y-118198971D01*
X133255923Y-118196655D01*
X133256257Y-118197058D01*
X133311384Y-118163298D01*
X133382364Y-118164839D01*
X133427737Y-118190723D01*
X133432970Y-118196948D01*
X133440441Y-118201921D01*
X133440442Y-118201922D01*
X133502825Y-118243448D01*
X133552313Y-118276390D01*
X133689157Y-118319142D01*
X133698129Y-118319306D01*
X133698132Y-118319307D01*
X133763463Y-118320504D01*
X133832499Y-118321770D01*
X133841533Y-118319307D01*
X133962158Y-118286421D01*
X133962160Y-118286420D01*
X133970817Y-118284060D01*
X134092991Y-118209045D01*
X134099014Y-118202391D01*
X134099018Y-118202388D01*
X134100839Y-118200376D01*
X134103134Y-118198971D01*
X134105923Y-118196655D01*
X134106257Y-118197058D01*
X134161384Y-118163298D01*
X134232364Y-118164839D01*
X134277737Y-118190723D01*
X134282970Y-118196948D01*
X134290441Y-118201921D01*
X134290442Y-118201922D01*
X134352825Y-118243448D01*
X134402313Y-118276390D01*
X134539157Y-118319142D01*
X134548129Y-118319306D01*
X134548132Y-118319307D01*
X134613463Y-118320504D01*
X134682499Y-118321770D01*
X134691533Y-118319307D01*
X134812158Y-118286421D01*
X134812160Y-118286420D01*
X134820817Y-118284060D01*
X134942991Y-118209045D01*
X134949014Y-118202391D01*
X134949018Y-118202388D01*
X134950839Y-118200376D01*
X134953134Y-118198971D01*
X134955923Y-118196655D01*
X134956257Y-118197058D01*
X135011384Y-118163298D01*
X135082364Y-118164839D01*
X135127737Y-118190723D01*
X135132970Y-118196948D01*
X135140441Y-118201921D01*
X135140442Y-118201922D01*
X135202825Y-118243448D01*
X135252313Y-118276390D01*
X135389157Y-118319142D01*
X135398129Y-118319306D01*
X135398132Y-118319307D01*
X135463463Y-118320504D01*
X135532499Y-118321770D01*
X135541533Y-118319307D01*
X135662158Y-118286421D01*
X135662160Y-118286420D01*
X135670817Y-118284060D01*
X135792991Y-118209045D01*
X135799014Y-118202391D01*
X135799018Y-118202388D01*
X135800839Y-118200376D01*
X135803134Y-118198971D01*
X135805923Y-118196655D01*
X135806257Y-118197058D01*
X135861384Y-118163298D01*
X135932364Y-118164839D01*
X135977737Y-118190723D01*
X135982970Y-118196948D01*
X135990441Y-118201921D01*
X135990442Y-118201922D01*
X136052825Y-118243448D01*
X136102313Y-118276390D01*
X136239157Y-118319142D01*
X136248129Y-118319306D01*
X136248132Y-118319307D01*
X136313463Y-118320504D01*
X136382499Y-118321770D01*
X136391533Y-118319307D01*
X136512158Y-118286421D01*
X136512160Y-118286420D01*
X136520817Y-118284060D01*
X136642991Y-118209045D01*
X136649439Y-118201922D01*
X136733178Y-118109407D01*
X136739200Y-118102754D01*
X136801710Y-117973733D01*
X136819246Y-117869503D01*
X136841075Y-117824575D01*
X137046825Y-117824575D01*
X137068610Y-117875460D01*
X137069500Y-117890408D01*
X137069500Y-118239361D01*
X137070038Y-118243447D01*
X137070038Y-118243448D01*
X137080349Y-118321770D01*
X137084956Y-118356762D01*
X137145464Y-118502841D01*
X137241718Y-118628282D01*
X137367159Y-118724536D01*
X137513238Y-118785044D01*
X137670000Y-118805682D01*
X137678188Y-118804604D01*
X137818574Y-118786122D01*
X137826762Y-118785044D01*
X137972841Y-118724536D01*
X138098282Y-118628282D01*
X138194536Y-118502841D01*
X138255044Y-118356762D01*
X138259651Y-118321770D01*
X138269962Y-118243448D01*
X138269962Y-118243447D01*
X138270500Y-118239361D01*
X138270500Y-116660639D01*
X138255044Y-116543238D01*
X138194536Y-116397159D01*
X138098282Y-116271718D01*
X137972841Y-116175464D01*
X137826762Y-116114956D01*
X137670000Y-116094318D01*
X137513238Y-116114956D01*
X137367159Y-116175464D01*
X137241718Y-116271718D01*
X137145464Y-116397159D01*
X137084956Y-116543238D01*
X137069500Y-116660639D01*
X137069500Y-117754138D01*
X137049498Y-117822259D01*
X137046825Y-117824575D01*
X136841075Y-117824575D01*
X136842790Y-117821046D01*
X136822604Y-117789636D01*
X136818773Y-117772000D01*
X136806596Y-117686968D01*
X136806595Y-117686965D01*
X136805323Y-117678082D01*
X136745984Y-117547572D01*
X136683457Y-117475006D01*
X136658260Y-117445763D01*
X136658257Y-117445760D01*
X136652400Y-117438963D01*
X136532095Y-117360985D01*
X136394739Y-117319907D01*
X136385763Y-117319852D01*
X136385762Y-117319852D01*
X136325555Y-117319484D01*
X136251376Y-117319031D01*
X136113529Y-117358428D01*
X135992280Y-117434930D01*
X135986337Y-117441659D01*
X135979501Y-117447477D01*
X135977725Y-117445390D01*
X135929617Y-117475672D01*
X135858623Y-117475006D01*
X135812429Y-117449400D01*
X135808258Y-117445761D01*
X135802400Y-117438963D01*
X135794869Y-117434082D01*
X135794866Y-117434079D01*
X135689633Y-117365871D01*
X135689634Y-117365871D01*
X135682095Y-117360985D01*
X135544739Y-117319907D01*
X135535763Y-117319852D01*
X135535762Y-117319852D01*
X135475555Y-117319484D01*
X135401376Y-117319031D01*
X135263529Y-117358428D01*
X135142280Y-117434930D01*
X135136337Y-117441659D01*
X135129501Y-117447477D01*
X135127725Y-117445390D01*
X135079617Y-117475672D01*
X135008623Y-117475006D01*
X134962429Y-117449400D01*
X134958258Y-117445761D01*
X134952400Y-117438963D01*
X134944869Y-117434082D01*
X134944866Y-117434079D01*
X134839633Y-117365871D01*
X134839634Y-117365871D01*
X134832095Y-117360985D01*
X134694739Y-117319907D01*
X134685763Y-117319852D01*
X134685762Y-117319852D01*
X134625555Y-117319484D01*
X134551376Y-117319031D01*
X134413529Y-117358428D01*
X134292280Y-117434930D01*
X134286337Y-117441659D01*
X134279501Y-117447477D01*
X134277725Y-117445390D01*
X134229617Y-117475672D01*
X134158623Y-117475006D01*
X134112429Y-117449400D01*
X134108258Y-117445761D01*
X134102400Y-117438963D01*
X134094869Y-117434082D01*
X134094866Y-117434079D01*
X133989633Y-117365871D01*
X133989634Y-117365871D01*
X133982095Y-117360985D01*
X133844739Y-117319907D01*
X133835763Y-117319852D01*
X133835762Y-117319852D01*
X133775555Y-117319484D01*
X133701376Y-117319031D01*
X133563529Y-117358428D01*
X133442280Y-117434930D01*
X133436337Y-117441659D01*
X133429501Y-117447477D01*
X133427725Y-117445390D01*
X133379617Y-117475672D01*
X133308623Y-117475006D01*
X133262429Y-117449400D01*
X133258258Y-117445761D01*
X133252400Y-117438963D01*
X133244869Y-117434082D01*
X133244866Y-117434079D01*
X133139633Y-117365871D01*
X133139634Y-117365871D01*
X133132095Y-117360985D01*
X132994739Y-117319907D01*
X132985763Y-117319852D01*
X132985762Y-117319852D01*
X132925555Y-117319484D01*
X132851376Y-117319031D01*
X132713529Y-117358428D01*
X132592280Y-117434930D01*
X132586337Y-117441659D01*
X132579501Y-117447477D01*
X132577725Y-117445390D01*
X132529617Y-117475672D01*
X132458623Y-117475006D01*
X132412429Y-117449400D01*
X132408258Y-117445761D01*
X132402400Y-117438963D01*
X132394869Y-117434082D01*
X132394866Y-117434079D01*
X132289633Y-117365871D01*
X132289634Y-117365871D01*
X132282095Y-117360985D01*
X132144739Y-117319907D01*
X132135763Y-117319852D01*
X132135762Y-117319852D01*
X132075555Y-117319484D01*
X132001376Y-117319031D01*
X131863529Y-117358428D01*
X131742280Y-117434930D01*
X131736337Y-117441659D01*
X131729501Y-117447477D01*
X131727725Y-117445390D01*
X131679617Y-117475672D01*
X131608623Y-117475006D01*
X131562429Y-117449400D01*
X131558258Y-117445761D01*
X131552400Y-117438963D01*
X131544869Y-117434082D01*
X131544866Y-117434079D01*
X131439633Y-117365871D01*
X131439634Y-117365871D01*
X131432095Y-117360985D01*
X131294739Y-117319907D01*
X131285763Y-117319852D01*
X131285762Y-117319852D01*
X131225555Y-117319484D01*
X131151376Y-117319031D01*
X131013529Y-117358428D01*
X130892280Y-117434930D01*
X130886337Y-117441659D01*
X130879501Y-117447477D01*
X130877725Y-117445390D01*
X130829617Y-117475672D01*
X130758623Y-117475006D01*
X130712429Y-117449400D01*
X130708258Y-117445761D01*
X130702400Y-117438963D01*
X130694869Y-117434082D01*
X130694866Y-117434079D01*
X130589633Y-117365871D01*
X130589634Y-117365871D01*
X130582095Y-117360985D01*
X130444739Y-117319907D01*
X130435763Y-117319852D01*
X130435762Y-117319852D01*
X130375555Y-117319484D01*
X130301376Y-117319031D01*
X130163529Y-117358428D01*
X130042280Y-117434930D01*
X130036338Y-117441658D01*
X130036337Y-117441659D01*
X130006886Y-117475006D01*
X129947377Y-117542388D01*
X129886447Y-117672163D01*
X129885066Y-117681035D01*
X129871000Y-117771375D01*
X129848507Y-117819146D01*
X129639553Y-117819146D01*
X129640502Y-117815914D01*
X129642007Y-117814610D01*
X129621582Y-117768468D01*
X129620500Y-117751991D01*
X129620500Y-116660639D01*
X129605044Y-116543238D01*
X129572149Y-116463823D01*
X129864391Y-116463823D01*
X129865555Y-116472725D01*
X129865555Y-116472728D01*
X129866814Y-116482354D01*
X129882980Y-116605979D01*
X129940720Y-116737203D01*
X129946497Y-116744076D01*
X129946498Y-116744077D01*
X129953792Y-116752754D01*
X130032970Y-116846948D01*
X130152313Y-116926390D01*
X130289157Y-116969142D01*
X130298129Y-116969306D01*
X130298132Y-116969307D01*
X130363463Y-116970504D01*
X130432499Y-116971770D01*
X130441533Y-116969307D01*
X130562158Y-116936421D01*
X130562160Y-116936420D01*
X130570817Y-116934060D01*
X130692991Y-116859045D01*
X130699014Y-116852391D01*
X130699018Y-116852388D01*
X130700839Y-116850376D01*
X130703134Y-116848971D01*
X130705923Y-116846655D01*
X130706257Y-116847058D01*
X130761384Y-116813298D01*
X130832364Y-116814839D01*
X130877737Y-116840723D01*
X130882970Y-116846948D01*
X130890441Y-116851921D01*
X130890442Y-116851922D01*
X130994836Y-116921413D01*
X131002313Y-116926390D01*
X131139157Y-116969142D01*
X131148129Y-116969306D01*
X131148132Y-116969307D01*
X131213463Y-116970504D01*
X131282499Y-116971770D01*
X131291533Y-116969307D01*
X131412158Y-116936421D01*
X131412160Y-116936420D01*
X131420817Y-116934060D01*
X131542991Y-116859045D01*
X131549014Y-116852391D01*
X131549018Y-116852388D01*
X131550839Y-116850376D01*
X131553134Y-116848971D01*
X131555923Y-116846655D01*
X131556257Y-116847058D01*
X131611384Y-116813298D01*
X131682364Y-116814839D01*
X131727737Y-116840723D01*
X131732970Y-116846948D01*
X131740441Y-116851921D01*
X131740442Y-116851922D01*
X131844836Y-116921413D01*
X131852313Y-116926390D01*
X131989157Y-116969142D01*
X131998129Y-116969306D01*
X131998132Y-116969307D01*
X132063463Y-116970504D01*
X132132499Y-116971770D01*
X132141533Y-116969307D01*
X132262158Y-116936421D01*
X132262160Y-116936420D01*
X132270817Y-116934060D01*
X132392991Y-116859045D01*
X132399014Y-116852391D01*
X132399018Y-116852388D01*
X132400839Y-116850376D01*
X132403134Y-116848971D01*
X132405923Y-116846655D01*
X132406257Y-116847058D01*
X132461384Y-116813298D01*
X132532364Y-116814839D01*
X132577737Y-116840723D01*
X132582970Y-116846948D01*
X132590441Y-116851921D01*
X132590442Y-116851922D01*
X132694836Y-116921413D01*
X132702313Y-116926390D01*
X132839157Y-116969142D01*
X132848129Y-116969306D01*
X132848132Y-116969307D01*
X132913463Y-116970504D01*
X132982499Y-116971770D01*
X132991533Y-116969307D01*
X133112158Y-116936421D01*
X133112160Y-116936420D01*
X133120817Y-116934060D01*
X133242991Y-116859045D01*
X133249014Y-116852391D01*
X133249018Y-116852388D01*
X133250839Y-116850376D01*
X133253134Y-116848971D01*
X133255923Y-116846655D01*
X133256257Y-116847058D01*
X133311384Y-116813298D01*
X133382364Y-116814839D01*
X133427737Y-116840723D01*
X133432970Y-116846948D01*
X133440441Y-116851921D01*
X133440442Y-116851922D01*
X133544836Y-116921413D01*
X133552313Y-116926390D01*
X133689157Y-116969142D01*
X133698129Y-116969306D01*
X133698132Y-116969307D01*
X133763463Y-116970504D01*
X133832499Y-116971770D01*
X133841533Y-116969307D01*
X133962158Y-116936421D01*
X133962160Y-116936420D01*
X133970817Y-116934060D01*
X134092991Y-116859045D01*
X134099014Y-116852391D01*
X134099018Y-116852388D01*
X134100839Y-116850376D01*
X134103134Y-116848971D01*
X134105923Y-116846655D01*
X134106257Y-116847058D01*
X134161384Y-116813298D01*
X134232364Y-116814839D01*
X134277737Y-116840723D01*
X134282970Y-116846948D01*
X134290441Y-116851921D01*
X134290442Y-116851922D01*
X134394836Y-116921413D01*
X134402313Y-116926390D01*
X134539157Y-116969142D01*
X134548129Y-116969306D01*
X134548132Y-116969307D01*
X134613463Y-116970504D01*
X134682499Y-116971770D01*
X134691533Y-116969307D01*
X134812158Y-116936421D01*
X134812160Y-116936420D01*
X134820817Y-116934060D01*
X134942991Y-116859045D01*
X134949014Y-116852391D01*
X134949018Y-116852388D01*
X134950839Y-116850376D01*
X134953134Y-116848971D01*
X134955923Y-116846655D01*
X134956257Y-116847058D01*
X135011384Y-116813298D01*
X135082364Y-116814839D01*
X135127737Y-116840723D01*
X135132970Y-116846948D01*
X135140441Y-116851921D01*
X135140442Y-116851922D01*
X135244836Y-116921413D01*
X135252313Y-116926390D01*
X135389157Y-116969142D01*
X135398129Y-116969306D01*
X135398132Y-116969307D01*
X135463463Y-116970504D01*
X135532499Y-116971770D01*
X135541533Y-116969307D01*
X135662158Y-116936421D01*
X135662160Y-116936420D01*
X135670817Y-116934060D01*
X135792991Y-116859045D01*
X135799014Y-116852391D01*
X135799018Y-116852388D01*
X135800839Y-116850376D01*
X135803134Y-116848971D01*
X135805923Y-116846655D01*
X135806257Y-116847058D01*
X135861384Y-116813298D01*
X135932364Y-116814839D01*
X135977737Y-116840723D01*
X135982970Y-116846948D01*
X135990441Y-116851921D01*
X135990442Y-116851922D01*
X136094836Y-116921413D01*
X136102313Y-116926390D01*
X136239157Y-116969142D01*
X136248129Y-116969306D01*
X136248132Y-116969307D01*
X136313463Y-116970504D01*
X136382499Y-116971770D01*
X136391533Y-116969307D01*
X136512158Y-116936421D01*
X136512160Y-116936420D01*
X136520817Y-116934060D01*
X136642991Y-116859045D01*
X136649439Y-116851922D01*
X136733178Y-116759407D01*
X136739200Y-116752754D01*
X136801710Y-116623733D01*
X136825496Y-116482354D01*
X136825647Y-116470000D01*
X136816308Y-116404789D01*
X136806596Y-116336968D01*
X136806595Y-116336965D01*
X136805323Y-116328082D01*
X136745984Y-116197572D01*
X136677520Y-116118116D01*
X136658260Y-116095763D01*
X136658257Y-116095760D01*
X136652400Y-116088963D01*
X136532095Y-116010985D01*
X136394739Y-115969907D01*
X136385763Y-115969852D01*
X136385762Y-115969852D01*
X136325555Y-115969484D01*
X136251376Y-115969031D01*
X136113529Y-116008428D01*
X135992280Y-116084930D01*
X135986337Y-116091659D01*
X135979501Y-116097477D01*
X135977725Y-116095390D01*
X135929617Y-116125672D01*
X135858623Y-116125006D01*
X135812429Y-116099400D01*
X135808258Y-116095761D01*
X135802400Y-116088963D01*
X135794869Y-116084082D01*
X135794866Y-116084079D01*
X135689633Y-116015871D01*
X135689634Y-116015871D01*
X135682095Y-116010985D01*
X135544739Y-115969907D01*
X135535763Y-115969852D01*
X135535762Y-115969852D01*
X135475555Y-115969484D01*
X135401376Y-115969031D01*
X135263529Y-116008428D01*
X135142280Y-116084930D01*
X135136337Y-116091659D01*
X135129501Y-116097477D01*
X135127725Y-116095390D01*
X135079617Y-116125672D01*
X135008623Y-116125006D01*
X134962429Y-116099400D01*
X134958258Y-116095761D01*
X134952400Y-116088963D01*
X134944869Y-116084082D01*
X134944866Y-116084079D01*
X134839633Y-116015871D01*
X134839634Y-116015871D01*
X134832095Y-116010985D01*
X134694739Y-115969907D01*
X134685763Y-115969852D01*
X134685762Y-115969852D01*
X134625555Y-115969484D01*
X134551376Y-115969031D01*
X134413529Y-116008428D01*
X134292280Y-116084930D01*
X134286337Y-116091659D01*
X134279501Y-116097477D01*
X134277725Y-116095390D01*
X134229617Y-116125672D01*
X134158623Y-116125006D01*
X134112429Y-116099400D01*
X134108258Y-116095761D01*
X134102400Y-116088963D01*
X134094869Y-116084082D01*
X134094866Y-116084079D01*
X133989633Y-116015871D01*
X133989634Y-116015871D01*
X133982095Y-116010985D01*
X133844739Y-115969907D01*
X133835763Y-115969852D01*
X133835762Y-115969852D01*
X133775555Y-115969484D01*
X133701376Y-115969031D01*
X133563529Y-116008428D01*
X133442280Y-116084930D01*
X133436337Y-116091659D01*
X133429501Y-116097477D01*
X133427725Y-116095390D01*
X133379617Y-116125672D01*
X133308623Y-116125006D01*
X133262429Y-116099400D01*
X133258258Y-116095761D01*
X133252400Y-116088963D01*
X133244869Y-116084082D01*
X133244866Y-116084079D01*
X133139633Y-116015871D01*
X133139634Y-116015871D01*
X133132095Y-116010985D01*
X132994739Y-115969907D01*
X132985763Y-115969852D01*
X132985762Y-115969852D01*
X132925555Y-115969484D01*
X132851376Y-115969031D01*
X132713529Y-116008428D01*
X132592280Y-116084930D01*
X132586337Y-116091659D01*
X132579501Y-116097477D01*
X132577725Y-116095390D01*
X132529617Y-116125672D01*
X132458623Y-116125006D01*
X132412429Y-116099400D01*
X132408258Y-116095761D01*
X132402400Y-116088963D01*
X132394869Y-116084082D01*
X132394866Y-116084079D01*
X132289633Y-116015871D01*
X132289634Y-116015871D01*
X132282095Y-116010985D01*
X132144739Y-115969907D01*
X132135763Y-115969852D01*
X132135762Y-115969852D01*
X132075555Y-115969484D01*
X132001376Y-115969031D01*
X131863529Y-116008428D01*
X131742280Y-116084930D01*
X131736337Y-116091659D01*
X131729501Y-116097477D01*
X131727725Y-116095390D01*
X131679617Y-116125672D01*
X131608623Y-116125006D01*
X131562429Y-116099400D01*
X131558258Y-116095761D01*
X131552400Y-116088963D01*
X131544869Y-116084082D01*
X131544866Y-116084079D01*
X131439633Y-116015871D01*
X131439634Y-116015871D01*
X131432095Y-116010985D01*
X131294739Y-115969907D01*
X131285763Y-115969852D01*
X131285762Y-115969852D01*
X131225555Y-115969484D01*
X131151376Y-115969031D01*
X131013529Y-116008428D01*
X130892280Y-116084930D01*
X130886337Y-116091659D01*
X130879501Y-116097477D01*
X130877725Y-116095390D01*
X130829617Y-116125672D01*
X130758623Y-116125006D01*
X130712429Y-116099400D01*
X130708258Y-116095761D01*
X130702400Y-116088963D01*
X130694869Y-116084082D01*
X130694866Y-116084079D01*
X130589633Y-116015871D01*
X130589634Y-116015871D01*
X130582095Y-116010985D01*
X130444739Y-115969907D01*
X130435763Y-115969852D01*
X130435762Y-115969852D01*
X130375555Y-115969484D01*
X130301376Y-115969031D01*
X130163529Y-116008428D01*
X130042280Y-116084930D01*
X130036338Y-116091658D01*
X130036337Y-116091659D01*
X130016714Y-116113878D01*
X129947377Y-116192388D01*
X129886447Y-116322163D01*
X129864391Y-116463823D01*
X129572149Y-116463823D01*
X129544536Y-116397159D01*
X129448282Y-116271718D01*
X129322841Y-116175464D01*
X129176762Y-116114956D01*
X129020000Y-116094318D01*
X128863238Y-116114956D01*
X128717159Y-116175464D01*
X128591718Y-116271718D01*
X128495464Y-116397159D01*
X128434956Y-116543238D01*
X128419500Y-116660639D01*
X128419500Y-118239361D01*
X102743500Y-118239361D01*
X102743500Y-107370000D01*
X108901835Y-107370000D01*
X108920465Y-107606711D01*
X108921619Y-107611518D01*
X108921620Y-107611524D01*
X108952285Y-107739253D01*
X108975895Y-107837594D01*
X108977788Y-107842165D01*
X108977789Y-107842167D01*
X109059556Y-108039570D01*
X109066760Y-108056963D01*
X109069346Y-108061183D01*
X109188241Y-108255202D01*
X109188245Y-108255208D01*
X109190824Y-108259416D01*
X109345031Y-108439969D01*
X109525584Y-108594176D01*
X109529792Y-108596755D01*
X109529798Y-108596759D01*
X109711981Y-108708401D01*
X109728037Y-108718240D01*
X109732607Y-108720133D01*
X109732611Y-108720135D01*
X109905765Y-108791857D01*
X109947406Y-108809105D01*
X110027609Y-108828360D01*
X110173476Y-108863380D01*
X110173482Y-108863381D01*
X110178289Y-108864535D01*
X110415000Y-108883165D01*
X110651711Y-108864535D01*
X110656518Y-108863381D01*
X110656524Y-108863380D01*
X110802391Y-108828360D01*
X110882594Y-108809105D01*
X110924235Y-108791857D01*
X111097389Y-108720135D01*
X111097393Y-108720133D01*
X111101963Y-108718240D01*
X111118019Y-108708401D01*
X111300202Y-108596759D01*
X111300208Y-108596755D01*
X111304416Y-108594176D01*
X111484969Y-108439969D01*
X111639176Y-108259416D01*
X111641755Y-108255208D01*
X111641759Y-108255202D01*
X111760654Y-108061183D01*
X111763240Y-108056963D01*
X111770445Y-108039570D01*
X111852211Y-107842167D01*
X111852212Y-107842165D01*
X111854105Y-107837594D01*
X111877715Y-107739253D01*
X111908380Y-107611524D01*
X111908381Y-107611518D01*
X111909535Y-107606711D01*
X111928165Y-107370000D01*
X115401835Y-107370000D01*
X115420465Y-107606711D01*
X115421619Y-107611518D01*
X115421620Y-107611524D01*
X115452285Y-107739253D01*
X115475895Y-107837594D01*
X115477788Y-107842165D01*
X115477789Y-107842167D01*
X115559556Y-108039570D01*
X115566760Y-108056963D01*
X115569346Y-108061183D01*
X115688241Y-108255202D01*
X115688245Y-108255208D01*
X115690824Y-108259416D01*
X115845031Y-108439969D01*
X116025584Y-108594176D01*
X116029792Y-108596755D01*
X116029798Y-108596759D01*
X116211981Y-108708401D01*
X116228037Y-108718240D01*
X116232607Y-108720133D01*
X116232611Y-108720135D01*
X116405765Y-108791857D01*
X116447406Y-108809105D01*
X116527609Y-108828360D01*
X116673476Y-108863380D01*
X116673482Y-108863381D01*
X116678289Y-108864535D01*
X116915000Y-108883165D01*
X117151711Y-108864535D01*
X117156518Y-108863381D01*
X117156524Y-108863380D01*
X117302391Y-108828360D01*
X117382594Y-108809105D01*
X117424235Y-108791857D01*
X117597389Y-108720135D01*
X117597393Y-108720133D01*
X117601963Y-108718240D01*
X117618019Y-108708401D01*
X117800202Y-108596759D01*
X117800208Y-108596755D01*
X117804416Y-108594176D01*
X117984969Y-108439969D01*
X118139176Y-108259416D01*
X118141755Y-108255208D01*
X118141759Y-108255202D01*
X118260654Y-108061183D01*
X118263240Y-108056963D01*
X118270445Y-108039570D01*
X118352211Y-107842167D01*
X118352212Y-107842165D01*
X118354105Y-107837594D01*
X118396838Y-107659596D01*
X118432190Y-107598028D01*
X118495217Y-107565345D01*
X118519357Y-107563011D01*
X123104576Y-107563011D01*
X123172697Y-107583013D01*
X123219190Y-107636669D01*
X123229294Y-107706943D01*
X123218864Y-107742061D01*
X123180688Y-107824305D01*
X123120989Y-108039570D01*
X123097251Y-108261695D01*
X123097548Y-108266848D01*
X123097548Y-108266851D01*
X123102857Y-108358919D01*
X123110110Y-108484715D01*
X123111247Y-108489761D01*
X123111248Y-108489767D01*
X123129753Y-108571875D01*
X123159222Y-108702639D01*
X123243266Y-108909616D01*
X123245965Y-108914020D01*
X123345475Y-109076406D01*
X123359987Y-109100088D01*
X123506250Y-109268938D01*
X123678126Y-109411632D01*
X123748595Y-109452811D01*
X123751445Y-109454476D01*
X123800169Y-109506114D01*
X123813240Y-109575897D01*
X123786509Y-109641669D01*
X123746055Y-109675027D01*
X123733607Y-109681507D01*
X123729474Y-109684610D01*
X123729471Y-109684612D01*
X123559100Y-109812530D01*
X123554965Y-109815635D01*
X123551393Y-109819373D01*
X123409748Y-109967596D01*
X123400629Y-109977138D01*
X123274743Y-110161680D01*
X123180688Y-110364305D01*
X123120989Y-110579570D01*
X123097251Y-110801695D01*
X123097548Y-110806848D01*
X123097548Y-110806851D01*
X123104424Y-110926097D01*
X123110110Y-111024715D01*
X123111247Y-111029761D01*
X123111248Y-111029767D01*
X123120848Y-111072364D01*
X123159222Y-111242639D01*
X123243266Y-111449616D01*
X123294019Y-111532438D01*
X123357291Y-111635688D01*
X123359987Y-111640088D01*
X123506250Y-111808938D01*
X123678126Y-111951632D01*
X123871000Y-112064338D01*
X124079692Y-112144030D01*
X124084760Y-112145061D01*
X124084763Y-112145062D01*
X124164114Y-112161206D01*
X124298597Y-112188567D01*
X124303772Y-112188757D01*
X124303774Y-112188757D01*
X124516673Y-112196564D01*
X124516677Y-112196564D01*
X124521837Y-112196753D01*
X124526957Y-112196097D01*
X124526959Y-112196097D01*
X124738288Y-112169025D01*
X124738289Y-112169025D01*
X124743416Y-112168368D01*
X124748366Y-112166883D01*
X124952429Y-112105661D01*
X124952434Y-112105659D01*
X124957384Y-112104174D01*
X125157994Y-112005896D01*
X125339860Y-111876173D01*
X125347408Y-111868652D01*
X125440268Y-111776115D01*
X125483400Y-111733134D01*
X134541500Y-111733134D01*
X134548255Y-111795316D01*
X134599385Y-111931705D01*
X134686739Y-112048261D01*
X134803295Y-112135615D01*
X134939684Y-112186745D01*
X135001866Y-112193500D01*
X136798134Y-112193500D01*
X136860316Y-112186745D01*
X136996705Y-112135615D01*
X137113261Y-112048261D01*
X137200615Y-111931705D01*
X137216414Y-111889562D01*
X137244598Y-111814382D01*
X137287240Y-111757618D01*
X137353802Y-111732918D01*
X137423150Y-111748126D01*
X137457817Y-111776114D01*
X137486250Y-111808938D01*
X137658126Y-111951632D01*
X137851000Y-112064338D01*
X138059692Y-112144030D01*
X138064760Y-112145061D01*
X138064763Y-112145062D01*
X138144114Y-112161206D01*
X138278597Y-112188567D01*
X138283772Y-112188757D01*
X138283774Y-112188757D01*
X138496673Y-112196564D01*
X138496677Y-112196564D01*
X138501837Y-112196753D01*
X138506957Y-112196097D01*
X138506959Y-112196097D01*
X138718288Y-112169025D01*
X138718289Y-112169025D01*
X138723416Y-112168368D01*
X138728366Y-112166883D01*
X138932429Y-112105661D01*
X138932434Y-112105659D01*
X138937384Y-112104174D01*
X139137994Y-112005896D01*
X139319860Y-111876173D01*
X139327408Y-111868652D01*
X139420268Y-111776115D01*
X139478096Y-111718489D01*
X139496326Y-111693120D01*
X139608453Y-111537077D01*
X139609776Y-111538028D01*
X139656645Y-111494857D01*
X139726580Y-111482625D01*
X139792026Y-111510144D01*
X139819875Y-111541994D01*
X139879987Y-111640088D01*
X140026250Y-111808938D01*
X140198126Y-111951632D01*
X140391000Y-112064338D01*
X140599692Y-112144030D01*
X140604760Y-112145061D01*
X140604763Y-112145062D01*
X140684114Y-112161206D01*
X140818597Y-112188567D01*
X140823772Y-112188757D01*
X140823774Y-112188757D01*
X141036673Y-112196564D01*
X141036677Y-112196564D01*
X141041837Y-112196753D01*
X141046957Y-112196097D01*
X141046959Y-112196097D01*
X141258288Y-112169025D01*
X141258289Y-112169025D01*
X141263416Y-112168368D01*
X141268366Y-112166883D01*
X141472429Y-112105661D01*
X141472434Y-112105659D01*
X141477384Y-112104174D01*
X141677994Y-112005896D01*
X141859860Y-111876173D01*
X141867408Y-111868652D01*
X141960268Y-111776115D01*
X142018096Y-111718489D01*
X142036326Y-111693120D01*
X142148453Y-111537077D01*
X142149776Y-111538028D01*
X142196645Y-111494857D01*
X142266580Y-111482625D01*
X142332026Y-111510144D01*
X142359875Y-111541994D01*
X142419987Y-111640088D01*
X142566250Y-111808938D01*
X142738126Y-111951632D01*
X142931000Y-112064338D01*
X143139692Y-112144030D01*
X143144760Y-112145061D01*
X143144763Y-112145062D01*
X143224114Y-112161206D01*
X143358597Y-112188567D01*
X143363772Y-112188757D01*
X143363774Y-112188757D01*
X143576673Y-112196564D01*
X143576677Y-112196564D01*
X143581837Y-112196753D01*
X143586957Y-112196097D01*
X143586959Y-112196097D01*
X143798288Y-112169025D01*
X143798289Y-112169025D01*
X143803416Y-112168368D01*
X143808366Y-112166883D01*
X144012429Y-112105661D01*
X144012434Y-112105659D01*
X144017384Y-112104174D01*
X144217994Y-112005896D01*
X144399860Y-111876173D01*
X144407408Y-111868652D01*
X144500268Y-111776115D01*
X144558096Y-111718489D01*
X144576326Y-111693120D01*
X144685435Y-111541277D01*
X144688453Y-111537077D01*
X144709320Y-111494857D01*
X144785136Y-111341453D01*
X144785137Y-111341451D01*
X144787430Y-111336811D01*
X144852370Y-111123069D01*
X144881529Y-110901590D01*
X144882177Y-110875062D01*
X144883074Y-110838365D01*
X144883074Y-110838361D01*
X144883156Y-110835000D01*
X144864852Y-110612361D01*
X144810431Y-110395702D01*
X144721354Y-110190840D01*
X144600014Y-110003277D01*
X144449670Y-109838051D01*
X144445619Y-109834852D01*
X144445615Y-109834848D01*
X144278414Y-109702800D01*
X144278410Y-109702798D01*
X144274359Y-109699598D01*
X144078789Y-109591638D01*
X144073920Y-109589914D01*
X144073916Y-109589912D01*
X143909516Y-109531695D01*
X146592251Y-109531695D01*
X146592548Y-109536848D01*
X146592548Y-109536851D01*
X146597443Y-109621739D01*
X146605110Y-109754715D01*
X146606247Y-109759761D01*
X146606248Y-109759767D01*
X146627246Y-109852939D01*
X146654222Y-109972639D01*
X146738266Y-110179616D01*
X146775685Y-110240678D01*
X146852291Y-110365688D01*
X146854987Y-110370088D01*
X147001250Y-110538938D01*
X147173126Y-110681632D01*
X147366000Y-110794338D01*
X147370825Y-110796180D01*
X147370826Y-110796181D01*
X147443612Y-110823975D01*
X147574692Y-110874030D01*
X147579760Y-110875061D01*
X147579763Y-110875062D01*
X147659861Y-110891358D01*
X147793597Y-110918567D01*
X147798771Y-110918757D01*
X147798773Y-110918757D01*
X147866293Y-110921233D01*
X147940649Y-110923959D01*
X148007990Y-110946443D01*
X148052486Y-111001767D01*
X148060008Y-111072364D01*
X148025126Y-111138969D01*
X147562747Y-111601348D01*
X147554461Y-111608888D01*
X147547982Y-111613000D01*
X147542557Y-111618777D01*
X147501357Y-111662651D01*
X147498602Y-111665493D01*
X147478865Y-111685230D01*
X147476385Y-111688427D01*
X147468682Y-111697447D01*
X147438414Y-111729679D01*
X147434595Y-111736625D01*
X147434593Y-111736628D01*
X147428652Y-111747434D01*
X147417801Y-111763953D01*
X147405386Y-111779959D01*
X147402241Y-111787228D01*
X147402238Y-111787232D01*
X147387826Y-111820537D01*
X147382609Y-111831187D01*
X147361305Y-111869940D01*
X147359334Y-111877615D01*
X147359334Y-111877616D01*
X147356267Y-111889562D01*
X147349863Y-111908266D01*
X147345277Y-111918865D01*
X147341819Y-111926855D01*
X147340580Y-111934678D01*
X147340577Y-111934688D01*
X147334901Y-111970524D01*
X147332495Y-111982144D01*
X147323472Y-112017289D01*
X147321500Y-112024970D01*
X147321500Y-112045224D01*
X147319949Y-112064934D01*
X147316780Y-112084943D01*
X147317526Y-112092835D01*
X147320941Y-112128961D01*
X147321500Y-112140819D01*
X147321500Y-112323207D01*
X147319268Y-112346816D01*
X147317725Y-112354906D01*
X147318223Y-112362817D01*
X147321251Y-112410951D01*
X147321500Y-112418862D01*
X147321500Y-112434856D01*
X147323506Y-112450730D01*
X147324249Y-112458598D01*
X147326417Y-112493056D01*
X147327775Y-112514650D01*
X147330225Y-112522191D01*
X147330321Y-112522487D01*
X147335494Y-112545631D01*
X147335532Y-112545935D01*
X147335533Y-112545940D01*
X147336526Y-112553797D01*
X147339442Y-112561162D01*
X147339443Y-112561166D01*
X147357199Y-112606011D01*
X147359871Y-112613430D01*
X147377236Y-112666875D01*
X147381486Y-112673571D01*
X147381486Y-112673572D01*
X147381650Y-112673831D01*
X147392415Y-112694958D01*
X147392529Y-112695246D01*
X147392532Y-112695251D01*
X147395448Y-112702617D01*
X147400104Y-112709025D01*
X147400107Y-112709031D01*
X147428458Y-112748052D01*
X147432901Y-112754589D01*
X147463000Y-112802018D01*
X147468778Y-112807444D01*
X147468779Y-112807445D01*
X147469007Y-112807659D01*
X147484688Y-112825446D01*
X147489528Y-112832107D01*
X147495637Y-112837161D01*
X147495638Y-112837162D01*
X147532796Y-112867903D01*
X147538730Y-112873134D01*
X147573898Y-112906158D01*
X147573901Y-112906160D01*
X147579679Y-112911586D01*
X147586903Y-112915558D01*
X147606506Y-112928881D01*
X147606746Y-112929080D01*
X147606753Y-112929084D01*
X147612856Y-112934133D01*
X147652400Y-112952741D01*
X147663676Y-112958047D01*
X147670708Y-112961629D01*
X147719940Y-112988695D01*
X147727615Y-112990665D01*
X147727621Y-112990668D01*
X147727919Y-112990744D01*
X147750228Y-112998776D01*
X147750503Y-112998906D01*
X147750511Y-112998909D01*
X147757682Y-113002283D01*
X147812849Y-113012806D01*
X147820558Y-113014529D01*
X147854551Y-113023257D01*
X147867293Y-113026529D01*
X147867294Y-113026529D01*
X147874970Y-113028500D01*
X147883207Y-113028500D01*
X147906816Y-113030732D01*
X147907119Y-113030790D01*
X147907123Y-113030790D01*
X147914906Y-113032275D01*
X147970951Y-113028749D01*
X147978862Y-113028500D01*
X150737887Y-113028500D01*
X150806008Y-113048502D01*
X150852501Y-113102158D01*
X150863197Y-113141329D01*
X150869185Y-113198297D01*
X150871458Y-113219928D01*
X150930473Y-113401556D01*
X151025960Y-113566944D01*
X151153747Y-113708866D01*
X151308248Y-113821118D01*
X151314276Y-113823802D01*
X151314278Y-113823803D01*
X151476681Y-113896109D01*
X151482712Y-113898794D01*
X151576112Y-113918647D01*
X151663056Y-113937128D01*
X151663061Y-113937128D01*
X151669513Y-113938500D01*
X151860487Y-113938500D01*
X151866939Y-113937128D01*
X151866944Y-113937128D01*
X151953887Y-113918647D01*
X152047288Y-113898794D01*
X152053319Y-113896109D01*
X152215722Y-113823803D01*
X152215724Y-113823802D01*
X152221752Y-113821118D01*
X152376253Y-113708866D01*
X152504040Y-113566944D01*
X152599527Y-113401556D01*
X152658542Y-113219928D01*
X152660816Y-113198297D01*
X152677814Y-113036565D01*
X152678504Y-113030000D01*
X152667876Y-112928881D01*
X152659232Y-112846635D01*
X152659232Y-112846633D01*
X152658542Y-112840072D01*
X152599527Y-112658444D01*
X152504040Y-112493056D01*
X152437236Y-112418862D01*
X152380675Y-112356045D01*
X152380674Y-112356044D01*
X152376253Y-112351134D01*
X152221752Y-112238882D01*
X152215724Y-112236198D01*
X152215722Y-112236197D01*
X152053319Y-112163891D01*
X152053318Y-112163891D01*
X152047288Y-112161206D01*
X151951375Y-112140819D01*
X151866944Y-112122872D01*
X151866939Y-112122872D01*
X151860487Y-112121500D01*
X151804595Y-112121500D01*
X151736474Y-112101498D01*
X151715500Y-112084595D01*
X151633652Y-112002747D01*
X151626112Y-111994461D01*
X151622000Y-111987982D01*
X151572348Y-111941356D01*
X151569507Y-111938602D01*
X151549770Y-111918865D01*
X151546573Y-111916385D01*
X151537551Y-111908680D01*
X151511100Y-111883841D01*
X151505321Y-111878414D01*
X151498375Y-111874595D01*
X151498372Y-111874593D01*
X151487566Y-111868652D01*
X151471047Y-111857801D01*
X151470583Y-111857441D01*
X151455041Y-111845386D01*
X151447772Y-111842241D01*
X151447768Y-111842238D01*
X151414463Y-111827826D01*
X151403813Y-111822609D01*
X151365060Y-111801305D01*
X151345437Y-111796267D01*
X151326734Y-111789863D01*
X151315420Y-111784967D01*
X151315419Y-111784967D01*
X151308145Y-111781819D01*
X151300322Y-111780580D01*
X151300312Y-111780577D01*
X151264476Y-111774901D01*
X151252856Y-111772495D01*
X151217711Y-111763472D01*
X151217710Y-111763472D01*
X151210030Y-111761500D01*
X151189776Y-111761500D01*
X151170065Y-111759949D01*
X151157886Y-111758020D01*
X151150057Y-111756780D01*
X151142165Y-111757526D01*
X151106039Y-111760941D01*
X151094181Y-111761500D01*
X149498594Y-111761500D01*
X149430473Y-111741498D01*
X149383980Y-111687842D01*
X149373876Y-111617568D01*
X149403370Y-111552988D01*
X149409499Y-111546405D01*
X150039549Y-110916355D01*
X150101861Y-110882329D01*
X150153762Y-110881979D01*
X150333597Y-110918567D01*
X150338772Y-110918757D01*
X150338774Y-110918757D01*
X150551673Y-110926564D01*
X150551677Y-110926564D01*
X150556837Y-110926753D01*
X150561957Y-110926097D01*
X150561959Y-110926097D01*
X150773288Y-110899025D01*
X150773289Y-110899025D01*
X150778416Y-110898368D01*
X150783846Y-110896739D01*
X150987429Y-110835661D01*
X150987434Y-110835659D01*
X150992384Y-110834174D01*
X151192994Y-110735896D01*
X151374860Y-110606173D01*
X151430039Y-110551187D01*
X151469124Y-110512238D01*
X151533096Y-110448489D01*
X151592594Y-110365689D01*
X151663453Y-110267077D01*
X151664776Y-110268028D01*
X151711645Y-110224857D01*
X151781580Y-110212625D01*
X151847026Y-110240144D01*
X151874875Y-110271994D01*
X151934987Y-110370088D01*
X152081250Y-110538938D01*
X152253126Y-110681632D01*
X152446000Y-110794338D01*
X152450825Y-110796180D01*
X152450826Y-110796181D01*
X152523612Y-110823975D01*
X152654692Y-110874030D01*
X152659760Y-110875061D01*
X152659763Y-110875062D01*
X152739861Y-110891358D01*
X152873597Y-110918567D01*
X152878772Y-110918757D01*
X152878774Y-110918757D01*
X153091673Y-110926564D01*
X153091677Y-110926564D01*
X153096837Y-110926753D01*
X153101957Y-110926097D01*
X153101959Y-110926097D01*
X153313288Y-110899025D01*
X153313289Y-110899025D01*
X153318416Y-110898368D01*
X153323846Y-110896739D01*
X153527429Y-110835661D01*
X153527434Y-110835659D01*
X153532384Y-110834174D01*
X153732994Y-110735896D01*
X153914860Y-110606173D01*
X154023091Y-110498319D01*
X154085462Y-110464404D01*
X154156268Y-110469592D01*
X154213030Y-110512238D01*
X154230012Y-110543341D01*
X154268283Y-110645428D01*
X154274385Y-110661705D01*
X154361739Y-110778261D01*
X154478295Y-110865615D01*
X154614684Y-110916745D01*
X154676866Y-110923500D01*
X156473134Y-110923500D01*
X156535316Y-110916745D01*
X156671705Y-110865615D01*
X156788261Y-110778261D01*
X156875615Y-110661705D01*
X156926745Y-110525316D01*
X156933500Y-110463134D01*
X156933500Y-109536695D01*
X163102251Y-109536695D01*
X163102548Y-109541848D01*
X163102548Y-109541851D01*
X163110227Y-109675027D01*
X163115110Y-109759715D01*
X163116247Y-109764761D01*
X163116248Y-109764767D01*
X163132042Y-109834848D01*
X163164222Y-109977639D01*
X163248266Y-110184616D01*
X163282621Y-110240678D01*
X163359227Y-110365688D01*
X163364987Y-110375088D01*
X163511250Y-110543938D01*
X163515230Y-110547242D01*
X163519981Y-110551187D01*
X163559616Y-110610090D01*
X163561113Y-110681071D01*
X163523997Y-110741593D01*
X163483725Y-110766112D01*
X163451318Y-110778261D01*
X163368295Y-110809385D01*
X163251739Y-110896739D01*
X163164385Y-111013295D01*
X163113255Y-111149684D01*
X163106500Y-111211866D01*
X163106500Y-113008134D01*
X163113255Y-113070316D01*
X163164385Y-113206705D01*
X163251739Y-113323261D01*
X163368295Y-113410615D01*
X163504684Y-113461745D01*
X163566866Y-113468500D01*
X165363134Y-113468500D01*
X165425316Y-113461745D01*
X165561705Y-113410615D01*
X165678261Y-113323261D01*
X165765615Y-113206705D01*
X165816745Y-113070316D01*
X165823500Y-113008134D01*
X165823500Y-111211866D01*
X165816745Y-111149684D01*
X165765615Y-111013295D01*
X165678261Y-110896739D01*
X165561705Y-110809385D01*
X165527500Y-110796562D01*
X165443203Y-110764960D01*
X165386439Y-110722318D01*
X165361739Y-110655756D01*
X165376947Y-110586408D01*
X165398493Y-110557727D01*
X165417348Y-110538938D01*
X165503096Y-110453489D01*
X165560222Y-110373990D01*
X165630435Y-110276277D01*
X165633453Y-110272077D01*
X165648972Y-110240678D01*
X165730136Y-110076453D01*
X165730137Y-110076451D01*
X165732430Y-110071811D01*
X165797370Y-109858069D01*
X165826529Y-109636590D01*
X165826611Y-109633240D01*
X165828074Y-109573365D01*
X165828074Y-109573361D01*
X165828156Y-109570000D01*
X165809852Y-109347361D01*
X165755431Y-109130702D01*
X165666354Y-108925840D01*
X165590835Y-108809105D01*
X165547822Y-108742617D01*
X165547820Y-108742614D01*
X165545014Y-108738277D01*
X165394670Y-108573051D01*
X165390619Y-108569852D01*
X165390615Y-108569848D01*
X165223414Y-108437800D01*
X165223410Y-108437798D01*
X165219359Y-108434598D01*
X165210302Y-108429598D01*
X165093115Y-108364908D01*
X165023789Y-108326638D01*
X165018920Y-108324914D01*
X165018916Y-108324912D01*
X164818087Y-108253795D01*
X164818083Y-108253794D01*
X164813212Y-108252069D01*
X164808119Y-108251162D01*
X164808116Y-108251161D01*
X164598373Y-108213800D01*
X164598367Y-108213799D01*
X164593284Y-108212894D01*
X164519452Y-108211992D01*
X164375081Y-108210228D01*
X164375079Y-108210228D01*
X164369911Y-108210165D01*
X164149091Y-108243955D01*
X163936756Y-108313357D01*
X163738607Y-108416507D01*
X163734474Y-108419610D01*
X163734471Y-108419612D01*
X163566624Y-108545635D01*
X163559965Y-108550635D01*
X163405629Y-108712138D01*
X163279743Y-108896680D01*
X163185688Y-109099305D01*
X163125989Y-109314570D01*
X163102251Y-109536695D01*
X156933500Y-109536695D01*
X156933500Y-108666866D01*
X156926745Y-108604684D01*
X156875615Y-108468295D01*
X156788261Y-108351739D01*
X156671705Y-108264385D01*
X156535316Y-108213255D01*
X156473134Y-108206500D01*
X154676866Y-108206500D01*
X154614684Y-108213255D01*
X154478295Y-108264385D01*
X154361739Y-108351739D01*
X154274385Y-108468295D01*
X154271233Y-108476703D01*
X154229919Y-108586907D01*
X154187277Y-108643671D01*
X154120716Y-108668371D01*
X154051367Y-108653163D01*
X154018743Y-108627476D01*
X153968151Y-108571875D01*
X153968142Y-108571866D01*
X153964670Y-108568051D01*
X153960619Y-108564852D01*
X153960615Y-108564848D01*
X153793414Y-108432800D01*
X153793410Y-108432798D01*
X153789359Y-108429598D01*
X153771270Y-108419612D01*
X153737135Y-108400769D01*
X153593789Y-108321638D01*
X153588920Y-108319914D01*
X153588916Y-108319912D01*
X153388087Y-108248795D01*
X153388083Y-108248794D01*
X153383212Y-108247069D01*
X153378119Y-108246162D01*
X153378116Y-108246161D01*
X153168373Y-108208800D01*
X153168367Y-108208799D01*
X153163284Y-108207894D01*
X153089452Y-108206992D01*
X152945081Y-108205228D01*
X152945079Y-108205228D01*
X152939911Y-108205165D01*
X152719091Y-108238955D01*
X152506756Y-108308357D01*
X152476443Y-108324137D01*
X152404497Y-108361590D01*
X152308607Y-108411507D01*
X152304474Y-108414610D01*
X152304471Y-108414612D01*
X152204374Y-108489767D01*
X152129965Y-108545635D01*
X152103766Y-108573051D01*
X151984748Y-108697596D01*
X151975629Y-108707138D01*
X151868201Y-108864621D01*
X151813293Y-108909621D01*
X151742768Y-108917792D01*
X151679021Y-108886538D01*
X151658324Y-108862054D01*
X151577822Y-108737617D01*
X151577820Y-108737614D01*
X151575014Y-108733277D01*
X151424670Y-108568051D01*
X151420619Y-108564852D01*
X151420615Y-108564848D01*
X151253414Y-108432800D01*
X151253410Y-108432798D01*
X151249359Y-108429598D01*
X151231270Y-108419612D01*
X151197135Y-108400769D01*
X151053789Y-108321638D01*
X151048920Y-108319914D01*
X151048916Y-108319912D01*
X150848087Y-108248795D01*
X150848083Y-108248794D01*
X150843212Y-108247069D01*
X150838119Y-108246162D01*
X150838116Y-108246161D01*
X150628373Y-108208800D01*
X150628367Y-108208799D01*
X150623284Y-108207894D01*
X150549452Y-108206992D01*
X150405081Y-108205228D01*
X150405079Y-108205228D01*
X150399911Y-108205165D01*
X150179091Y-108238955D01*
X149966756Y-108308357D01*
X149936443Y-108324137D01*
X149864497Y-108361590D01*
X149768607Y-108411507D01*
X149764474Y-108414610D01*
X149764471Y-108414612D01*
X149664374Y-108489767D01*
X149589965Y-108545635D01*
X149563766Y-108573051D01*
X149444748Y-108697596D01*
X149435629Y-108707138D01*
X149328201Y-108864621D01*
X149273293Y-108909621D01*
X149202768Y-108917792D01*
X149139021Y-108886538D01*
X149118324Y-108862054D01*
X149037822Y-108737617D01*
X149037820Y-108737614D01*
X149035014Y-108733277D01*
X148884670Y-108568051D01*
X148880619Y-108564852D01*
X148880615Y-108564848D01*
X148713414Y-108432800D01*
X148713410Y-108432798D01*
X148709359Y-108429598D01*
X148691270Y-108419612D01*
X148657135Y-108400769D01*
X148513789Y-108321638D01*
X148508920Y-108319914D01*
X148508916Y-108319912D01*
X148308087Y-108248795D01*
X148308083Y-108248794D01*
X148303212Y-108247069D01*
X148298119Y-108246162D01*
X148298116Y-108246161D01*
X148088373Y-108208800D01*
X148088367Y-108208799D01*
X148083284Y-108207894D01*
X148009452Y-108206992D01*
X147865081Y-108205228D01*
X147865079Y-108205228D01*
X147859911Y-108205165D01*
X147639091Y-108238955D01*
X147426756Y-108308357D01*
X147396443Y-108324137D01*
X147324497Y-108361590D01*
X147228607Y-108411507D01*
X147224474Y-108414610D01*
X147224471Y-108414612D01*
X147124374Y-108489767D01*
X147049965Y-108545635D01*
X147023766Y-108573051D01*
X146904748Y-108697596D01*
X146895629Y-108707138D01*
X146769743Y-108891680D01*
X146675688Y-109094305D01*
X146615989Y-109309570D01*
X146592251Y-109531695D01*
X143909516Y-109531695D01*
X143873087Y-109518795D01*
X143873083Y-109518794D01*
X143868212Y-109517069D01*
X143863119Y-109516162D01*
X143863116Y-109516161D01*
X143653373Y-109478800D01*
X143653367Y-109478799D01*
X143648284Y-109477894D01*
X143574452Y-109476992D01*
X143430081Y-109475228D01*
X143430079Y-109475228D01*
X143424911Y-109475165D01*
X143204091Y-109508955D01*
X142991756Y-109578357D01*
X142793607Y-109681507D01*
X142789474Y-109684610D01*
X142789471Y-109684612D01*
X142619100Y-109812530D01*
X142614965Y-109815635D01*
X142611393Y-109819373D01*
X142469748Y-109967596D01*
X142460629Y-109977138D01*
X142353201Y-110134621D01*
X142298293Y-110179621D01*
X142227768Y-110187792D01*
X142164021Y-110156538D01*
X142143324Y-110132054D01*
X142062822Y-110007617D01*
X142062820Y-110007614D01*
X142060014Y-110003277D01*
X141909670Y-109838051D01*
X141905619Y-109834852D01*
X141905615Y-109834848D01*
X141738414Y-109702800D01*
X141738410Y-109702798D01*
X141734359Y-109699598D01*
X141538789Y-109591638D01*
X141533920Y-109589914D01*
X141533916Y-109589912D01*
X141333087Y-109518795D01*
X141333083Y-109518794D01*
X141328212Y-109517069D01*
X141323119Y-109516162D01*
X141323116Y-109516161D01*
X141113373Y-109478800D01*
X141113367Y-109478799D01*
X141108284Y-109477894D01*
X141034452Y-109476992D01*
X140890081Y-109475228D01*
X140890079Y-109475228D01*
X140884911Y-109475165D01*
X140664091Y-109508955D01*
X140451756Y-109578357D01*
X140253607Y-109681507D01*
X140249474Y-109684610D01*
X140249471Y-109684612D01*
X140079100Y-109812530D01*
X140074965Y-109815635D01*
X140071393Y-109819373D01*
X139929748Y-109967596D01*
X139920629Y-109977138D01*
X139813201Y-110134621D01*
X139758293Y-110179621D01*
X139687768Y-110187792D01*
X139624021Y-110156538D01*
X139603324Y-110132054D01*
X139522822Y-110007617D01*
X139522820Y-110007614D01*
X139520014Y-110003277D01*
X139369670Y-109838051D01*
X139365619Y-109834852D01*
X139365615Y-109834848D01*
X139198414Y-109702800D01*
X139198410Y-109702798D01*
X139194359Y-109699598D01*
X138998789Y-109591638D01*
X138993920Y-109589914D01*
X138993916Y-109589912D01*
X138793087Y-109518795D01*
X138793083Y-109518794D01*
X138788212Y-109517069D01*
X138783119Y-109516162D01*
X138783116Y-109516161D01*
X138573373Y-109478800D01*
X138573367Y-109478799D01*
X138568284Y-109477894D01*
X138494452Y-109476992D01*
X138350081Y-109475228D01*
X138350079Y-109475228D01*
X138344911Y-109475165D01*
X138124091Y-109508955D01*
X137911756Y-109578357D01*
X137713607Y-109681507D01*
X137709474Y-109684610D01*
X137709471Y-109684612D01*
X137539100Y-109812530D01*
X137534965Y-109815635D01*
X137478537Y-109874684D01*
X137454283Y-109900064D01*
X137392759Y-109935494D01*
X137321846Y-109932037D01*
X137264060Y-109890791D01*
X137245207Y-109857243D01*
X137203767Y-109746703D01*
X137200615Y-109738295D01*
X137113261Y-109621739D01*
X136996705Y-109534385D01*
X136860316Y-109483255D01*
X136798134Y-109476500D01*
X135001866Y-109476500D01*
X134939684Y-109483255D01*
X134803295Y-109534385D01*
X134686739Y-109621739D01*
X134599385Y-109738295D01*
X134548255Y-109874684D01*
X134541500Y-109936866D01*
X134541500Y-111733134D01*
X125483400Y-111733134D01*
X125498096Y-111718489D01*
X125516326Y-111693120D01*
X125625435Y-111541277D01*
X125628453Y-111537077D01*
X125649320Y-111494857D01*
X125725136Y-111341453D01*
X125725137Y-111341451D01*
X125727430Y-111336811D01*
X125792370Y-111123069D01*
X125821529Y-110901590D01*
X125822177Y-110875062D01*
X125823074Y-110838365D01*
X125823074Y-110838361D01*
X125823156Y-110835000D01*
X125804852Y-110612361D01*
X125750431Y-110395702D01*
X125661354Y-110190840D01*
X125540014Y-110003277D01*
X125389670Y-109838051D01*
X125385619Y-109834852D01*
X125385615Y-109834848D01*
X125218414Y-109702800D01*
X125218410Y-109702798D01*
X125214359Y-109699598D01*
X125173053Y-109676796D01*
X125123084Y-109626364D01*
X125108312Y-109556921D01*
X125133428Y-109490516D01*
X125160780Y-109463909D01*
X125204603Y-109432650D01*
X125339860Y-109336173D01*
X125498096Y-109178489D01*
X125528829Y-109135720D01*
X125625435Y-109001277D01*
X125628453Y-108997077D01*
X125663661Y-108925840D01*
X125725136Y-108801453D01*
X125725137Y-108801451D01*
X125727430Y-108796811D01*
X125788211Y-108596759D01*
X125790865Y-108588023D01*
X125790865Y-108588021D01*
X125792370Y-108583069D01*
X125821529Y-108361590D01*
X125822505Y-108321638D01*
X125823074Y-108298365D01*
X125823074Y-108298361D01*
X125823156Y-108295000D01*
X125804852Y-108072361D01*
X125750431Y-107855702D01*
X125699797Y-107739252D01*
X125690977Y-107668807D01*
X125721644Y-107604775D01*
X125782060Y-107567487D01*
X125815347Y-107563011D01*
X138736722Y-107563011D01*
X138747905Y-107563538D01*
X138755398Y-107565213D01*
X138763324Y-107564964D01*
X138763325Y-107564964D01*
X138823475Y-107563073D01*
X138827434Y-107563011D01*
X138855345Y-107563011D01*
X138859280Y-107562514D01*
X138859345Y-107562506D01*
X138871182Y-107561573D01*
X138903440Y-107560559D01*
X138907459Y-107560433D01*
X138915378Y-107560184D01*
X138934832Y-107554532D01*
X138954189Y-107550524D01*
X138966419Y-107548979D01*
X138966420Y-107548979D01*
X138974286Y-107547985D01*
X138981657Y-107545066D01*
X138981659Y-107545066D01*
X139015401Y-107531707D01*
X139026631Y-107527862D01*
X139061472Y-107517740D01*
X139061473Y-107517740D01*
X139069082Y-107515529D01*
X139075901Y-107511496D01*
X139075906Y-107511494D01*
X139086517Y-107505218D01*
X139104265Y-107496523D01*
X139123106Y-107489063D01*
X139158876Y-107463075D01*
X139168796Y-107456559D01*
X139200024Y-107438091D01*
X139200027Y-107438089D01*
X139206851Y-107434053D01*
X139221172Y-107419732D01*
X139236206Y-107406891D01*
X139246183Y-107399642D01*
X139252596Y-107394983D01*
X139280787Y-107360906D01*
X139288777Y-107352127D01*
X144729210Y-101911695D01*
X162467251Y-101911695D01*
X162467548Y-101916848D01*
X162467548Y-101916851D01*
X162472857Y-102008920D01*
X162480110Y-102134715D01*
X162481247Y-102139761D01*
X162481248Y-102139767D01*
X162501119Y-102227939D01*
X162529222Y-102352639D01*
X162613266Y-102559616D01*
X162729987Y-102750088D01*
X162876250Y-102918938D01*
X163048126Y-103061632D01*
X163241000Y-103174338D01*
X163449692Y-103254030D01*
X163454760Y-103255061D01*
X163454763Y-103255062D01*
X163562017Y-103276883D01*
X163668597Y-103298567D01*
X163673772Y-103298757D01*
X163673774Y-103298757D01*
X163886673Y-103306564D01*
X163886677Y-103306564D01*
X163891837Y-103306753D01*
X163896957Y-103306097D01*
X163896959Y-103306097D01*
X164108288Y-103279025D01*
X164108289Y-103279025D01*
X164113416Y-103278368D01*
X164118366Y-103276883D01*
X164322429Y-103215661D01*
X164322434Y-103215659D01*
X164327384Y-103214174D01*
X164527994Y-103115896D01*
X164709860Y-102986173D01*
X164868096Y-102828489D01*
X164927594Y-102745689D01*
X164995435Y-102651277D01*
X164998453Y-102647077D01*
X165002791Y-102638301D01*
X165095136Y-102451453D01*
X165095137Y-102451451D01*
X165097430Y-102446811D01*
X165162370Y-102233069D01*
X165191529Y-102011590D01*
X165191611Y-102008240D01*
X165193074Y-101948365D01*
X165193074Y-101948361D01*
X165193156Y-101945000D01*
X165174852Y-101722361D01*
X165120431Y-101505702D01*
X165031354Y-101300840D01*
X164910014Y-101113277D01*
X164759670Y-100948051D01*
X164755619Y-100944852D01*
X164755615Y-100944848D01*
X164588414Y-100812800D01*
X164588410Y-100812798D01*
X164584359Y-100809598D01*
X164543053Y-100786796D01*
X164493084Y-100736364D01*
X164478312Y-100666921D01*
X164503428Y-100600516D01*
X164530780Y-100573909D01*
X164574603Y-100542650D01*
X164709860Y-100446173D01*
X164868096Y-100288489D01*
X164927594Y-100205689D01*
X164995435Y-100111277D01*
X164998453Y-100107077D01*
X165036132Y-100030840D01*
X165095136Y-99911453D01*
X165095137Y-99911451D01*
X165097430Y-99906811D01*
X165162370Y-99693069D01*
X165191529Y-99471590D01*
X165193156Y-99405000D01*
X165174852Y-99182361D01*
X165120431Y-98965702D01*
X165031354Y-98760840D01*
X164910014Y-98573277D01*
X164759670Y-98408051D01*
X164755619Y-98404852D01*
X164755615Y-98404848D01*
X164588414Y-98272800D01*
X164588410Y-98272798D01*
X164584359Y-98269598D01*
X164543053Y-98246796D01*
X164493084Y-98196364D01*
X164478312Y-98126921D01*
X164503428Y-98060516D01*
X164530780Y-98033909D01*
X164574603Y-98002650D01*
X164709860Y-97906173D01*
X164868096Y-97748489D01*
X164908728Y-97691944D01*
X164995435Y-97571277D01*
X164998453Y-97567077D01*
X165097430Y-97366811D01*
X165162370Y-97153069D01*
X165191529Y-96931590D01*
X165193156Y-96865000D01*
X165174852Y-96642361D01*
X165120431Y-96425702D01*
X165031354Y-96220840D01*
X164966225Y-96120166D01*
X164912822Y-96037617D01*
X164912820Y-96037614D01*
X164910014Y-96033277D01*
X164759670Y-95868051D01*
X164755619Y-95864852D01*
X164755615Y-95864848D01*
X164588414Y-95732800D01*
X164588410Y-95732798D01*
X164584359Y-95729598D01*
X164543053Y-95706796D01*
X164493084Y-95656364D01*
X164478312Y-95586921D01*
X164503428Y-95520516D01*
X164530780Y-95493909D01*
X164597657Y-95446206D01*
X164709860Y-95366173D01*
X164868096Y-95208489D01*
X164875071Y-95198783D01*
X164995435Y-95031277D01*
X164998453Y-95027077D01*
X165068806Y-94884729D01*
X165095136Y-94831453D01*
X165095137Y-94831451D01*
X165097430Y-94826811D01*
X165162370Y-94613069D01*
X165191529Y-94391590D01*
X165191816Y-94379834D01*
X165193074Y-94328365D01*
X165193074Y-94328361D01*
X165193156Y-94325000D01*
X165174852Y-94102361D01*
X165120431Y-93885702D01*
X165031354Y-93680840D01*
X164910014Y-93493277D01*
X164759670Y-93328051D01*
X164755619Y-93324852D01*
X164755615Y-93324848D01*
X164588414Y-93192800D01*
X164588410Y-93192798D01*
X164584359Y-93189598D01*
X164543053Y-93166796D01*
X164493084Y-93116364D01*
X164478312Y-93046921D01*
X164503428Y-92980516D01*
X164530780Y-92953909D01*
X164588689Y-92912603D01*
X164709860Y-92826173D01*
X164868096Y-92668489D01*
X164927594Y-92585689D01*
X164995435Y-92491277D01*
X164998453Y-92487077D01*
X165097430Y-92286811D01*
X165162370Y-92073069D01*
X165191529Y-91851590D01*
X165193156Y-91785000D01*
X165174852Y-91562361D01*
X165120431Y-91345702D01*
X165031354Y-91140840D01*
X164966225Y-91040166D01*
X164912822Y-90957617D01*
X164912820Y-90957614D01*
X164910014Y-90953277D01*
X164906532Y-90949450D01*
X164762798Y-90791488D01*
X164731746Y-90727642D01*
X164740141Y-90657143D01*
X164785317Y-90602375D01*
X164811761Y-90588706D01*
X164918297Y-90548767D01*
X164926705Y-90545615D01*
X165043261Y-90458261D01*
X165130615Y-90341705D01*
X165181745Y-90205316D01*
X165188500Y-90143134D01*
X165188500Y-88346866D01*
X165181745Y-88284684D01*
X165130615Y-88148295D01*
X165043261Y-88031739D01*
X164926705Y-87944385D01*
X164790316Y-87893255D01*
X164728134Y-87886500D01*
X162931866Y-87886500D01*
X162869684Y-87893255D01*
X162733295Y-87944385D01*
X162616739Y-88031739D01*
X162529385Y-88148295D01*
X162478255Y-88284684D01*
X162471500Y-88346866D01*
X162471500Y-90143134D01*
X162478255Y-90205316D01*
X162529385Y-90341705D01*
X162616739Y-90458261D01*
X162733295Y-90545615D01*
X162741704Y-90548767D01*
X162741705Y-90548768D01*
X162850451Y-90589535D01*
X162907216Y-90632176D01*
X162931916Y-90698738D01*
X162916709Y-90768087D01*
X162897316Y-90794568D01*
X162845428Y-90848866D01*
X162770629Y-90927138D01*
X162644743Y-91111680D01*
X162629003Y-91145590D01*
X162576690Y-91258289D01*
X162550688Y-91314305D01*
X162490989Y-91529570D01*
X162467251Y-91751695D01*
X162467548Y-91756848D01*
X162467548Y-91756851D01*
X162476143Y-91905921D01*
X162480110Y-91974715D01*
X162481247Y-91979761D01*
X162481248Y-91979767D01*
X162493909Y-92035947D01*
X162529222Y-92192639D01*
X162613266Y-92399616D01*
X162615965Y-92404020D01*
X162720812Y-92575115D01*
X162729987Y-92590088D01*
X162876250Y-92758938D01*
X163048126Y-92901632D01*
X163100456Y-92932211D01*
X163121445Y-92944476D01*
X163170169Y-92996114D01*
X163183240Y-93065897D01*
X163156509Y-93131669D01*
X163116055Y-93165027D01*
X163103607Y-93171507D01*
X163099474Y-93174610D01*
X163099471Y-93174612D01*
X163075247Y-93192800D01*
X162924965Y-93305635D01*
X162770629Y-93467138D01*
X162644743Y-93651680D01*
X162550688Y-93854305D01*
X162490989Y-94069570D01*
X162467251Y-94291695D01*
X162467548Y-94296848D01*
X162467548Y-94296851D01*
X162479812Y-94509547D01*
X162480110Y-94514715D01*
X162481247Y-94519761D01*
X162481248Y-94519767D01*
X162501119Y-94607939D01*
X162529222Y-94732639D01*
X162613266Y-94939616D01*
X162729987Y-95130088D01*
X162876250Y-95298938D01*
X163048126Y-95441632D01*
X163118595Y-95482811D01*
X163121445Y-95484476D01*
X163170169Y-95536114D01*
X163183240Y-95605897D01*
X163156509Y-95671669D01*
X163116055Y-95705027D01*
X163103607Y-95711507D01*
X163099474Y-95714610D01*
X163099471Y-95714612D01*
X163003134Y-95786944D01*
X162924965Y-95845635D01*
X162770629Y-96007138D01*
X162644743Y-96191680D01*
X162550688Y-96394305D01*
X162490989Y-96609570D01*
X162467251Y-96831695D01*
X162467548Y-96836848D01*
X162467548Y-96836851D01*
X162472857Y-96928919D01*
X162480110Y-97054715D01*
X162481247Y-97059761D01*
X162481248Y-97059767D01*
X162503392Y-97158023D01*
X162529222Y-97272639D01*
X162613266Y-97479616D01*
X162729987Y-97670088D01*
X162876250Y-97838938D01*
X163048126Y-97981632D01*
X163115683Y-98021109D01*
X163121445Y-98024476D01*
X163170169Y-98076114D01*
X163183240Y-98145897D01*
X163156509Y-98211669D01*
X163116055Y-98245027D01*
X163103607Y-98251507D01*
X163099474Y-98254610D01*
X163099471Y-98254612D01*
X163075247Y-98272800D01*
X162924965Y-98385635D01*
X162770629Y-98547138D01*
X162644743Y-98731680D01*
X162550688Y-98934305D01*
X162490989Y-99149570D01*
X162467251Y-99371695D01*
X162467548Y-99376848D01*
X162467548Y-99376851D01*
X162476932Y-99539598D01*
X162480110Y-99594715D01*
X162481247Y-99599761D01*
X162481248Y-99599767D01*
X162501119Y-99687939D01*
X162529222Y-99812639D01*
X162613266Y-100019616D01*
X162729987Y-100210088D01*
X162876250Y-100378938D01*
X163048126Y-100521632D01*
X163118595Y-100562811D01*
X163121445Y-100564476D01*
X163170169Y-100616114D01*
X163183240Y-100685897D01*
X163156509Y-100751669D01*
X163116055Y-100785027D01*
X163103607Y-100791507D01*
X163099474Y-100794610D01*
X163099471Y-100794612D01*
X162999374Y-100869767D01*
X162924965Y-100925635D01*
X162921393Y-100929373D01*
X162779748Y-101077596D01*
X162770629Y-101087138D01*
X162644743Y-101271680D01*
X162629003Y-101305590D01*
X162569738Y-101433266D01*
X162550688Y-101474305D01*
X162490989Y-101689570D01*
X162467251Y-101911695D01*
X144729210Y-101911695D01*
X148540500Y-98100405D01*
X148602812Y-98066379D01*
X148629595Y-98063500D01*
X148685487Y-98063500D01*
X148691939Y-98062128D01*
X148691944Y-98062128D01*
X148778887Y-98043647D01*
X148872288Y-98023794D01*
X148966986Y-97981632D01*
X149040722Y-97948803D01*
X149040724Y-97948802D01*
X149046752Y-97946118D01*
X149201253Y-97833866D01*
X149329040Y-97691944D01*
X149401132Y-97567077D01*
X149421223Y-97532279D01*
X149421224Y-97532278D01*
X149424527Y-97526556D01*
X149483542Y-97344928D01*
X149503504Y-97155000D01*
X149483542Y-96965072D01*
X149424527Y-96783444D01*
X149329040Y-96618056D01*
X149316914Y-96604588D01*
X149205675Y-96481045D01*
X149205674Y-96481044D01*
X149201253Y-96476134D01*
X149095496Y-96399297D01*
X149052094Y-96367763D01*
X149052093Y-96367762D01*
X149046752Y-96363882D01*
X149040724Y-96361198D01*
X149040722Y-96361197D01*
X148878319Y-96288891D01*
X148878318Y-96288891D01*
X148872288Y-96286206D01*
X148778888Y-96266353D01*
X148691944Y-96247872D01*
X148691939Y-96247872D01*
X148685487Y-96246500D01*
X148494513Y-96246500D01*
X148488061Y-96247872D01*
X148488056Y-96247872D01*
X148401112Y-96266353D01*
X148307712Y-96286206D01*
X148301682Y-96288891D01*
X148301681Y-96288891D01*
X148139278Y-96361197D01*
X148139276Y-96361198D01*
X148133248Y-96363882D01*
X148127907Y-96367762D01*
X148127906Y-96367763D01*
X148084504Y-96399297D01*
X147978747Y-96476134D01*
X147974326Y-96481044D01*
X147974325Y-96481045D01*
X147863087Y-96604588D01*
X147850960Y-96618056D01*
X147755473Y-96783444D01*
X147696458Y-96965072D01*
X147695768Y-96971633D01*
X147695768Y-96971635D01*
X147679093Y-97130293D01*
X147652080Y-97195950D01*
X147642878Y-97206218D01*
X138589989Y-106259106D01*
X138527677Y-106293132D01*
X138500894Y-106296011D01*
X125884967Y-106296011D01*
X125816846Y-106276009D01*
X125770353Y-106222353D01*
X125760249Y-106152079D01*
X125764408Y-106133383D01*
X125790379Y-106047903D01*
X125792555Y-106037837D01*
X125793986Y-106026962D01*
X125791775Y-106012778D01*
X125778617Y-106009000D01*
X123143225Y-106009000D01*
X123129694Y-106012973D01*
X123128257Y-106022966D01*
X123155153Y-106142310D01*
X123150617Y-106213162D01*
X123108495Y-106270313D01*
X123042162Y-106295619D01*
X123032236Y-106296011D01*
X118026746Y-106296011D01*
X117958625Y-106276009D01*
X117944915Y-106265822D01*
X117937052Y-106259106D01*
X117804416Y-106145824D01*
X117800208Y-106143245D01*
X117800202Y-106143241D01*
X117606183Y-106024346D01*
X117601963Y-106021760D01*
X117597393Y-106019867D01*
X117597389Y-106019865D01*
X117387167Y-105932789D01*
X117387165Y-105932788D01*
X117382594Y-105930895D01*
X117302391Y-105911640D01*
X117156524Y-105876620D01*
X117156518Y-105876619D01*
X117151711Y-105875465D01*
X116915000Y-105856835D01*
X116678289Y-105875465D01*
X116673482Y-105876619D01*
X116673476Y-105876620D01*
X116527609Y-105911640D01*
X116447406Y-105930895D01*
X116442835Y-105932788D01*
X116442833Y-105932789D01*
X116232611Y-106019865D01*
X116232607Y-106019867D01*
X116228037Y-106021760D01*
X116223817Y-106024346D01*
X116029798Y-106143241D01*
X116029792Y-106143245D01*
X116025584Y-106145824D01*
X115845031Y-106300031D01*
X115690824Y-106480584D01*
X115688245Y-106484792D01*
X115688241Y-106484798D01*
X115569346Y-106678817D01*
X115566760Y-106683037D01*
X115475895Y-106902406D01*
X115420465Y-107133289D01*
X115401835Y-107370000D01*
X111928165Y-107370000D01*
X111909535Y-107133289D01*
X111854105Y-106902406D01*
X111763240Y-106683037D01*
X111760654Y-106678817D01*
X111641759Y-106484798D01*
X111641755Y-106484792D01*
X111639176Y-106480584D01*
X111484969Y-106300031D01*
X111304416Y-106145824D01*
X111300208Y-106143245D01*
X111300202Y-106143241D01*
X111106183Y-106024346D01*
X111101963Y-106021760D01*
X111097393Y-106019867D01*
X111097389Y-106019865D01*
X110887167Y-105932789D01*
X110887165Y-105932788D01*
X110882594Y-105930895D01*
X110802391Y-105911640D01*
X110656524Y-105876620D01*
X110656518Y-105876619D01*
X110651711Y-105875465D01*
X110415000Y-105856835D01*
X110178289Y-105875465D01*
X110173482Y-105876619D01*
X110173476Y-105876620D01*
X110027609Y-105911640D01*
X109947406Y-105930895D01*
X109942835Y-105932788D01*
X109942833Y-105932789D01*
X109732611Y-106019865D01*
X109732607Y-106019867D01*
X109728037Y-106021760D01*
X109723817Y-106024346D01*
X109529798Y-106143241D01*
X109529792Y-106143245D01*
X109525584Y-106145824D01*
X109345031Y-106300031D01*
X109190824Y-106480584D01*
X109188245Y-106484792D01*
X109188241Y-106484798D01*
X109069346Y-106678817D01*
X109066760Y-106683037D01*
X108975895Y-106902406D01*
X108920465Y-107133289D01*
X108901835Y-107370000D01*
X102743500Y-107370000D01*
X102743500Y-104102670D01*
X109547160Y-104102670D01*
X109552887Y-104110320D01*
X109724042Y-104215205D01*
X109732837Y-104219687D01*
X109942988Y-104306734D01*
X109952373Y-104309783D01*
X110173554Y-104362885D01*
X110183301Y-104364428D01*
X110410070Y-104382275D01*
X110419930Y-104382275D01*
X110646699Y-104364428D01*
X110656446Y-104362885D01*
X110877627Y-104309783D01*
X110887012Y-104306734D01*
X111097163Y-104219687D01*
X111105958Y-104215205D01*
X111273445Y-104112568D01*
X111282400Y-104102670D01*
X116047160Y-104102670D01*
X116052887Y-104110320D01*
X116224042Y-104215205D01*
X116232837Y-104219687D01*
X116442988Y-104306734D01*
X116452373Y-104309783D01*
X116673554Y-104362885D01*
X116683301Y-104364428D01*
X116910070Y-104382275D01*
X116919930Y-104382275D01*
X117146699Y-104364428D01*
X117156446Y-104362885D01*
X117377627Y-104309783D01*
X117387012Y-104306734D01*
X117597163Y-104219687D01*
X117605958Y-104215205D01*
X117773445Y-104112568D01*
X117782907Y-104102110D01*
X117779124Y-104093334D01*
X116927812Y-103242022D01*
X116913868Y-103234408D01*
X116912035Y-103234539D01*
X116905420Y-103238790D01*
X116053920Y-104090290D01*
X116047160Y-104102670D01*
X111282400Y-104102670D01*
X111282907Y-104102110D01*
X111279124Y-104093334D01*
X110427812Y-103242022D01*
X110413868Y-103234408D01*
X110412035Y-103234539D01*
X110405420Y-103238790D01*
X109553920Y-104090290D01*
X109547160Y-104102670D01*
X102743500Y-104102670D01*
X102743500Y-102874930D01*
X108902725Y-102874930D01*
X108920572Y-103101699D01*
X108922115Y-103111446D01*
X108975217Y-103332627D01*
X108978266Y-103342012D01*
X109065313Y-103552163D01*
X109069795Y-103560958D01*
X109172432Y-103728445D01*
X109182890Y-103737907D01*
X109191666Y-103734124D01*
X110042978Y-102882812D01*
X110049356Y-102871132D01*
X110779408Y-102871132D01*
X110779539Y-102872965D01*
X110783790Y-102879580D01*
X111635290Y-103731080D01*
X111647670Y-103737840D01*
X111655320Y-103732113D01*
X111760205Y-103560958D01*
X111764687Y-103552163D01*
X111851734Y-103342012D01*
X111854783Y-103332627D01*
X111907885Y-103111446D01*
X111909428Y-103101699D01*
X111927275Y-102874930D01*
X115402725Y-102874930D01*
X115420572Y-103101699D01*
X115422115Y-103111446D01*
X115475217Y-103332627D01*
X115478266Y-103342012D01*
X115565313Y-103552163D01*
X115569795Y-103560958D01*
X115672432Y-103728445D01*
X115682890Y-103737907D01*
X115691666Y-103734124D01*
X116542978Y-102882812D01*
X116549356Y-102871132D01*
X117279408Y-102871132D01*
X117279539Y-102872965D01*
X117283790Y-102879580D01*
X118135290Y-103731080D01*
X118147670Y-103737840D01*
X118155320Y-103732113D01*
X118260205Y-103560958D01*
X118264687Y-103552163D01*
X118351734Y-103342012D01*
X118354783Y-103332627D01*
X118391019Y-103181695D01*
X123097251Y-103181695D01*
X123097548Y-103186848D01*
X123097548Y-103186851D01*
X123106495Y-103342012D01*
X123110110Y-103404715D01*
X123111247Y-103409761D01*
X123111248Y-103409767D01*
X123131119Y-103497939D01*
X123159222Y-103622639D01*
X123243266Y-103829616D01*
X123359987Y-104020088D01*
X123506250Y-104188938D01*
X123678126Y-104331632D01*
X123731609Y-104362885D01*
X123751955Y-104374774D01*
X123800679Y-104426412D01*
X123813750Y-104496195D01*
X123787019Y-104561967D01*
X123746562Y-104595327D01*
X123738457Y-104599546D01*
X123729738Y-104605036D01*
X123559433Y-104732905D01*
X123551726Y-104739748D01*
X123404590Y-104893717D01*
X123398104Y-104901727D01*
X123278098Y-105077649D01*
X123273000Y-105086623D01*
X123183338Y-105279783D01*
X123179775Y-105289470D01*
X123124389Y-105489183D01*
X123125912Y-105497607D01*
X123138292Y-105501000D01*
X125778344Y-105501000D01*
X125791875Y-105497027D01*
X125793180Y-105487947D01*
X125751214Y-105320875D01*
X125747894Y-105311124D01*
X125662972Y-105115814D01*
X125658105Y-105106739D01*
X125542426Y-104927926D01*
X125536136Y-104919757D01*
X125392806Y-104762240D01*
X125385273Y-104755215D01*
X125218139Y-104623222D01*
X125209556Y-104617520D01*
X125172602Y-104597120D01*
X125122631Y-104546687D01*
X125107859Y-104477245D01*
X125132975Y-104410839D01*
X125160327Y-104384232D01*
X125190254Y-104362885D01*
X125339860Y-104256173D01*
X125380972Y-104215205D01*
X125483968Y-104112568D01*
X125498096Y-104098489D01*
X125557594Y-104015689D01*
X125625435Y-103921277D01*
X125628453Y-103917077D01*
X125718874Y-103734124D01*
X125725136Y-103721453D01*
X125725137Y-103721451D01*
X125727430Y-103716811D01*
X125792370Y-103503069D01*
X125821529Y-103281590D01*
X125822177Y-103255062D01*
X125823074Y-103218365D01*
X125823074Y-103218361D01*
X125823156Y-103215000D01*
X125804852Y-102992361D01*
X125750431Y-102775702D01*
X125661354Y-102570840D01*
X125577911Y-102441857D01*
X125542822Y-102387617D01*
X125542820Y-102387614D01*
X125540014Y-102383277D01*
X125389670Y-102218051D01*
X125385619Y-102214852D01*
X125385615Y-102214848D01*
X125218414Y-102082800D01*
X125218410Y-102082798D01*
X125214359Y-102079598D01*
X125173053Y-102056796D01*
X125123084Y-102006364D01*
X125108312Y-101936921D01*
X125133428Y-101870516D01*
X125160780Y-101843909D01*
X125204603Y-101812650D01*
X125339860Y-101716173D01*
X125498096Y-101558489D01*
X125522308Y-101524795D01*
X125625435Y-101381277D01*
X125628453Y-101377077D01*
X125638018Y-101357725D01*
X125725136Y-101181453D01*
X125725137Y-101181451D01*
X125727430Y-101176811D01*
X125792370Y-100963069D01*
X125821529Y-100741590D01*
X125823156Y-100675000D01*
X125804852Y-100452361D01*
X125750431Y-100235702D01*
X125661354Y-100030840D01*
X125540014Y-99843277D01*
X125536532Y-99839450D01*
X125392798Y-99681488D01*
X125361746Y-99617642D01*
X125370141Y-99547143D01*
X125415317Y-99492375D01*
X125441761Y-99478706D01*
X125548297Y-99438767D01*
X125556705Y-99435615D01*
X125673261Y-99348261D01*
X125760615Y-99231705D01*
X125811745Y-99095316D01*
X125818500Y-99033134D01*
X125818500Y-97236866D01*
X125811745Y-97174684D01*
X125760615Y-97038295D01*
X125673261Y-96921739D01*
X125556705Y-96834385D01*
X125420316Y-96783255D01*
X125358134Y-96776500D01*
X123561866Y-96776500D01*
X123499684Y-96783255D01*
X123363295Y-96834385D01*
X123246739Y-96921739D01*
X123159385Y-97038295D01*
X123108255Y-97174684D01*
X123101500Y-97236866D01*
X123101500Y-99033134D01*
X123108255Y-99095316D01*
X123159385Y-99231705D01*
X123246739Y-99348261D01*
X123363295Y-99435615D01*
X123371704Y-99438767D01*
X123371705Y-99438768D01*
X123480451Y-99479535D01*
X123537216Y-99522176D01*
X123561916Y-99588738D01*
X123546709Y-99658087D01*
X123527316Y-99684568D01*
X123409748Y-99807596D01*
X123400629Y-99817138D01*
X123274743Y-100001680D01*
X123180688Y-100204305D01*
X123120989Y-100419570D01*
X123097251Y-100641695D01*
X123097548Y-100646848D01*
X123097548Y-100646851D01*
X123103011Y-100741590D01*
X123110110Y-100864715D01*
X123111247Y-100869761D01*
X123111248Y-100869767D01*
X123131119Y-100957939D01*
X123159222Y-101082639D01*
X123243266Y-101289616D01*
X123245965Y-101294020D01*
X123331295Y-101433266D01*
X123359987Y-101480088D01*
X123506250Y-101648938D01*
X123678126Y-101791632D01*
X123748595Y-101832811D01*
X123751445Y-101834476D01*
X123800169Y-101886114D01*
X123813240Y-101955897D01*
X123786509Y-102021669D01*
X123746055Y-102055027D01*
X123733607Y-102061507D01*
X123729474Y-102064610D01*
X123729471Y-102064612D01*
X123559100Y-102192530D01*
X123554965Y-102195635D01*
X123551393Y-102199373D01*
X123409748Y-102347596D01*
X123400629Y-102357138D01*
X123274743Y-102541680D01*
X123180688Y-102744305D01*
X123120989Y-102959570D01*
X123097251Y-103181695D01*
X118391019Y-103181695D01*
X118407885Y-103111446D01*
X118409428Y-103101699D01*
X118427275Y-102874930D01*
X118427275Y-102865070D01*
X118409428Y-102638301D01*
X118407885Y-102628554D01*
X118354783Y-102407373D01*
X118351734Y-102397988D01*
X118264687Y-102187837D01*
X118260205Y-102179042D01*
X118157568Y-102011555D01*
X118147110Y-102002093D01*
X118138334Y-102005876D01*
X117287022Y-102857188D01*
X117279408Y-102871132D01*
X116549356Y-102871132D01*
X116550592Y-102868868D01*
X116550461Y-102867035D01*
X116546210Y-102860420D01*
X115694710Y-102008920D01*
X115682330Y-102002160D01*
X115674680Y-102007887D01*
X115569795Y-102179042D01*
X115565313Y-102187837D01*
X115478266Y-102397988D01*
X115475217Y-102407373D01*
X115422115Y-102628554D01*
X115420572Y-102638301D01*
X115402725Y-102865070D01*
X115402725Y-102874930D01*
X111927275Y-102874930D01*
X111927275Y-102865070D01*
X111909428Y-102638301D01*
X111907885Y-102628554D01*
X111854783Y-102407373D01*
X111851734Y-102397988D01*
X111764687Y-102187837D01*
X111760205Y-102179042D01*
X111657568Y-102011555D01*
X111647110Y-102002093D01*
X111638334Y-102005876D01*
X110787022Y-102857188D01*
X110779408Y-102871132D01*
X110049356Y-102871132D01*
X110050592Y-102868868D01*
X110050461Y-102867035D01*
X110046210Y-102860420D01*
X109194710Y-102008920D01*
X109182330Y-102002160D01*
X109174680Y-102007887D01*
X109069795Y-102179042D01*
X109065313Y-102187837D01*
X108978266Y-102397988D01*
X108975217Y-102407373D01*
X108922115Y-102628554D01*
X108920572Y-102638301D01*
X108902725Y-102865070D01*
X108902725Y-102874930D01*
X102743500Y-102874930D01*
X102743500Y-101637890D01*
X109547093Y-101637890D01*
X109550876Y-101646666D01*
X110402188Y-102497978D01*
X110416132Y-102505592D01*
X110417965Y-102505461D01*
X110424580Y-102501210D01*
X111276080Y-101649710D01*
X111282534Y-101637890D01*
X116047093Y-101637890D01*
X116050876Y-101646666D01*
X116902188Y-102497978D01*
X116916132Y-102505592D01*
X116917965Y-102505461D01*
X116924580Y-102501210D01*
X117776080Y-101649710D01*
X117782840Y-101637330D01*
X117777113Y-101629680D01*
X117605958Y-101524795D01*
X117597163Y-101520313D01*
X117387012Y-101433266D01*
X117377627Y-101430217D01*
X117156446Y-101377115D01*
X117146699Y-101375572D01*
X116919930Y-101357725D01*
X116910070Y-101357725D01*
X116683301Y-101375572D01*
X116673554Y-101377115D01*
X116452373Y-101430217D01*
X116442988Y-101433266D01*
X116232837Y-101520313D01*
X116224042Y-101524795D01*
X116056555Y-101627432D01*
X116047093Y-101637890D01*
X111282534Y-101637890D01*
X111282840Y-101637330D01*
X111277113Y-101629680D01*
X111105958Y-101524795D01*
X111097163Y-101520313D01*
X110887012Y-101433266D01*
X110877627Y-101430217D01*
X110656446Y-101377115D01*
X110646699Y-101375572D01*
X110419930Y-101357725D01*
X110410070Y-101357725D01*
X110183301Y-101375572D01*
X110173554Y-101377115D01*
X109952373Y-101430217D01*
X109942988Y-101433266D01*
X109732837Y-101520313D01*
X109724042Y-101524795D01*
X109556555Y-101627432D01*
X109547093Y-101637890D01*
X102743500Y-101637890D01*
X102743500Y-91495000D01*
X108901835Y-91495000D01*
X108920465Y-91731711D01*
X108921619Y-91736518D01*
X108921620Y-91736524D01*
X108934066Y-91788365D01*
X108975895Y-91962594D01*
X108977788Y-91967165D01*
X108977789Y-91967167D01*
X109010040Y-92045027D01*
X109066760Y-92181963D01*
X109069346Y-92186183D01*
X109188241Y-92380202D01*
X109188245Y-92380208D01*
X109190824Y-92384416D01*
X109274543Y-92482438D01*
X109341452Y-92560778D01*
X109345031Y-92564969D01*
X109525584Y-92719176D01*
X109529792Y-92721755D01*
X109529798Y-92721759D01*
X109723817Y-92840654D01*
X109728037Y-92843240D01*
X109732607Y-92845133D01*
X109732611Y-92845135D01*
X109895495Y-92912603D01*
X109947406Y-92934105D01*
X110027609Y-92953360D01*
X110173476Y-92988380D01*
X110173482Y-92988381D01*
X110178289Y-92989535D01*
X110415000Y-93008165D01*
X110651711Y-92989535D01*
X110656518Y-92988381D01*
X110656524Y-92988380D01*
X110802391Y-92953360D01*
X110882594Y-92934105D01*
X110934505Y-92912603D01*
X111097389Y-92845135D01*
X111097393Y-92845133D01*
X111101963Y-92843240D01*
X111106183Y-92840654D01*
X111300202Y-92721759D01*
X111300208Y-92721755D01*
X111304416Y-92719176D01*
X111484969Y-92564969D01*
X111488549Y-92560778D01*
X111555457Y-92482438D01*
X111639176Y-92384416D01*
X111641755Y-92380208D01*
X111641759Y-92380202D01*
X111760654Y-92186183D01*
X111763240Y-92181963D01*
X111819961Y-92045027D01*
X111852211Y-91967167D01*
X111852212Y-91967165D01*
X111854105Y-91962594D01*
X111895934Y-91788365D01*
X111908380Y-91736524D01*
X111908381Y-91736518D01*
X111909535Y-91731711D01*
X111928165Y-91495000D01*
X115401835Y-91495000D01*
X115420465Y-91731711D01*
X115421619Y-91736518D01*
X115421620Y-91736524D01*
X115434066Y-91788365D01*
X115475895Y-91962594D01*
X115477788Y-91967165D01*
X115477789Y-91967167D01*
X115510040Y-92045027D01*
X115566760Y-92181963D01*
X115569346Y-92186183D01*
X115688241Y-92380202D01*
X115688245Y-92380208D01*
X115690824Y-92384416D01*
X115774543Y-92482438D01*
X115841452Y-92560778D01*
X115845031Y-92564969D01*
X116025584Y-92719176D01*
X116029792Y-92721755D01*
X116029798Y-92721759D01*
X116223817Y-92840654D01*
X116228037Y-92843240D01*
X116232607Y-92845133D01*
X116232611Y-92845135D01*
X116395495Y-92912603D01*
X116447406Y-92934105D01*
X116527609Y-92953360D01*
X116673476Y-92988380D01*
X116673482Y-92988381D01*
X116678289Y-92989535D01*
X116915000Y-93008165D01*
X117151711Y-92989535D01*
X117156518Y-92988381D01*
X117156524Y-92988380D01*
X117302391Y-92953360D01*
X117382594Y-92934105D01*
X117434505Y-92912603D01*
X117597389Y-92845135D01*
X117597393Y-92845133D01*
X117601963Y-92843240D01*
X117606183Y-92840654D01*
X117800202Y-92721759D01*
X117800208Y-92721755D01*
X117804416Y-92719176D01*
X117977947Y-92570966D01*
X123763257Y-92570966D01*
X123793565Y-92705446D01*
X123796645Y-92715275D01*
X123876770Y-92912603D01*
X123881413Y-92921794D01*
X123992694Y-93103388D01*
X123998777Y-93111699D01*
X124138213Y-93272667D01*
X124145580Y-93279883D01*
X124309434Y-93415916D01*
X124317881Y-93421831D01*
X124501756Y-93529279D01*
X124511042Y-93533729D01*
X124710001Y-93609703D01*
X124719899Y-93612579D01*
X124823250Y-93633606D01*
X124837299Y-93632410D01*
X124841000Y-93622065D01*
X124841000Y-93621517D01*
X125349000Y-93621517D01*
X125353064Y-93635359D01*
X125366478Y-93637393D01*
X125373184Y-93636534D01*
X125383262Y-93634392D01*
X125587255Y-93573191D01*
X125596842Y-93569433D01*
X125788095Y-93475739D01*
X125796945Y-93470464D01*
X125970328Y-93346792D01*
X125978200Y-93340139D01*
X126129052Y-93189812D01*
X126135730Y-93181965D01*
X126260003Y-93009020D01*
X126265313Y-93000183D01*
X126359670Y-92809267D01*
X126363469Y-92799672D01*
X126425377Y-92595910D01*
X126427555Y-92585837D01*
X126428986Y-92574962D01*
X126426775Y-92560778D01*
X126413617Y-92557000D01*
X125367115Y-92557000D01*
X125351876Y-92561475D01*
X125350671Y-92562865D01*
X125349000Y-92570548D01*
X125349000Y-93621517D01*
X124841000Y-93621517D01*
X124841000Y-92575115D01*
X124836525Y-92559876D01*
X124835135Y-92558671D01*
X124827452Y-92557000D01*
X123778225Y-92557000D01*
X123764694Y-92560973D01*
X123763257Y-92570966D01*
X117977947Y-92570966D01*
X117984969Y-92564969D01*
X117988549Y-92560778D01*
X118055457Y-92482438D01*
X118139176Y-92384416D01*
X118141755Y-92380208D01*
X118141759Y-92380202D01*
X118260654Y-92186183D01*
X118263240Y-92181963D01*
X118319961Y-92045027D01*
X118352211Y-91967167D01*
X118352212Y-91967165D01*
X118354105Y-91962594D01*
X118379078Y-91858575D01*
X118414430Y-91797006D01*
X118477457Y-91764323D01*
X118501597Y-91761989D01*
X123670009Y-91761989D01*
X123738130Y-91781991D01*
X123784623Y-91835647D01*
X123794727Y-91905921D01*
X123791426Y-91921661D01*
X123759389Y-92037183D01*
X123760912Y-92045607D01*
X123773292Y-92049000D01*
X126413344Y-92049000D01*
X126426875Y-92045027D01*
X126428180Y-92035947D01*
X126398726Y-91918685D01*
X126401530Y-91847743D01*
X126442243Y-91789580D01*
X126507938Y-91762661D01*
X126520930Y-91761989D01*
X137168895Y-91761989D01*
X137237016Y-91781991D01*
X137257990Y-91798894D01*
X140657878Y-95198783D01*
X140691904Y-95261095D01*
X140694093Y-95274706D01*
X140711458Y-95439928D01*
X140770473Y-95621556D01*
X140865960Y-95786944D01*
X140870378Y-95791851D01*
X140870379Y-95791852D01*
X140989325Y-95923955D01*
X140993747Y-95928866D01*
X141148248Y-96041118D01*
X141154276Y-96043802D01*
X141154278Y-96043803D01*
X141316681Y-96116109D01*
X141322712Y-96118794D01*
X141416112Y-96138647D01*
X141503056Y-96157128D01*
X141503061Y-96157128D01*
X141509513Y-96158500D01*
X141700487Y-96158500D01*
X141706939Y-96157128D01*
X141706944Y-96157128D01*
X141793887Y-96138647D01*
X141887288Y-96118794D01*
X141893319Y-96116109D01*
X142055722Y-96043803D01*
X142055724Y-96043802D01*
X142061752Y-96041118D01*
X142216253Y-95928866D01*
X142220675Y-95923955D01*
X142339621Y-95791852D01*
X142339622Y-95791851D01*
X142344040Y-95786944D01*
X142439527Y-95621556D01*
X142498542Y-95439928D01*
X142513361Y-95298938D01*
X142517814Y-95256565D01*
X142518504Y-95250000D01*
X142516830Y-95234075D01*
X142499232Y-95066635D01*
X142499232Y-95066633D01*
X142498542Y-95060072D01*
X142439527Y-94878444D01*
X142344040Y-94713056D01*
X142254012Y-94613069D01*
X142220675Y-94576045D01*
X142220674Y-94576044D01*
X142216253Y-94571134D01*
X142061752Y-94458882D01*
X142055724Y-94456198D01*
X142055722Y-94456197D01*
X141893319Y-94383891D01*
X141893318Y-94383891D01*
X141887288Y-94381206D01*
X141793888Y-94361353D01*
X141706944Y-94342872D01*
X141706939Y-94342872D01*
X141700487Y-94341500D01*
X141644594Y-94341500D01*
X141576473Y-94321498D01*
X141555499Y-94304595D01*
X137987141Y-90736236D01*
X137979601Y-90727950D01*
X137975489Y-90721471D01*
X137925837Y-90674845D01*
X137922996Y-90672091D01*
X137903259Y-90652354D01*
X137900062Y-90649874D01*
X137891040Y-90642169D01*
X137858810Y-90611903D01*
X137851864Y-90608084D01*
X137851861Y-90608082D01*
X137841055Y-90602141D01*
X137824536Y-90591290D01*
X137822273Y-90589535D01*
X137808530Y-90578875D01*
X137801261Y-90575730D01*
X137801257Y-90575727D01*
X137767952Y-90561315D01*
X137757302Y-90556098D01*
X137718549Y-90534794D01*
X137698926Y-90529756D01*
X137680223Y-90523352D01*
X137668909Y-90518456D01*
X137668908Y-90518456D01*
X137661634Y-90515308D01*
X137653811Y-90514069D01*
X137653801Y-90514066D01*
X137617965Y-90508390D01*
X137606345Y-90505984D01*
X137571200Y-90496961D01*
X137571199Y-90496961D01*
X137563519Y-90494989D01*
X137543265Y-90494989D01*
X137523554Y-90493438D01*
X137511375Y-90491509D01*
X137503546Y-90490269D01*
X137495654Y-90491015D01*
X137459528Y-90494430D01*
X137447670Y-90494989D01*
X126451491Y-90494989D01*
X126383370Y-90474987D01*
X126336877Y-90421331D01*
X126326773Y-90351057D01*
X126338533Y-90313163D01*
X126360138Y-90269448D01*
X126362430Y-90264811D01*
X126427370Y-90051069D01*
X126456529Y-89829590D01*
X126456611Y-89826240D01*
X126458074Y-89766365D01*
X126458074Y-89766361D01*
X126458156Y-89763000D01*
X126439852Y-89540361D01*
X126385431Y-89323702D01*
X126296354Y-89118840D01*
X126175014Y-88931277D01*
X126024670Y-88766051D01*
X126020619Y-88762852D01*
X126020615Y-88762848D01*
X125853414Y-88630800D01*
X125853410Y-88630798D01*
X125849359Y-88627598D01*
X125808053Y-88604796D01*
X125758084Y-88554364D01*
X125743312Y-88484921D01*
X125768428Y-88418516D01*
X125795780Y-88391909D01*
X125839603Y-88360650D01*
X125974860Y-88264173D01*
X126017423Y-88221759D01*
X126129435Y-88110137D01*
X126133096Y-88106489D01*
X126192594Y-88023689D01*
X126260435Y-87929277D01*
X126263453Y-87925077D01*
X126277810Y-87896029D01*
X126360136Y-87729453D01*
X126360137Y-87729451D01*
X126362430Y-87724811D01*
X126427370Y-87511069D01*
X126456529Y-87289590D01*
X126458156Y-87223000D01*
X126439852Y-87000361D01*
X126385431Y-86783702D01*
X126296354Y-86578840D01*
X126175014Y-86391277D01*
X126171532Y-86387450D01*
X126027798Y-86229488D01*
X125996746Y-86165642D01*
X126005141Y-86095143D01*
X126050317Y-86040375D01*
X126076761Y-86026706D01*
X126183297Y-85986767D01*
X126191705Y-85983615D01*
X126308261Y-85896261D01*
X126395615Y-85779705D01*
X126446745Y-85643316D01*
X126453500Y-85581134D01*
X126453500Y-83784866D01*
X126446745Y-83722684D01*
X126395615Y-83586295D01*
X126308261Y-83469739D01*
X126191705Y-83382385D01*
X126055316Y-83331255D01*
X125993134Y-83324500D01*
X124196866Y-83324500D01*
X124134684Y-83331255D01*
X123998295Y-83382385D01*
X123881739Y-83469739D01*
X123794385Y-83586295D01*
X123743255Y-83722684D01*
X123736500Y-83784866D01*
X123736500Y-85581134D01*
X123743255Y-85643316D01*
X123794385Y-85779705D01*
X123881739Y-85896261D01*
X123998295Y-85983615D01*
X124006704Y-85986767D01*
X124006705Y-85986768D01*
X124115451Y-86027535D01*
X124172216Y-86070176D01*
X124196916Y-86136738D01*
X124181709Y-86206087D01*
X124162316Y-86232568D01*
X124035629Y-86365138D01*
X123909743Y-86549680D01*
X123815688Y-86752305D01*
X123755989Y-86967570D01*
X123732251Y-87189695D01*
X123732548Y-87194848D01*
X123732548Y-87194851D01*
X123738011Y-87289590D01*
X123745110Y-87412715D01*
X123746247Y-87417761D01*
X123746248Y-87417767D01*
X123755266Y-87457782D01*
X123794222Y-87630639D01*
X123878266Y-87837616D01*
X123994987Y-88028088D01*
X124141250Y-88196938D01*
X124313126Y-88339632D01*
X124325506Y-88346866D01*
X124386445Y-88382476D01*
X124435169Y-88434114D01*
X124448240Y-88503897D01*
X124421509Y-88569669D01*
X124381055Y-88603027D01*
X124368607Y-88609507D01*
X124364474Y-88612610D01*
X124364471Y-88612612D01*
X124340247Y-88630800D01*
X124189965Y-88743635D01*
X124035629Y-88905138D01*
X123909743Y-89089680D01*
X123815688Y-89292305D01*
X123755989Y-89507570D01*
X123732251Y-89729695D01*
X123732548Y-89734848D01*
X123732548Y-89734851D01*
X123738011Y-89829590D01*
X123745110Y-89952715D01*
X123746247Y-89957761D01*
X123746248Y-89957767D01*
X123755871Y-90000465D01*
X123794222Y-90170639D01*
X123830449Y-90259857D01*
X123855514Y-90321585D01*
X123862610Y-90392226D01*
X123830388Y-90455490D01*
X123769078Y-90491290D01*
X123738771Y-90494989D01*
X118102806Y-90494989D01*
X118034685Y-90474987D01*
X118006995Y-90450820D01*
X117988177Y-90428787D01*
X117984969Y-90425031D01*
X117804416Y-90270824D01*
X117800208Y-90268245D01*
X117800202Y-90268241D01*
X117606183Y-90149346D01*
X117601963Y-90146760D01*
X117597393Y-90144867D01*
X117597389Y-90144865D01*
X117387167Y-90057789D01*
X117387165Y-90057788D01*
X117382594Y-90055895D01*
X117302391Y-90036640D01*
X117156524Y-90001620D01*
X117156518Y-90001619D01*
X117151711Y-90000465D01*
X116915000Y-89981835D01*
X116678289Y-90000465D01*
X116673482Y-90001619D01*
X116673476Y-90001620D01*
X116527609Y-90036640D01*
X116447406Y-90055895D01*
X116442835Y-90057788D01*
X116442833Y-90057789D01*
X116232611Y-90144865D01*
X116232607Y-90144867D01*
X116228037Y-90146760D01*
X116223817Y-90149346D01*
X116029798Y-90268241D01*
X116029792Y-90268245D01*
X116025584Y-90270824D01*
X115845031Y-90425031D01*
X115690824Y-90605584D01*
X115688245Y-90609792D01*
X115688241Y-90609798D01*
X115579007Y-90788051D01*
X115566760Y-90808037D01*
X115564867Y-90812607D01*
X115564865Y-90812611D01*
X115518975Y-90923401D01*
X115475895Y-91027406D01*
X115456690Y-91107401D01*
X115447522Y-91145590D01*
X115420465Y-91258289D01*
X115401835Y-91495000D01*
X111928165Y-91495000D01*
X111909535Y-91258289D01*
X111882479Y-91145590D01*
X111873310Y-91107401D01*
X111854105Y-91027406D01*
X111811025Y-90923401D01*
X111765135Y-90812611D01*
X111765133Y-90812607D01*
X111763240Y-90808037D01*
X111750993Y-90788051D01*
X111641759Y-90609798D01*
X111641755Y-90609792D01*
X111639176Y-90605584D01*
X111484969Y-90425031D01*
X111304416Y-90270824D01*
X111300208Y-90268245D01*
X111300202Y-90268241D01*
X111106183Y-90149346D01*
X111101963Y-90146760D01*
X111097393Y-90144867D01*
X111097389Y-90144865D01*
X110887167Y-90057789D01*
X110887165Y-90057788D01*
X110882594Y-90055895D01*
X110802391Y-90036640D01*
X110656524Y-90001620D01*
X110656518Y-90001619D01*
X110651711Y-90000465D01*
X110415000Y-89981835D01*
X110178289Y-90000465D01*
X110173482Y-90001619D01*
X110173476Y-90001620D01*
X110027609Y-90036640D01*
X109947406Y-90055895D01*
X109942835Y-90057788D01*
X109942833Y-90057789D01*
X109732611Y-90144865D01*
X109732607Y-90144867D01*
X109728037Y-90146760D01*
X109723817Y-90149346D01*
X109529798Y-90268241D01*
X109529792Y-90268245D01*
X109525584Y-90270824D01*
X109345031Y-90425031D01*
X109190824Y-90605584D01*
X109188245Y-90609792D01*
X109188241Y-90609798D01*
X109079007Y-90788051D01*
X109066760Y-90808037D01*
X109064867Y-90812607D01*
X109064865Y-90812611D01*
X109018975Y-90923401D01*
X108975895Y-91027406D01*
X108956690Y-91107401D01*
X108947522Y-91145590D01*
X108920465Y-91258289D01*
X108901835Y-91495000D01*
X102743500Y-91495000D01*
X102743500Y-86995000D01*
X108901835Y-86995000D01*
X108920465Y-87231711D01*
X108975895Y-87462594D01*
X109066760Y-87681963D01*
X109069346Y-87686183D01*
X109188241Y-87880202D01*
X109188245Y-87880208D01*
X109190824Y-87884416D01*
X109345031Y-88064969D01*
X109525584Y-88219176D01*
X109529792Y-88221755D01*
X109529798Y-88221759D01*
X109716756Y-88336327D01*
X109728037Y-88343240D01*
X109732607Y-88345133D01*
X109732611Y-88345135D01*
X109942833Y-88432211D01*
X109947406Y-88434105D01*
X110023352Y-88452338D01*
X110173476Y-88488380D01*
X110173482Y-88488381D01*
X110178289Y-88489535D01*
X110415000Y-88508165D01*
X110651711Y-88489535D01*
X110656518Y-88488381D01*
X110656524Y-88488380D01*
X110806648Y-88452338D01*
X110882594Y-88434105D01*
X110887167Y-88432211D01*
X111097389Y-88345135D01*
X111097393Y-88345133D01*
X111101963Y-88343240D01*
X111113244Y-88336327D01*
X111300202Y-88221759D01*
X111300208Y-88221755D01*
X111304416Y-88219176D01*
X111484969Y-88064969D01*
X111639176Y-87884416D01*
X111641755Y-87880208D01*
X111641759Y-87880202D01*
X111760654Y-87686183D01*
X111763240Y-87681963D01*
X111854105Y-87462594D01*
X111909535Y-87231711D01*
X111928165Y-86995000D01*
X115401835Y-86995000D01*
X115420465Y-87231711D01*
X115475895Y-87462594D01*
X115566760Y-87681963D01*
X115569346Y-87686183D01*
X115688241Y-87880202D01*
X115688245Y-87880208D01*
X115690824Y-87884416D01*
X115845031Y-88064969D01*
X116025584Y-88219176D01*
X116029792Y-88221755D01*
X116029798Y-88221759D01*
X116216756Y-88336327D01*
X116228037Y-88343240D01*
X116232607Y-88345133D01*
X116232611Y-88345135D01*
X116442833Y-88432211D01*
X116447406Y-88434105D01*
X116523352Y-88452338D01*
X116673476Y-88488380D01*
X116673482Y-88488381D01*
X116678289Y-88489535D01*
X116915000Y-88508165D01*
X117151711Y-88489535D01*
X117156518Y-88488381D01*
X117156524Y-88488380D01*
X117306648Y-88452338D01*
X117382594Y-88434105D01*
X117387167Y-88432211D01*
X117597389Y-88345135D01*
X117597393Y-88345133D01*
X117601963Y-88343240D01*
X117613244Y-88336327D01*
X117800202Y-88221759D01*
X117800208Y-88221755D01*
X117804416Y-88219176D01*
X117984969Y-88064969D01*
X118139176Y-87884416D01*
X118141755Y-87880208D01*
X118141759Y-87880202D01*
X118260654Y-87686183D01*
X118263240Y-87681963D01*
X118354105Y-87462594D01*
X118409535Y-87231711D01*
X118428165Y-86995000D01*
X118409535Y-86758289D01*
X118408099Y-86752305D01*
X118373360Y-86607609D01*
X118354105Y-86527406D01*
X118263240Y-86308037D01*
X118260654Y-86303817D01*
X118141759Y-86109798D01*
X118141755Y-86109792D01*
X118139176Y-86105584D01*
X117984969Y-85925031D01*
X117804416Y-85770824D01*
X117800208Y-85768245D01*
X117800202Y-85768241D01*
X117606183Y-85649346D01*
X117601963Y-85646760D01*
X117597393Y-85644867D01*
X117597389Y-85644865D01*
X117387167Y-85557789D01*
X117387165Y-85557788D01*
X117382594Y-85555895D01*
X117302391Y-85536640D01*
X117156524Y-85501620D01*
X117156518Y-85501619D01*
X117151711Y-85500465D01*
X116915000Y-85481835D01*
X116678289Y-85500465D01*
X116673482Y-85501619D01*
X116673476Y-85501620D01*
X116527609Y-85536640D01*
X116447406Y-85555895D01*
X116442835Y-85557788D01*
X116442833Y-85557789D01*
X116232611Y-85644865D01*
X116232607Y-85644867D01*
X116228037Y-85646760D01*
X116223817Y-85649346D01*
X116029798Y-85768241D01*
X116029792Y-85768245D01*
X116025584Y-85770824D01*
X115845031Y-85925031D01*
X115690824Y-86105584D01*
X115688245Y-86109792D01*
X115688241Y-86109798D01*
X115569346Y-86303817D01*
X115566760Y-86308037D01*
X115475895Y-86527406D01*
X115456640Y-86607609D01*
X115421902Y-86752305D01*
X115420465Y-86758289D01*
X115401835Y-86995000D01*
X111928165Y-86995000D01*
X111909535Y-86758289D01*
X111908099Y-86752305D01*
X111873360Y-86607609D01*
X111854105Y-86527406D01*
X111763240Y-86308037D01*
X111760654Y-86303817D01*
X111641759Y-86109798D01*
X111641755Y-86109792D01*
X111639176Y-86105584D01*
X111484969Y-85925031D01*
X111304416Y-85770824D01*
X111300208Y-85768245D01*
X111300202Y-85768241D01*
X111106183Y-85649346D01*
X111101963Y-85646760D01*
X111097393Y-85644867D01*
X111097389Y-85644865D01*
X110887167Y-85557789D01*
X110887165Y-85557788D01*
X110882594Y-85555895D01*
X110802391Y-85536640D01*
X110656524Y-85501620D01*
X110656518Y-85501619D01*
X110651711Y-85500465D01*
X110415000Y-85481835D01*
X110178289Y-85500465D01*
X110173482Y-85501619D01*
X110173476Y-85501620D01*
X110027609Y-85536640D01*
X109947406Y-85555895D01*
X109942835Y-85557788D01*
X109942833Y-85557789D01*
X109732611Y-85644865D01*
X109732607Y-85644867D01*
X109728037Y-85646760D01*
X109723817Y-85649346D01*
X109529798Y-85768241D01*
X109529792Y-85768245D01*
X109525584Y-85770824D01*
X109345031Y-85925031D01*
X109190824Y-86105584D01*
X109188245Y-86109792D01*
X109188241Y-86109798D01*
X109069346Y-86303817D01*
X109066760Y-86308037D01*
X108975895Y-86527406D01*
X108956640Y-86607609D01*
X108921902Y-86752305D01*
X108920465Y-86758289D01*
X108901835Y-86995000D01*
X102743500Y-86995000D01*
X102743500Y-78795000D01*
X108976835Y-78795000D01*
X108995465Y-79031711D01*
X108996619Y-79036518D01*
X108996620Y-79036524D01*
X109027098Y-79163472D01*
X109050895Y-79262594D01*
X109052788Y-79267165D01*
X109052789Y-79267167D01*
X109105312Y-79393968D01*
X109141760Y-79481963D01*
X109144346Y-79486183D01*
X109263241Y-79680202D01*
X109263245Y-79680208D01*
X109265824Y-79684416D01*
X109420031Y-79864969D01*
X109600584Y-80019176D01*
X109604792Y-80021755D01*
X109604798Y-80021759D01*
X109798817Y-80140654D01*
X109803037Y-80143240D01*
X109807607Y-80145133D01*
X109807611Y-80145135D01*
X110017833Y-80232211D01*
X110022406Y-80234105D01*
X110102609Y-80253360D01*
X110248476Y-80288380D01*
X110248482Y-80288381D01*
X110253289Y-80289535D01*
X110490000Y-80308165D01*
X110726711Y-80289535D01*
X110731518Y-80288381D01*
X110731524Y-80288380D01*
X110877391Y-80253360D01*
X110957594Y-80234105D01*
X110962167Y-80232211D01*
X111172389Y-80145135D01*
X111172393Y-80145133D01*
X111176963Y-80143240D01*
X111181183Y-80140654D01*
X111375202Y-80021759D01*
X111375208Y-80021755D01*
X111379416Y-80019176D01*
X111559969Y-79864969D01*
X111714176Y-79684416D01*
X111716755Y-79680208D01*
X111716759Y-79680202D01*
X111835654Y-79486183D01*
X111838240Y-79481963D01*
X111874689Y-79393968D01*
X111927211Y-79267167D01*
X111927212Y-79267165D01*
X111929105Y-79262594D01*
X111952902Y-79163472D01*
X111983380Y-79036524D01*
X111983381Y-79036518D01*
X111984535Y-79031711D01*
X112003165Y-78795000D01*
X115476835Y-78795000D01*
X115495465Y-79031711D01*
X115496619Y-79036518D01*
X115496620Y-79036524D01*
X115527098Y-79163472D01*
X115550895Y-79262594D01*
X115552788Y-79267165D01*
X115552789Y-79267167D01*
X115605312Y-79393968D01*
X115641760Y-79481963D01*
X115644346Y-79486183D01*
X115763241Y-79680202D01*
X115763245Y-79680208D01*
X115765824Y-79684416D01*
X115920031Y-79864969D01*
X116100584Y-80019176D01*
X116104792Y-80021755D01*
X116104798Y-80021759D01*
X116298817Y-80140654D01*
X116303037Y-80143240D01*
X116307607Y-80145133D01*
X116307611Y-80145135D01*
X116517833Y-80232211D01*
X116522406Y-80234105D01*
X116602609Y-80253360D01*
X116748476Y-80288380D01*
X116748482Y-80288381D01*
X116753289Y-80289535D01*
X116990000Y-80308165D01*
X117226711Y-80289535D01*
X117231518Y-80288381D01*
X117231524Y-80288380D01*
X117449951Y-80235940D01*
X117520859Y-80239487D01*
X117563823Y-80266454D01*
X117564468Y-80265722D01*
X117567429Y-80268333D01*
X117570231Y-80271135D01*
X117573355Y-80273558D01*
X117573359Y-80273562D01*
X117573424Y-80273612D01*
X117582445Y-80281317D01*
X117614679Y-80311586D01*
X117621627Y-80315405D01*
X117621629Y-80315407D01*
X117632432Y-80321346D01*
X117648959Y-80332202D01*
X117658698Y-80339757D01*
X117658700Y-80339758D01*
X117664960Y-80344614D01*
X117705540Y-80362174D01*
X117716188Y-80367391D01*
X117754940Y-80388695D01*
X117762616Y-80390666D01*
X117762619Y-80390667D01*
X117774562Y-80393733D01*
X117793267Y-80400137D01*
X117811855Y-80408181D01*
X117819678Y-80409420D01*
X117819688Y-80409423D01*
X117855524Y-80415099D01*
X117867144Y-80417505D01*
X117902289Y-80426528D01*
X117909970Y-80428500D01*
X117930224Y-80428500D01*
X117949934Y-80430051D01*
X117969943Y-80433220D01*
X117977835Y-80432474D01*
X118013961Y-80429059D01*
X118025819Y-80428500D01*
X131550406Y-80428500D01*
X131618527Y-80448502D01*
X131639501Y-80465405D01*
X141292878Y-90118782D01*
X141326904Y-90181094D01*
X141329092Y-90194703D01*
X141335940Y-90259857D01*
X141345526Y-90351057D01*
X141346458Y-90359928D01*
X141405473Y-90541556D01*
X141500960Y-90706944D01*
X141505378Y-90711851D01*
X141505379Y-90711852D01*
X141556013Y-90768087D01*
X141628747Y-90848866D01*
X141783248Y-90961118D01*
X141789276Y-90963802D01*
X141789278Y-90963803D01*
X141932134Y-91027406D01*
X141957712Y-91038794D01*
X142051113Y-91058647D01*
X142138056Y-91077128D01*
X142138061Y-91077128D01*
X142144513Y-91078500D01*
X142335487Y-91078500D01*
X142341939Y-91077128D01*
X142341944Y-91077128D01*
X142428888Y-91058647D01*
X142522288Y-91038794D01*
X142547866Y-91027406D01*
X142690722Y-90963803D01*
X142690724Y-90963802D01*
X142696752Y-90961118D01*
X142851253Y-90848866D01*
X142923987Y-90768087D01*
X142974621Y-90711852D01*
X142974622Y-90711851D01*
X142979040Y-90706944D01*
X143074527Y-90541556D01*
X143133542Y-90359928D01*
X143134475Y-90351057D01*
X143152814Y-90176565D01*
X143153504Y-90170000D01*
X143135807Y-90001620D01*
X143134232Y-89986635D01*
X143134232Y-89986633D01*
X143133542Y-89980072D01*
X143074527Y-89798444D01*
X142979040Y-89633056D01*
X142870678Y-89512707D01*
X142855675Y-89496045D01*
X142855674Y-89496044D01*
X142851253Y-89491134D01*
X142696752Y-89378882D01*
X142690724Y-89376198D01*
X142690722Y-89376197D01*
X142528319Y-89303891D01*
X142528318Y-89303891D01*
X142522288Y-89301206D01*
X142428887Y-89281353D01*
X142341944Y-89262872D01*
X142341939Y-89262872D01*
X142335487Y-89261500D01*
X142279594Y-89261500D01*
X142211473Y-89241498D01*
X142190499Y-89224595D01*
X134557600Y-81591695D01*
X162467251Y-81591695D01*
X162467548Y-81596848D01*
X162467548Y-81596851D01*
X162473011Y-81691590D01*
X162480110Y-81814715D01*
X162481247Y-81819761D01*
X162481248Y-81819767D01*
X162501119Y-81907939D01*
X162529222Y-82032639D01*
X162613266Y-82239616D01*
X162729987Y-82430088D01*
X162876250Y-82598938D01*
X162880230Y-82602242D01*
X162884981Y-82606187D01*
X162924616Y-82665090D01*
X162926113Y-82736071D01*
X162888997Y-82796593D01*
X162848724Y-82821112D01*
X162733295Y-82864385D01*
X162616739Y-82951739D01*
X162529385Y-83068295D01*
X162478255Y-83204684D01*
X162471500Y-83266866D01*
X162471500Y-85063134D01*
X162478255Y-85125316D01*
X162529385Y-85261705D01*
X162616739Y-85378261D01*
X162733295Y-85465615D01*
X162869684Y-85516745D01*
X162931866Y-85523500D01*
X164728134Y-85523500D01*
X164790316Y-85516745D01*
X164926705Y-85465615D01*
X165043261Y-85378261D01*
X165130615Y-85261705D01*
X165181745Y-85125316D01*
X165188500Y-85063134D01*
X165188500Y-83266866D01*
X165181745Y-83204684D01*
X165130615Y-83068295D01*
X165043261Y-82951739D01*
X164926705Y-82864385D01*
X164914132Y-82859672D01*
X164808203Y-82819960D01*
X164751439Y-82777318D01*
X164726739Y-82710756D01*
X164741947Y-82641408D01*
X164763493Y-82612727D01*
X164864435Y-82512137D01*
X164868096Y-82508489D01*
X164927594Y-82425689D01*
X164995435Y-82331277D01*
X164998453Y-82327077D01*
X165097430Y-82126811D01*
X165162370Y-81913069D01*
X165191529Y-81691590D01*
X165193156Y-81625000D01*
X165174852Y-81402361D01*
X165120431Y-81185702D01*
X165031354Y-80980840D01*
X164910014Y-80793277D01*
X164759670Y-80628051D01*
X164755619Y-80624852D01*
X164755615Y-80624848D01*
X164588414Y-80492800D01*
X164588410Y-80492798D01*
X164584359Y-80489598D01*
X164543053Y-80466796D01*
X164493084Y-80416364D01*
X164478312Y-80346921D01*
X164503428Y-80280516D01*
X164530780Y-80253909D01*
X164588595Y-80212670D01*
X164709860Y-80126173D01*
X164868096Y-79968489D01*
X164927594Y-79885689D01*
X164995435Y-79791277D01*
X164998453Y-79787077D01*
X165097430Y-79586811D01*
X165153353Y-79402747D01*
X165160865Y-79378023D01*
X165160865Y-79378021D01*
X165162370Y-79373069D01*
X165191529Y-79151590D01*
X165193156Y-79085000D01*
X165174852Y-78862361D01*
X165120431Y-78645702D01*
X165031354Y-78440840D01*
X164910014Y-78253277D01*
X164759670Y-78088051D01*
X164755619Y-78084852D01*
X164755615Y-78084848D01*
X164588414Y-77952800D01*
X164588410Y-77952798D01*
X164584359Y-77949598D01*
X164388789Y-77841638D01*
X164383920Y-77839914D01*
X164383916Y-77839912D01*
X164183087Y-77768795D01*
X164183083Y-77768794D01*
X164178212Y-77767069D01*
X164173119Y-77766162D01*
X164173116Y-77766161D01*
X163963373Y-77728800D01*
X163963367Y-77728799D01*
X163958284Y-77727894D01*
X163884452Y-77726992D01*
X163740081Y-77725228D01*
X163740079Y-77725228D01*
X163734911Y-77725165D01*
X163514091Y-77758955D01*
X163301756Y-77828357D01*
X163271443Y-77844137D01*
X163145310Y-77909798D01*
X163103607Y-77931507D01*
X163099474Y-77934610D01*
X163099471Y-77934612D01*
X163075247Y-77952800D01*
X162924965Y-78065635D01*
X162770629Y-78227138D01*
X162644743Y-78411680D01*
X162629747Y-78443987D01*
X162558230Y-78598058D01*
X162550688Y-78614305D01*
X162490989Y-78829570D01*
X162467251Y-79051695D01*
X162467548Y-79056848D01*
X162467548Y-79056851D01*
X162475445Y-79193801D01*
X162480110Y-79274715D01*
X162481247Y-79279761D01*
X162481248Y-79279767D01*
X162501119Y-79367939D01*
X162529222Y-79492639D01*
X162613266Y-79699616D01*
X162729987Y-79890088D01*
X162876250Y-80058938D01*
X163048126Y-80201632D01*
X163100456Y-80232211D01*
X163121445Y-80244476D01*
X163170169Y-80296114D01*
X163183240Y-80365897D01*
X163156509Y-80431669D01*
X163116055Y-80465027D01*
X163103607Y-80471507D01*
X163099474Y-80474610D01*
X163099471Y-80474612D01*
X163075247Y-80492800D01*
X162924965Y-80605635D01*
X162770629Y-80767138D01*
X162644743Y-80951680D01*
X162550688Y-81154305D01*
X162490989Y-81369570D01*
X162467251Y-81591695D01*
X134557600Y-81591695D01*
X132368652Y-79402747D01*
X132361112Y-79394461D01*
X132357000Y-79387982D01*
X132307348Y-79341356D01*
X132304507Y-79338602D01*
X132284770Y-79318865D01*
X132281573Y-79316385D01*
X132272551Y-79308680D01*
X132246100Y-79283841D01*
X132240321Y-79278414D01*
X132233375Y-79274595D01*
X132233372Y-79274593D01*
X132222566Y-79268652D01*
X132206047Y-79257801D01*
X132205583Y-79257441D01*
X132190041Y-79245386D01*
X132182772Y-79242241D01*
X132182768Y-79242238D01*
X132149463Y-79227826D01*
X132138813Y-79222609D01*
X132100060Y-79201305D01*
X132080437Y-79196267D01*
X132061734Y-79189863D01*
X132050420Y-79184967D01*
X132050419Y-79184967D01*
X132043145Y-79181819D01*
X132035322Y-79180580D01*
X132035312Y-79180577D01*
X131999476Y-79174901D01*
X131987856Y-79172495D01*
X131952711Y-79163472D01*
X131952710Y-79163472D01*
X131945030Y-79161500D01*
X131924776Y-79161500D01*
X131905065Y-79159949D01*
X131892886Y-79158020D01*
X131885057Y-79156780D01*
X131877165Y-79157526D01*
X131841039Y-79160941D01*
X131829181Y-79161500D01*
X123856691Y-79161500D01*
X123788570Y-79141498D01*
X123742077Y-79087842D01*
X123731973Y-79017568D01*
X123761467Y-78952988D01*
X123772626Y-78941643D01*
X123925729Y-78804512D01*
X123929045Y-78801542D01*
X124102953Y-78594654D01*
X124195918Y-78445590D01*
X124243614Y-78369111D01*
X124243615Y-78369109D01*
X124245975Y-78365325D01*
X124355258Y-78118133D01*
X124428620Y-77858008D01*
X124432603Y-77828357D01*
X124464172Y-77593324D01*
X124464173Y-77593316D01*
X124464599Y-77590142D01*
X124468375Y-77470000D01*
X124449287Y-77200403D01*
X124392402Y-76936185D01*
X124372801Y-76883053D01*
X124300397Y-76686796D01*
X124298856Y-76682619D01*
X124269510Y-76628231D01*
X124172629Y-76448678D01*
X124172629Y-76448677D01*
X124170516Y-76444762D01*
X124009942Y-76227362D01*
X123983195Y-76200191D01*
X123882490Y-76097892D01*
X123820338Y-76034756D01*
X123737024Y-75971173D01*
X123609028Y-75873489D01*
X123609024Y-75873487D01*
X123605487Y-75870787D01*
X123369675Y-75738727D01*
X123117609Y-75641210D01*
X123113284Y-75640207D01*
X123113279Y-75640206D01*
X122999950Y-75613938D01*
X122854318Y-75580182D01*
X122585054Y-75556861D01*
X122580619Y-75557105D01*
X122580615Y-75557105D01*
X122319634Y-75571468D01*
X122319627Y-75571469D01*
X122315191Y-75571713D01*
X122210888Y-75592460D01*
X122054484Y-75623570D01*
X122054479Y-75623571D01*
X122050112Y-75624440D01*
X122045909Y-75625916D01*
X121799315Y-75712513D01*
X121799312Y-75712514D01*
X121795107Y-75713991D01*
X121791154Y-75716044D01*
X121791148Y-75716047D01*
X121707995Y-75759242D01*
X121555264Y-75838580D01*
X121551649Y-75841163D01*
X121551643Y-75841167D01*
X121338990Y-75993131D01*
X121338986Y-75993134D01*
X121335369Y-75995719D01*
X121139808Y-76182275D01*
X120972485Y-76394524D01*
X120970253Y-76398366D01*
X120970250Y-76398371D01*
X120838974Y-76624377D01*
X120838971Y-76624384D01*
X120836736Y-76628231D01*
X120735272Y-76878735D01*
X120734201Y-76883048D01*
X120734199Y-76883053D01*
X120721001Y-76936185D01*
X120670116Y-77141035D01*
X120669662Y-77145463D01*
X120669662Y-77145465D01*
X120655690Y-77281835D01*
X120642569Y-77409899D01*
X120653180Y-77679963D01*
X120669088Y-77767069D01*
X120694386Y-77905584D01*
X120701737Y-77945837D01*
X120787272Y-78202217D01*
X120908078Y-78443987D01*
X120910607Y-78447646D01*
X121025792Y-78614305D01*
X121061744Y-78666324D01*
X121245205Y-78864790D01*
X121248656Y-78867599D01*
X121248666Y-78867609D01*
X121334868Y-78937788D01*
X121375067Y-78996307D01*
X121377247Y-79067270D01*
X121340715Y-79128147D01*
X121277070Y-79159608D01*
X121255318Y-79161500D01*
X118610627Y-79161500D01*
X118542506Y-79141498D01*
X118496013Y-79087842D01*
X118485015Y-79025614D01*
X118502777Y-78799930D01*
X118503165Y-78795000D01*
X118484535Y-78558289D01*
X118457479Y-78445590D01*
X118439117Y-78369111D01*
X118429105Y-78327406D01*
X118386025Y-78223401D01*
X118340135Y-78112611D01*
X118340133Y-78112607D01*
X118338240Y-78108037D01*
X118310353Y-78062530D01*
X118216759Y-77909798D01*
X118216755Y-77909792D01*
X118214176Y-77905584D01*
X118059969Y-77725031D01*
X117879416Y-77570824D01*
X117875208Y-77568245D01*
X117875202Y-77568241D01*
X117681183Y-77449346D01*
X117676963Y-77446760D01*
X117672393Y-77444867D01*
X117672389Y-77444865D01*
X117462167Y-77357789D01*
X117462165Y-77357788D01*
X117457594Y-77355895D01*
X117377391Y-77336640D01*
X117231524Y-77301620D01*
X117231518Y-77301619D01*
X117226711Y-77300465D01*
X116990000Y-77281835D01*
X116753289Y-77300465D01*
X116748482Y-77301619D01*
X116748476Y-77301620D01*
X116602609Y-77336640D01*
X116522406Y-77355895D01*
X116517835Y-77357788D01*
X116517833Y-77357789D01*
X116307611Y-77444865D01*
X116307607Y-77444867D01*
X116303037Y-77446760D01*
X116298817Y-77449346D01*
X116104798Y-77568241D01*
X116104792Y-77568245D01*
X116100584Y-77570824D01*
X115920031Y-77725031D01*
X115765824Y-77905584D01*
X115763245Y-77909792D01*
X115763241Y-77909798D01*
X115669647Y-78062530D01*
X115641760Y-78108037D01*
X115639867Y-78112607D01*
X115639865Y-78112611D01*
X115593975Y-78223401D01*
X115550895Y-78327406D01*
X115540883Y-78369111D01*
X115522522Y-78445590D01*
X115495465Y-78558289D01*
X115476835Y-78795000D01*
X112003165Y-78795000D01*
X111984535Y-78558289D01*
X111957479Y-78445590D01*
X111939117Y-78369111D01*
X111929105Y-78327406D01*
X111886025Y-78223401D01*
X111840135Y-78112611D01*
X111840133Y-78112607D01*
X111838240Y-78108037D01*
X111810353Y-78062530D01*
X111716759Y-77909798D01*
X111716755Y-77909792D01*
X111714176Y-77905584D01*
X111559969Y-77725031D01*
X111379416Y-77570824D01*
X111375208Y-77568245D01*
X111375202Y-77568241D01*
X111181183Y-77449346D01*
X111176963Y-77446760D01*
X111172393Y-77444867D01*
X111172389Y-77444865D01*
X110962167Y-77357789D01*
X110962165Y-77357788D01*
X110957594Y-77355895D01*
X110877391Y-77336640D01*
X110731524Y-77301620D01*
X110731518Y-77301619D01*
X110726711Y-77300465D01*
X110490000Y-77281835D01*
X110253289Y-77300465D01*
X110248482Y-77301619D01*
X110248476Y-77301620D01*
X110102609Y-77336640D01*
X110022406Y-77355895D01*
X110017835Y-77357788D01*
X110017833Y-77357789D01*
X109807611Y-77444865D01*
X109807607Y-77444867D01*
X109803037Y-77446760D01*
X109798817Y-77449346D01*
X109604798Y-77568241D01*
X109604792Y-77568245D01*
X109600584Y-77570824D01*
X109420031Y-77725031D01*
X109265824Y-77905584D01*
X109263245Y-77909792D01*
X109263241Y-77909798D01*
X109169647Y-78062530D01*
X109141760Y-78108037D01*
X109139867Y-78112607D01*
X109139865Y-78112611D01*
X109093975Y-78223401D01*
X109050895Y-78327406D01*
X109040883Y-78369111D01*
X109022522Y-78445590D01*
X108995465Y-78558289D01*
X108976835Y-78795000D01*
X102743500Y-78795000D01*
X102743500Y-75527670D01*
X109622160Y-75527670D01*
X109627887Y-75535320D01*
X109799042Y-75640205D01*
X109807837Y-75644687D01*
X110017988Y-75731734D01*
X110027373Y-75734783D01*
X110248554Y-75787885D01*
X110258301Y-75789428D01*
X110485070Y-75807275D01*
X110494930Y-75807275D01*
X110721699Y-75789428D01*
X110731446Y-75787885D01*
X110952627Y-75734783D01*
X110962012Y-75731734D01*
X111172163Y-75644687D01*
X111180958Y-75640205D01*
X111348445Y-75537568D01*
X111357400Y-75527670D01*
X116122160Y-75527670D01*
X116127887Y-75535320D01*
X116299042Y-75640205D01*
X116307837Y-75644687D01*
X116517988Y-75731734D01*
X116527373Y-75734783D01*
X116748554Y-75787885D01*
X116758301Y-75789428D01*
X116985070Y-75807275D01*
X116994930Y-75807275D01*
X117221699Y-75789428D01*
X117231446Y-75787885D01*
X117452627Y-75734783D01*
X117462012Y-75731734D01*
X117672163Y-75644687D01*
X117680958Y-75640205D01*
X117847521Y-75538134D01*
X130096500Y-75538134D01*
X130103255Y-75600316D01*
X130154385Y-75736705D01*
X130241739Y-75853261D01*
X130358295Y-75940615D01*
X130494684Y-75991745D01*
X130556866Y-75998500D01*
X132353134Y-75998500D01*
X132415316Y-75991745D01*
X132551705Y-75940615D01*
X132668261Y-75853261D01*
X132755615Y-75736705D01*
X132791791Y-75640206D01*
X132799598Y-75619382D01*
X132842240Y-75562618D01*
X132908802Y-75537918D01*
X132978150Y-75553126D01*
X133012817Y-75581114D01*
X133041250Y-75613938D01*
X133213126Y-75756632D01*
X133406000Y-75869338D01*
X133614692Y-75949030D01*
X133619760Y-75950061D01*
X133619763Y-75950062D01*
X133703700Y-75967139D01*
X133833597Y-75993567D01*
X133838772Y-75993757D01*
X133838774Y-75993757D01*
X134051673Y-76001564D01*
X134051677Y-76001564D01*
X134056837Y-76001753D01*
X134061957Y-76001097D01*
X134061959Y-76001097D01*
X134273288Y-75974025D01*
X134273289Y-75974025D01*
X134278416Y-75973368D01*
X134283366Y-75971883D01*
X134487429Y-75910661D01*
X134487434Y-75910659D01*
X134492384Y-75909174D01*
X134692994Y-75810896D01*
X134874860Y-75681173D01*
X134915971Y-75640206D01*
X134975268Y-75581115D01*
X135033096Y-75523489D01*
X135163453Y-75342077D01*
X135164776Y-75343028D01*
X135211645Y-75299857D01*
X135281580Y-75287625D01*
X135347026Y-75315144D01*
X135374875Y-75346994D01*
X135434987Y-75445088D01*
X135581250Y-75613938D01*
X135753126Y-75756632D01*
X135946000Y-75869338D01*
X136154692Y-75949030D01*
X136159760Y-75950061D01*
X136159763Y-75950062D01*
X136243700Y-75967139D01*
X136373597Y-75993567D01*
X136378772Y-75993757D01*
X136378774Y-75993757D01*
X136591673Y-76001564D01*
X136591677Y-76001564D01*
X136596837Y-76001753D01*
X136601957Y-76001097D01*
X136601959Y-76001097D01*
X136813288Y-75974025D01*
X136813289Y-75974025D01*
X136818416Y-75973368D01*
X136823366Y-75971883D01*
X137027429Y-75910661D01*
X137027434Y-75910659D01*
X137032384Y-75909174D01*
X137232994Y-75810896D01*
X137414860Y-75681173D01*
X137455971Y-75640206D01*
X137515268Y-75581115D01*
X137573096Y-75523489D01*
X137703453Y-75342077D01*
X137704776Y-75343028D01*
X137751645Y-75299857D01*
X137821580Y-75287625D01*
X137887026Y-75315144D01*
X137914875Y-75346994D01*
X137974987Y-75445088D01*
X138121250Y-75613938D01*
X138293126Y-75756632D01*
X138486000Y-75869338D01*
X138694692Y-75949030D01*
X138699760Y-75950061D01*
X138699763Y-75950062D01*
X138783700Y-75967139D01*
X138913597Y-75993567D01*
X138918772Y-75993757D01*
X138918774Y-75993757D01*
X139131673Y-76001564D01*
X139131677Y-76001564D01*
X139136837Y-76001753D01*
X139141957Y-76001097D01*
X139141959Y-76001097D01*
X139353288Y-75974025D01*
X139353289Y-75974025D01*
X139358416Y-75973368D01*
X139363366Y-75971883D01*
X139567429Y-75910661D01*
X139567434Y-75910659D01*
X139572384Y-75909174D01*
X139737807Y-75828134D01*
X142786500Y-75828134D01*
X142793255Y-75890316D01*
X142844385Y-76026705D01*
X142931739Y-76143261D01*
X143048295Y-76230615D01*
X143184684Y-76281745D01*
X143246866Y-76288500D01*
X145043134Y-76288500D01*
X145105316Y-76281745D01*
X145241705Y-76230615D01*
X145358261Y-76143261D01*
X145445615Y-76026705D01*
X145467799Y-75967529D01*
X145489598Y-75909382D01*
X145532240Y-75852618D01*
X145598802Y-75827918D01*
X145668150Y-75843126D01*
X145702817Y-75871114D01*
X145731250Y-75903938D01*
X145903126Y-76046632D01*
X146096000Y-76159338D01*
X146304692Y-76239030D01*
X146309760Y-76240061D01*
X146309763Y-76240062D01*
X146404862Y-76259410D01*
X146523597Y-76283567D01*
X146528772Y-76283757D01*
X146528774Y-76283757D01*
X146741673Y-76291564D01*
X146741677Y-76291564D01*
X146746837Y-76291753D01*
X146751957Y-76291097D01*
X146751959Y-76291097D01*
X146963288Y-76264025D01*
X146963289Y-76264025D01*
X146968416Y-76263368D01*
X146973366Y-76261883D01*
X147177429Y-76200661D01*
X147177434Y-76200659D01*
X147182384Y-76199174D01*
X147382994Y-76100896D01*
X147564860Y-75971173D01*
X147723096Y-75813489D01*
X147740386Y-75789428D01*
X147853453Y-75632077D01*
X147854776Y-75633028D01*
X147901645Y-75589857D01*
X147971580Y-75577625D01*
X148037026Y-75605144D01*
X148064875Y-75636994D01*
X148124987Y-75735088D01*
X148271250Y-75903938D01*
X148443126Y-76046632D01*
X148636000Y-76159338D01*
X148844692Y-76239030D01*
X148849760Y-76240061D01*
X148849763Y-76240062D01*
X148944862Y-76259410D01*
X149063597Y-76283567D01*
X149068772Y-76283757D01*
X149068774Y-76283757D01*
X149281673Y-76291564D01*
X149281677Y-76291564D01*
X149286837Y-76291753D01*
X149291957Y-76291097D01*
X149291959Y-76291097D01*
X149503288Y-76264025D01*
X149503289Y-76264025D01*
X149508416Y-76263368D01*
X149513366Y-76261883D01*
X149717429Y-76200661D01*
X149717434Y-76200659D01*
X149722384Y-76199174D01*
X149922994Y-76100896D01*
X150104860Y-75971173D01*
X150263096Y-75813489D01*
X150280386Y-75789428D01*
X150393453Y-75632077D01*
X150394776Y-75633028D01*
X150441645Y-75589857D01*
X150511580Y-75577625D01*
X150577026Y-75605144D01*
X150604875Y-75636994D01*
X150664987Y-75735088D01*
X150811250Y-75903938D01*
X150983126Y-76046632D01*
X151176000Y-76159338D01*
X151384692Y-76239030D01*
X151389760Y-76240061D01*
X151389763Y-76240062D01*
X151484862Y-76259410D01*
X151603597Y-76283567D01*
X151608772Y-76283757D01*
X151608774Y-76283757D01*
X151821673Y-76291564D01*
X151821677Y-76291564D01*
X151826837Y-76291753D01*
X151831957Y-76291097D01*
X151831959Y-76291097D01*
X152043288Y-76264025D01*
X152043289Y-76264025D01*
X152048416Y-76263368D01*
X152053366Y-76261883D01*
X152257429Y-76200661D01*
X152257434Y-76200659D01*
X152262384Y-76199174D01*
X152462994Y-76100896D01*
X152644860Y-75971173D01*
X152803096Y-75813489D01*
X152820386Y-75789428D01*
X152933453Y-75632077D01*
X152934776Y-75633028D01*
X152981645Y-75589857D01*
X153051580Y-75577625D01*
X153117026Y-75605144D01*
X153144875Y-75636994D01*
X153204987Y-75735088D01*
X153351250Y-75903938D01*
X153523126Y-76046632D01*
X153716000Y-76159338D01*
X153924692Y-76239030D01*
X153929760Y-76240061D01*
X153929763Y-76240062D01*
X154024862Y-76259410D01*
X154143597Y-76283567D01*
X154148772Y-76283757D01*
X154148774Y-76283757D01*
X154361673Y-76291564D01*
X154361677Y-76291564D01*
X154366837Y-76291753D01*
X154371957Y-76291097D01*
X154371959Y-76291097D01*
X154583288Y-76264025D01*
X154583289Y-76264025D01*
X154588416Y-76263368D01*
X154593366Y-76261883D01*
X154797429Y-76200661D01*
X154797434Y-76200659D01*
X154802384Y-76199174D01*
X155002994Y-76100896D01*
X155184860Y-75971173D01*
X155343096Y-75813489D01*
X155360386Y-75789428D01*
X155473453Y-75632077D01*
X155474640Y-75632930D01*
X155521960Y-75589362D01*
X155591897Y-75577145D01*
X155657338Y-75604678D01*
X155685166Y-75636511D01*
X155742694Y-75730388D01*
X155748777Y-75738699D01*
X155888213Y-75899667D01*
X155895580Y-75906883D01*
X156059434Y-76042916D01*
X156067881Y-76048831D01*
X156251756Y-76156279D01*
X156261042Y-76160729D01*
X156460001Y-76236703D01*
X156469899Y-76239579D01*
X156573250Y-76260606D01*
X156587299Y-76259410D01*
X156591000Y-76249065D01*
X156591000Y-76248517D01*
X157099000Y-76248517D01*
X157103064Y-76262359D01*
X157116478Y-76264393D01*
X157123184Y-76263534D01*
X157133262Y-76261392D01*
X157337255Y-76200191D01*
X157346842Y-76196433D01*
X157538095Y-76102739D01*
X157546945Y-76097464D01*
X157720328Y-75973792D01*
X157728200Y-75967139D01*
X157879052Y-75816812D01*
X157885730Y-75808965D01*
X158010003Y-75636020D01*
X158015313Y-75627183D01*
X158109670Y-75436267D01*
X158113469Y-75426672D01*
X158175377Y-75222910D01*
X158177555Y-75212837D01*
X158178986Y-75201962D01*
X158176775Y-75187778D01*
X158163617Y-75184000D01*
X157117115Y-75184000D01*
X157101876Y-75188475D01*
X157100671Y-75189865D01*
X157099000Y-75197548D01*
X157099000Y-76248517D01*
X156591000Y-76248517D01*
X156591000Y-74657885D01*
X157099000Y-74657885D01*
X157103475Y-74673124D01*
X157104865Y-74674329D01*
X157112548Y-74676000D01*
X158163344Y-74676000D01*
X158176875Y-74672027D01*
X158178180Y-74662947D01*
X158136214Y-74495875D01*
X158132894Y-74486124D01*
X158047972Y-74290814D01*
X158043105Y-74281739D01*
X157927426Y-74102926D01*
X157921136Y-74094757D01*
X157777806Y-73937240D01*
X157770273Y-73930215D01*
X157603139Y-73798222D01*
X157594552Y-73792517D01*
X157408117Y-73689599D01*
X157398705Y-73685369D01*
X157197959Y-73614280D01*
X157187988Y-73611646D01*
X157116837Y-73598972D01*
X157103540Y-73600432D01*
X157099000Y-73614989D01*
X157099000Y-74657885D01*
X156591000Y-74657885D01*
X156591000Y-73613102D01*
X156587082Y-73599758D01*
X156572806Y-73597771D01*
X156534324Y-73603660D01*
X156524288Y-73606051D01*
X156321868Y-73672212D01*
X156312359Y-73676209D01*
X156123463Y-73774542D01*
X156114738Y-73780036D01*
X155944433Y-73907905D01*
X155936726Y-73914748D01*
X155789590Y-74068717D01*
X155783109Y-74076722D01*
X155678498Y-74230074D01*
X155623587Y-74275076D01*
X155553062Y-74283247D01*
X155489315Y-74251993D01*
X155468618Y-74227509D01*
X155387822Y-74102617D01*
X155387820Y-74102614D01*
X155385014Y-74098277D01*
X155234670Y-73933051D01*
X155230619Y-73929852D01*
X155230615Y-73929848D01*
X155063414Y-73797800D01*
X155063410Y-73797798D01*
X155059359Y-73794598D01*
X155023028Y-73774542D01*
X155007136Y-73765769D01*
X154863789Y-73686638D01*
X154858920Y-73684914D01*
X154858916Y-73684912D01*
X154658087Y-73613795D01*
X154658083Y-73613794D01*
X154653212Y-73612069D01*
X154648119Y-73611162D01*
X154648116Y-73611161D01*
X154438373Y-73573800D01*
X154438367Y-73573799D01*
X154433284Y-73572894D01*
X154359452Y-73571992D01*
X154215081Y-73570228D01*
X154215079Y-73570228D01*
X154209911Y-73570165D01*
X153989091Y-73603955D01*
X153776756Y-73673357D01*
X153578607Y-73776507D01*
X153574474Y-73779610D01*
X153574471Y-73779612D01*
X153404100Y-73907530D01*
X153399965Y-73910635D01*
X153396393Y-73914373D01*
X153288729Y-74027037D01*
X153245629Y-74072138D01*
X153138201Y-74229621D01*
X153083293Y-74274621D01*
X153012768Y-74282792D01*
X152949021Y-74251538D01*
X152928324Y-74227054D01*
X152847822Y-74102617D01*
X152847820Y-74102614D01*
X152845014Y-74098277D01*
X152694670Y-73933051D01*
X152690619Y-73929852D01*
X152690615Y-73929848D01*
X152523414Y-73797800D01*
X152523410Y-73797798D01*
X152519359Y-73794598D01*
X152483028Y-73774542D01*
X152467136Y-73765769D01*
X152323789Y-73686638D01*
X152318920Y-73684914D01*
X152318916Y-73684912D01*
X152118087Y-73613795D01*
X152118083Y-73613794D01*
X152113212Y-73612069D01*
X152108119Y-73611162D01*
X152108116Y-73611161D01*
X151898373Y-73573800D01*
X151898367Y-73573799D01*
X151893284Y-73572894D01*
X151819452Y-73571992D01*
X151675081Y-73570228D01*
X151675079Y-73570228D01*
X151669911Y-73570165D01*
X151449091Y-73603955D01*
X151236756Y-73673357D01*
X151038607Y-73776507D01*
X151034474Y-73779610D01*
X151034471Y-73779612D01*
X150864100Y-73907530D01*
X150859965Y-73910635D01*
X150856393Y-73914373D01*
X150748729Y-74027037D01*
X150705629Y-74072138D01*
X150598201Y-74229621D01*
X150543293Y-74274621D01*
X150472768Y-74282792D01*
X150409021Y-74251538D01*
X150388324Y-74227054D01*
X150307822Y-74102617D01*
X150307820Y-74102614D01*
X150305014Y-74098277D01*
X150154670Y-73933051D01*
X150150619Y-73929852D01*
X150150615Y-73929848D01*
X149983414Y-73797800D01*
X149983410Y-73797798D01*
X149979359Y-73794598D01*
X149943028Y-73774542D01*
X149927136Y-73765769D01*
X149783789Y-73686638D01*
X149778920Y-73684914D01*
X149778916Y-73684912D01*
X149578087Y-73613795D01*
X149578083Y-73613794D01*
X149573212Y-73612069D01*
X149568119Y-73611162D01*
X149568116Y-73611161D01*
X149358373Y-73573800D01*
X149358367Y-73573799D01*
X149353284Y-73572894D01*
X149279452Y-73571992D01*
X149135081Y-73570228D01*
X149135079Y-73570228D01*
X149129911Y-73570165D01*
X148909091Y-73603955D01*
X148696756Y-73673357D01*
X148498607Y-73776507D01*
X148494474Y-73779610D01*
X148494471Y-73779612D01*
X148324100Y-73907530D01*
X148319965Y-73910635D01*
X148316393Y-73914373D01*
X148208729Y-74027037D01*
X148165629Y-74072138D01*
X148058201Y-74229621D01*
X148003293Y-74274621D01*
X147932768Y-74282792D01*
X147869021Y-74251538D01*
X147848324Y-74227054D01*
X147767822Y-74102617D01*
X147767820Y-74102614D01*
X147765014Y-74098277D01*
X147614670Y-73933051D01*
X147610619Y-73929852D01*
X147610615Y-73929848D01*
X147443414Y-73797800D01*
X147443410Y-73797798D01*
X147439359Y-73794598D01*
X147403028Y-73774542D01*
X147387136Y-73765769D01*
X147243789Y-73686638D01*
X147238920Y-73684914D01*
X147238916Y-73684912D01*
X147038087Y-73613795D01*
X147038083Y-73613794D01*
X147033212Y-73612069D01*
X147028119Y-73611162D01*
X147028116Y-73611161D01*
X146818373Y-73573800D01*
X146818367Y-73573799D01*
X146813284Y-73572894D01*
X146739452Y-73571992D01*
X146595081Y-73570228D01*
X146595079Y-73570228D01*
X146589911Y-73570165D01*
X146369091Y-73603955D01*
X146156756Y-73673357D01*
X145958607Y-73776507D01*
X145954474Y-73779610D01*
X145954471Y-73779612D01*
X145784100Y-73907530D01*
X145779965Y-73910635D01*
X145709263Y-73984621D01*
X145699283Y-73995064D01*
X145637759Y-74030494D01*
X145566846Y-74027037D01*
X145509060Y-73985791D01*
X145490207Y-73952243D01*
X145448767Y-73841703D01*
X145445615Y-73833295D01*
X145358261Y-73716739D01*
X145241705Y-73629385D01*
X145105316Y-73578255D01*
X145043134Y-73571500D01*
X143246866Y-73571500D01*
X143184684Y-73578255D01*
X143048295Y-73629385D01*
X142931739Y-73716739D01*
X142844385Y-73833295D01*
X142793255Y-73969684D01*
X142786500Y-74031866D01*
X142786500Y-75828134D01*
X139737807Y-75828134D01*
X139772994Y-75810896D01*
X139954860Y-75681173D01*
X139995971Y-75640206D01*
X140055268Y-75581115D01*
X140113096Y-75523489D01*
X140243453Y-75342077D01*
X140264320Y-75299857D01*
X140340136Y-75146453D01*
X140340137Y-75146451D01*
X140342430Y-75141811D01*
X140407370Y-74928069D01*
X140436529Y-74706590D01*
X140436611Y-74703240D01*
X140438074Y-74643365D01*
X140438074Y-74643361D01*
X140438156Y-74640000D01*
X140419852Y-74417361D01*
X140365431Y-74200702D01*
X140276354Y-73995840D01*
X140219224Y-73907530D01*
X140157822Y-73812617D01*
X140157820Y-73812614D01*
X140155014Y-73808277D01*
X140004670Y-73643051D01*
X140000619Y-73639852D01*
X140000615Y-73639848D01*
X139833414Y-73507800D01*
X139833410Y-73507798D01*
X139829359Y-73504598D01*
X139633789Y-73396638D01*
X139628920Y-73394914D01*
X139628916Y-73394912D01*
X139428087Y-73323795D01*
X139428083Y-73323794D01*
X139423212Y-73322069D01*
X139418119Y-73321162D01*
X139418116Y-73321161D01*
X139208373Y-73283800D01*
X139208367Y-73283799D01*
X139203284Y-73282894D01*
X139129452Y-73281992D01*
X138985081Y-73280228D01*
X138985079Y-73280228D01*
X138979911Y-73280165D01*
X138759091Y-73313955D01*
X138546756Y-73383357D01*
X138516443Y-73399137D01*
X138449626Y-73433920D01*
X138348607Y-73486507D01*
X138344474Y-73489610D01*
X138344471Y-73489612D01*
X138174100Y-73617530D01*
X138169965Y-73620635D01*
X138161603Y-73629385D01*
X138058729Y-73737037D01*
X138015629Y-73782138D01*
X137908201Y-73939621D01*
X137853293Y-73984621D01*
X137782768Y-73992792D01*
X137719021Y-73961538D01*
X137698324Y-73937054D01*
X137617822Y-73812617D01*
X137617820Y-73812614D01*
X137615014Y-73808277D01*
X137464670Y-73643051D01*
X137460619Y-73639852D01*
X137460615Y-73639848D01*
X137293414Y-73507800D01*
X137293410Y-73507798D01*
X137289359Y-73504598D01*
X137093789Y-73396638D01*
X137088920Y-73394914D01*
X137088916Y-73394912D01*
X136888087Y-73323795D01*
X136888083Y-73323794D01*
X136883212Y-73322069D01*
X136878119Y-73321162D01*
X136878116Y-73321161D01*
X136668373Y-73283800D01*
X136668367Y-73283799D01*
X136663284Y-73282894D01*
X136589452Y-73281992D01*
X136445081Y-73280228D01*
X136445079Y-73280228D01*
X136439911Y-73280165D01*
X136219091Y-73313955D01*
X136006756Y-73383357D01*
X135976443Y-73399137D01*
X135909626Y-73433920D01*
X135808607Y-73486507D01*
X135804474Y-73489610D01*
X135804471Y-73489612D01*
X135634100Y-73617530D01*
X135629965Y-73620635D01*
X135621603Y-73629385D01*
X135518729Y-73737037D01*
X135475629Y-73782138D01*
X135368201Y-73939621D01*
X135313293Y-73984621D01*
X135242768Y-73992792D01*
X135179021Y-73961538D01*
X135158324Y-73937054D01*
X135077822Y-73812617D01*
X135077820Y-73812614D01*
X135075014Y-73808277D01*
X134924670Y-73643051D01*
X134920619Y-73639852D01*
X134920615Y-73639848D01*
X134753414Y-73507800D01*
X134753410Y-73507798D01*
X134749359Y-73504598D01*
X134553789Y-73396638D01*
X134548920Y-73394914D01*
X134548916Y-73394912D01*
X134348087Y-73323795D01*
X134348083Y-73323794D01*
X134343212Y-73322069D01*
X134338119Y-73321162D01*
X134338116Y-73321161D01*
X134128373Y-73283800D01*
X134128367Y-73283799D01*
X134123284Y-73282894D01*
X134049452Y-73281992D01*
X133905081Y-73280228D01*
X133905079Y-73280228D01*
X133899911Y-73280165D01*
X133679091Y-73313955D01*
X133466756Y-73383357D01*
X133436443Y-73399137D01*
X133369626Y-73433920D01*
X133268607Y-73486507D01*
X133264474Y-73489610D01*
X133264471Y-73489612D01*
X133094100Y-73617530D01*
X133089965Y-73620635D01*
X133024062Y-73689599D01*
X133009283Y-73705064D01*
X132947759Y-73740494D01*
X132876846Y-73737037D01*
X132819060Y-73695791D01*
X132800207Y-73662243D01*
X132758767Y-73551703D01*
X132755615Y-73543295D01*
X132668261Y-73426739D01*
X132551705Y-73339385D01*
X132415316Y-73288255D01*
X132353134Y-73281500D01*
X130556866Y-73281500D01*
X130494684Y-73288255D01*
X130358295Y-73339385D01*
X130241739Y-73426739D01*
X130154385Y-73543295D01*
X130103255Y-73679684D01*
X130096500Y-73741866D01*
X130096500Y-75538134D01*
X117847521Y-75538134D01*
X117848445Y-75537568D01*
X117857907Y-75527110D01*
X117854124Y-75518334D01*
X117002812Y-74667022D01*
X116988868Y-74659408D01*
X116987035Y-74659539D01*
X116980420Y-74663790D01*
X116128920Y-75515290D01*
X116122160Y-75527670D01*
X111357400Y-75527670D01*
X111357907Y-75527110D01*
X111354124Y-75518334D01*
X110502812Y-74667022D01*
X110488868Y-74659408D01*
X110487035Y-74659539D01*
X110480420Y-74663790D01*
X109628920Y-75515290D01*
X109622160Y-75527670D01*
X102743500Y-75527670D01*
X102743500Y-74299930D01*
X108977725Y-74299930D01*
X108995572Y-74526699D01*
X108997115Y-74536446D01*
X109050217Y-74757627D01*
X109053266Y-74767012D01*
X109140313Y-74977163D01*
X109144795Y-74985958D01*
X109247432Y-75153445D01*
X109257890Y-75162907D01*
X109266666Y-75159124D01*
X110117978Y-74307812D01*
X110124356Y-74296132D01*
X110854408Y-74296132D01*
X110854539Y-74297965D01*
X110858790Y-74304580D01*
X111710290Y-75156080D01*
X111722670Y-75162840D01*
X111730320Y-75157113D01*
X111835205Y-74985958D01*
X111839687Y-74977163D01*
X111926734Y-74767012D01*
X111929783Y-74757627D01*
X111982885Y-74536446D01*
X111984428Y-74526699D01*
X112002275Y-74299930D01*
X115477725Y-74299930D01*
X115495572Y-74526699D01*
X115497115Y-74536446D01*
X115550217Y-74757627D01*
X115553266Y-74767012D01*
X115640313Y-74977163D01*
X115644795Y-74985958D01*
X115747432Y-75153445D01*
X115757890Y-75162907D01*
X115766666Y-75159124D01*
X116617978Y-74307812D01*
X116624356Y-74296132D01*
X117354408Y-74296132D01*
X117354539Y-74297965D01*
X117358790Y-74304580D01*
X118210290Y-75156080D01*
X118222670Y-75162840D01*
X118230320Y-75157113D01*
X118335205Y-74985958D01*
X118339687Y-74977163D01*
X118426734Y-74767012D01*
X118429783Y-74757627D01*
X118482885Y-74536446D01*
X118484428Y-74526699D01*
X118502275Y-74299930D01*
X118502275Y-74290070D01*
X118484428Y-74063301D01*
X118482885Y-74053554D01*
X118429783Y-73832373D01*
X118426734Y-73822988D01*
X118339687Y-73612837D01*
X118335205Y-73604042D01*
X118232568Y-73436555D01*
X118222110Y-73427093D01*
X118213334Y-73430876D01*
X117362022Y-74282188D01*
X117354408Y-74296132D01*
X116624356Y-74296132D01*
X116625592Y-74293868D01*
X116625461Y-74292035D01*
X116621210Y-74285420D01*
X115769710Y-73433920D01*
X115757330Y-73427160D01*
X115749680Y-73432887D01*
X115644795Y-73604042D01*
X115640313Y-73612837D01*
X115553266Y-73822988D01*
X115550217Y-73832373D01*
X115497115Y-74053554D01*
X115495572Y-74063301D01*
X115477725Y-74290070D01*
X115477725Y-74299930D01*
X112002275Y-74299930D01*
X112002275Y-74290070D01*
X111984428Y-74063301D01*
X111982885Y-74053554D01*
X111929783Y-73832373D01*
X111926734Y-73822988D01*
X111839687Y-73612837D01*
X111835205Y-73604042D01*
X111732568Y-73436555D01*
X111722110Y-73427093D01*
X111713334Y-73430876D01*
X110862022Y-74282188D01*
X110854408Y-74296132D01*
X110124356Y-74296132D01*
X110125592Y-74293868D01*
X110125461Y-74292035D01*
X110121210Y-74285420D01*
X109269710Y-73433920D01*
X109257330Y-73427160D01*
X109249680Y-73432887D01*
X109144795Y-73604042D01*
X109140313Y-73612837D01*
X109053266Y-73822988D01*
X109050217Y-73832373D01*
X108997115Y-74053554D01*
X108995572Y-74063301D01*
X108977725Y-74290070D01*
X108977725Y-74299930D01*
X102743500Y-74299930D01*
X102743500Y-73062890D01*
X109622093Y-73062890D01*
X109625876Y-73071666D01*
X110477188Y-73922978D01*
X110491132Y-73930592D01*
X110492965Y-73930461D01*
X110499580Y-73926210D01*
X111351080Y-73074710D01*
X111357534Y-73062890D01*
X116122093Y-73062890D01*
X116125876Y-73071666D01*
X116977188Y-73922978D01*
X116991132Y-73930592D01*
X116992965Y-73930461D01*
X116999580Y-73926210D01*
X117851080Y-73074710D01*
X117857840Y-73062330D01*
X117852113Y-73054680D01*
X117680958Y-72949795D01*
X117672163Y-72945313D01*
X117462012Y-72858266D01*
X117452627Y-72855217D01*
X117231446Y-72802115D01*
X117221699Y-72800572D01*
X116994930Y-72782725D01*
X116985070Y-72782725D01*
X116758301Y-72800572D01*
X116748554Y-72802115D01*
X116527373Y-72855217D01*
X116517988Y-72858266D01*
X116307837Y-72945313D01*
X116299042Y-72949795D01*
X116131555Y-73052432D01*
X116122093Y-73062890D01*
X111357534Y-73062890D01*
X111357840Y-73062330D01*
X111352113Y-73054680D01*
X111180958Y-72949795D01*
X111172163Y-72945313D01*
X110962012Y-72858266D01*
X110952627Y-72855217D01*
X110731446Y-72802115D01*
X110721699Y-72800572D01*
X110494930Y-72782725D01*
X110485070Y-72782725D01*
X110258301Y-72800572D01*
X110248554Y-72802115D01*
X110027373Y-72855217D01*
X110017988Y-72858266D01*
X109807837Y-72945313D01*
X109799042Y-72949795D01*
X109631555Y-73052432D01*
X109622093Y-73062890D01*
X102743500Y-73062890D01*
X102743500Y-69849500D01*
X102763502Y-69781379D01*
X102817158Y-69734886D01*
X102869500Y-69723500D01*
X173355500Y-69723500D01*
X173423621Y-69743502D01*
G37*
%TD.AperFunction*%
%TD*%
M02*
