%TF.GenerationSoftware,KiCad,Pcbnew,(6.0.5)*%
%TF.CreationDate,2024-04-02T18:11:07-05:00*%
%TF.ProjectId,final_project,66696e61-6c5f-4707-926f-6a6563742e6b,rev?*%
%TF.SameCoordinates,Original*%
%TF.FileFunction,Soldermask,Bot*%
%TF.FilePolarity,Negative*%
%FSLAX46Y46*%
G04 Gerber Fmt 4.6, Leading zero omitted, Abs format (unit mm)*
G04 Created by KiCad (PCBNEW (6.0.5)) date 2024-04-02 18:11:07*
%MOMM*%
%LPD*%
G01*
G04 APERTURE LIST*
%ADD10R,1.700000X1.700000*%
%ADD11O,1.700000X1.700000*%
%ADD12C,2.000000*%
%ADD13C,2.800000*%
%ADD14C,0.700000*%
%ADD15O,0.900000X2.400000*%
%ADD16O,0.900000X1.700000*%
G04 APERTURE END LIST*
D10*
%TO.C,CAM_BOTTOM1*%
X135900000Y-110835000D03*
D11*
X138440000Y-110835000D03*
X140980000Y-110835000D03*
X143520000Y-110835000D03*
%TD*%
D10*
%TO.C,PGRM1*%
X163830000Y-84165000D03*
D11*
X163830000Y-81625000D03*
X163830000Y-79085000D03*
%TD*%
D12*
%TO.C,BOOT0*%
X116990000Y-74295000D03*
X110490000Y-74295000D03*
X110490000Y-78795000D03*
X116990000Y-78795000D03*
%TD*%
D13*
%TO.C,TP1*%
X122555000Y-77470000D03*
%TD*%
D10*
%TO.C,CAM_TOP1*%
X131455000Y-74640000D03*
D11*
X133995000Y-74640000D03*
X136535000Y-74640000D03*
X139075000Y-74640000D03*
%TD*%
D12*
%TO.C,NRST1*%
X116915000Y-86995000D03*
X110415000Y-86995000D03*
X116915000Y-91495000D03*
X110415000Y-91495000D03*
%TD*%
D10*
%TO.C,J6*%
X164465000Y-112110000D03*
D11*
X164465000Y-109570000D03*
%TD*%
D10*
%TO.C,SERIAL1*%
X124460000Y-98135000D03*
D11*
X124460000Y-100675000D03*
X124460000Y-103215000D03*
X124460000Y-105755000D03*
X124460000Y-108295000D03*
X124460000Y-110835000D03*
%TD*%
D10*
%TO.C,LCD1*%
X155575000Y-109565000D03*
D11*
X153035000Y-109565000D03*
X150495000Y-109565000D03*
X147955000Y-109565000D03*
%TD*%
D10*
%TO.C,CAM_LEFT1*%
X125095000Y-84683000D03*
D11*
X125095000Y-87223000D03*
X125095000Y-89763000D03*
X125095000Y-92303000D03*
%TD*%
D14*
%TO.C,J1*%
X130370000Y-116470000D03*
X131220000Y-116470000D03*
X132070000Y-116470000D03*
X132920000Y-116470000D03*
X133770000Y-116470000D03*
X134620000Y-116470000D03*
X135470000Y-116470000D03*
X136320000Y-116470000D03*
X136320000Y-117820000D03*
X135470000Y-117820000D03*
X134620000Y-117820000D03*
X133770000Y-117820000D03*
X132920000Y-117820000D03*
X132070000Y-117820000D03*
X131220000Y-117820000D03*
X130370000Y-117820000D03*
D15*
X129020000Y-117450000D03*
D16*
X129020000Y-120830000D03*
X137670000Y-120830000D03*
D15*
X137670000Y-117450000D03*
%TD*%
D10*
%TO.C,SD_SPI1*%
X144145000Y-74930000D03*
D11*
X146685000Y-74930000D03*
X149225000Y-74930000D03*
X151765000Y-74930000D03*
X154305000Y-74930000D03*
X156845000Y-74930000D03*
%TD*%
D12*
%TO.C,Capture_Pic1*%
X110415000Y-102870000D03*
X116915000Y-102870000D03*
X110415000Y-107370000D03*
X116915000Y-107370000D03*
%TD*%
D10*
%TO.C,CAM_RIGHT1*%
X163830000Y-89245000D03*
D11*
X163830000Y-91785000D03*
X163830000Y-94325000D03*
X163830000Y-96865000D03*
X163830000Y-99405000D03*
X163830000Y-101945000D03*
%TD*%
M02*
