%TF.GenerationSoftware,KiCad,Pcbnew,(6.0.5)*%
%TF.CreationDate,2024-04-02T18:11:07-05:00*%
%TF.ProjectId,final_project,66696e61-6c5f-4707-926f-6a6563742e6b,rev?*%
%TF.SameCoordinates,Original*%
%TF.FileFunction,Legend,Top*%
%TF.FilePolarity,Positive*%
%FSLAX46Y46*%
G04 Gerber Fmt 4.6, Leading zero omitted, Abs format (unit mm)*
G04 Created by KiCad (PCBNEW (6.0.5)) date 2024-04-02 18:11:07*
%MOMM*%
%LPD*%
G01*
G04 APERTURE LIST*
%ADD10C,0.150000*%
%ADD11C,0.120000*%
G04 APERTURE END LIST*
D10*
%TO.C,CAM_BOTTOM1*%
X135906428Y-113732142D02*
X135858809Y-113779761D01*
X135715952Y-113827380D01*
X135620714Y-113827380D01*
X135477857Y-113779761D01*
X135382619Y-113684523D01*
X135335000Y-113589285D01*
X135287380Y-113398809D01*
X135287380Y-113255952D01*
X135335000Y-113065476D01*
X135382619Y-112970238D01*
X135477857Y-112875000D01*
X135620714Y-112827380D01*
X135715952Y-112827380D01*
X135858809Y-112875000D01*
X135906428Y-112922619D01*
X136287380Y-113541666D02*
X136763571Y-113541666D01*
X136192142Y-113827380D02*
X136525476Y-112827380D01*
X136858809Y-113827380D01*
X137192142Y-113827380D02*
X137192142Y-112827380D01*
X137525476Y-113541666D01*
X137858809Y-112827380D01*
X137858809Y-113827380D01*
X138096904Y-113922619D02*
X138858809Y-113922619D01*
X139430238Y-113303571D02*
X139573095Y-113351190D01*
X139620714Y-113398809D01*
X139668333Y-113494047D01*
X139668333Y-113636904D01*
X139620714Y-113732142D01*
X139573095Y-113779761D01*
X139477857Y-113827380D01*
X139096904Y-113827380D01*
X139096904Y-112827380D01*
X139430238Y-112827380D01*
X139525476Y-112875000D01*
X139573095Y-112922619D01*
X139620714Y-113017857D01*
X139620714Y-113113095D01*
X139573095Y-113208333D01*
X139525476Y-113255952D01*
X139430238Y-113303571D01*
X139096904Y-113303571D01*
X140287380Y-112827380D02*
X140477857Y-112827380D01*
X140573095Y-112875000D01*
X140668333Y-112970238D01*
X140715952Y-113160714D01*
X140715952Y-113494047D01*
X140668333Y-113684523D01*
X140573095Y-113779761D01*
X140477857Y-113827380D01*
X140287380Y-113827380D01*
X140192142Y-113779761D01*
X140096904Y-113684523D01*
X140049285Y-113494047D01*
X140049285Y-113160714D01*
X140096904Y-112970238D01*
X140192142Y-112875000D01*
X140287380Y-112827380D01*
X141001666Y-112827380D02*
X141573095Y-112827380D01*
X141287380Y-113827380D02*
X141287380Y-112827380D01*
X141763571Y-112827380D02*
X142335000Y-112827380D01*
X142049285Y-113827380D02*
X142049285Y-112827380D01*
X142858809Y-112827380D02*
X143049285Y-112827380D01*
X143144523Y-112875000D01*
X143239761Y-112970238D01*
X143287380Y-113160714D01*
X143287380Y-113494047D01*
X143239761Y-113684523D01*
X143144523Y-113779761D01*
X143049285Y-113827380D01*
X142858809Y-113827380D01*
X142763571Y-113779761D01*
X142668333Y-113684523D01*
X142620714Y-113494047D01*
X142620714Y-113160714D01*
X142668333Y-112970238D01*
X142763571Y-112875000D01*
X142858809Y-112827380D01*
X143715952Y-113827380D02*
X143715952Y-112827380D01*
X144049285Y-113541666D01*
X144382619Y-112827380D01*
X144382619Y-113827380D01*
X145382619Y-113827380D02*
X144811190Y-113827380D01*
X145096904Y-113827380D02*
X145096904Y-112827380D01*
X145001666Y-112970238D01*
X144906428Y-113065476D01*
X144811190Y-113113095D01*
%TO.C,C4*%
X128738333Y-95607142D02*
X128690714Y-95654761D01*
X128547857Y-95702380D01*
X128452619Y-95702380D01*
X128309761Y-95654761D01*
X128214523Y-95559523D01*
X128166904Y-95464285D01*
X128119285Y-95273809D01*
X128119285Y-95130952D01*
X128166904Y-94940476D01*
X128214523Y-94845238D01*
X128309761Y-94750000D01*
X128452619Y-94702380D01*
X128547857Y-94702380D01*
X128690714Y-94750000D01*
X128738333Y-94797619D01*
X129595476Y-95035714D02*
X129595476Y-95702380D01*
X129357380Y-94654761D02*
X129119285Y-95369047D01*
X129738333Y-95369047D01*
%TO.C,R5*%
X146518333Y-104847380D02*
X146185000Y-104371190D01*
X145946904Y-104847380D02*
X145946904Y-103847380D01*
X146327857Y-103847380D01*
X146423095Y-103895000D01*
X146470714Y-103942619D01*
X146518333Y-104037857D01*
X146518333Y-104180714D01*
X146470714Y-104275952D01*
X146423095Y-104323571D01*
X146327857Y-104371190D01*
X145946904Y-104371190D01*
X147423095Y-103847380D02*
X146946904Y-103847380D01*
X146899285Y-104323571D01*
X146946904Y-104275952D01*
X147042142Y-104228333D01*
X147280238Y-104228333D01*
X147375476Y-104275952D01*
X147423095Y-104323571D01*
X147470714Y-104418809D01*
X147470714Y-104656904D01*
X147423095Y-104752142D01*
X147375476Y-104799761D01*
X147280238Y-104847380D01*
X147042142Y-104847380D01*
X146946904Y-104799761D01*
X146899285Y-104752142D01*
%TO.C,U1*%
X154178095Y-112427380D02*
X154178095Y-113236904D01*
X154225714Y-113332142D01*
X154273333Y-113379761D01*
X154368571Y-113427380D01*
X154559047Y-113427380D01*
X154654285Y-113379761D01*
X154701904Y-113332142D01*
X154749523Y-113236904D01*
X154749523Y-112427380D01*
X155749523Y-113427380D02*
X155178095Y-113427380D01*
X155463809Y-113427380D02*
X155463809Y-112427380D01*
X155368571Y-112570238D01*
X155273333Y-112665476D01*
X155178095Y-112713095D01*
%TO.C,PGRM1*%
X161742380Y-84569523D02*
X160742380Y-84569523D01*
X160742380Y-84188571D01*
X160790000Y-84093333D01*
X160837619Y-84045714D01*
X160932857Y-83998095D01*
X161075714Y-83998095D01*
X161170952Y-84045714D01*
X161218571Y-84093333D01*
X161266190Y-84188571D01*
X161266190Y-84569523D01*
X160790000Y-83045714D02*
X160742380Y-83140952D01*
X160742380Y-83283809D01*
X160790000Y-83426666D01*
X160885238Y-83521904D01*
X160980476Y-83569523D01*
X161170952Y-83617142D01*
X161313809Y-83617142D01*
X161504285Y-83569523D01*
X161599523Y-83521904D01*
X161694761Y-83426666D01*
X161742380Y-83283809D01*
X161742380Y-83188571D01*
X161694761Y-83045714D01*
X161647142Y-82998095D01*
X161313809Y-82998095D01*
X161313809Y-83188571D01*
X161742380Y-81998095D02*
X161266190Y-82331428D01*
X161742380Y-82569523D02*
X160742380Y-82569523D01*
X160742380Y-82188571D01*
X160790000Y-82093333D01*
X160837619Y-82045714D01*
X160932857Y-81998095D01*
X161075714Y-81998095D01*
X161170952Y-82045714D01*
X161218571Y-82093333D01*
X161266190Y-82188571D01*
X161266190Y-82569523D01*
X161742380Y-81569523D02*
X160742380Y-81569523D01*
X161456666Y-81236190D01*
X160742380Y-80902857D01*
X161742380Y-80902857D01*
X161742380Y-79902857D02*
X161742380Y-80474285D01*
X161742380Y-80188571D02*
X160742380Y-80188571D01*
X160885238Y-80283809D01*
X160980476Y-80379047D01*
X161028095Y-80474285D01*
%TO.C,R7*%
X121753333Y-72872380D02*
X121420000Y-72396190D01*
X121181904Y-72872380D02*
X121181904Y-71872380D01*
X121562857Y-71872380D01*
X121658095Y-71920000D01*
X121705714Y-71967619D01*
X121753333Y-72062857D01*
X121753333Y-72205714D01*
X121705714Y-72300952D01*
X121658095Y-72348571D01*
X121562857Y-72396190D01*
X121181904Y-72396190D01*
X122086666Y-71872380D02*
X122753333Y-71872380D01*
X122324761Y-72872380D01*
%TO.C,C7*%
X157202142Y-84621666D02*
X157249761Y-84669285D01*
X157297380Y-84812142D01*
X157297380Y-84907380D01*
X157249761Y-85050238D01*
X157154523Y-85145476D01*
X157059285Y-85193095D01*
X156868809Y-85240714D01*
X156725952Y-85240714D01*
X156535476Y-85193095D01*
X156440238Y-85145476D01*
X156345000Y-85050238D01*
X156297380Y-84907380D01*
X156297380Y-84812142D01*
X156345000Y-84669285D01*
X156392619Y-84621666D01*
X156297380Y-84288333D02*
X156297380Y-83621666D01*
X157297380Y-84050238D01*
%TO.C,C9*%
X129373333Y-97512142D02*
X129325714Y-97559761D01*
X129182857Y-97607380D01*
X129087619Y-97607380D01*
X128944761Y-97559761D01*
X128849523Y-97464523D01*
X128801904Y-97369285D01*
X128754285Y-97178809D01*
X128754285Y-97035952D01*
X128801904Y-96845476D01*
X128849523Y-96750238D01*
X128944761Y-96655000D01*
X129087619Y-96607380D01*
X129182857Y-96607380D01*
X129325714Y-96655000D01*
X129373333Y-96702619D01*
X129849523Y-97607380D02*
X130040000Y-97607380D01*
X130135238Y-97559761D01*
X130182857Y-97512142D01*
X130278095Y-97369285D01*
X130325714Y-97178809D01*
X130325714Y-96797857D01*
X130278095Y-96702619D01*
X130230476Y-96655000D01*
X130135238Y-96607380D01*
X129944761Y-96607380D01*
X129849523Y-96655000D01*
X129801904Y-96702619D01*
X129754285Y-96797857D01*
X129754285Y-97035952D01*
X129801904Y-97131190D01*
X129849523Y-97178809D01*
X129944761Y-97226428D01*
X130135238Y-97226428D01*
X130230476Y-97178809D01*
X130278095Y-97131190D01*
X130325714Y-97035952D01*
%TO.C,BOOT0*%
X111906666Y-71683571D02*
X112049523Y-71731190D01*
X112097142Y-71778809D01*
X112144761Y-71874047D01*
X112144761Y-72016904D01*
X112097142Y-72112142D01*
X112049523Y-72159761D01*
X111954285Y-72207380D01*
X111573333Y-72207380D01*
X111573333Y-71207380D01*
X111906666Y-71207380D01*
X112001904Y-71255000D01*
X112049523Y-71302619D01*
X112097142Y-71397857D01*
X112097142Y-71493095D01*
X112049523Y-71588333D01*
X112001904Y-71635952D01*
X111906666Y-71683571D01*
X111573333Y-71683571D01*
X112763809Y-71207380D02*
X112954285Y-71207380D01*
X113049523Y-71255000D01*
X113144761Y-71350238D01*
X113192380Y-71540714D01*
X113192380Y-71874047D01*
X113144761Y-72064523D01*
X113049523Y-72159761D01*
X112954285Y-72207380D01*
X112763809Y-72207380D01*
X112668571Y-72159761D01*
X112573333Y-72064523D01*
X112525714Y-71874047D01*
X112525714Y-71540714D01*
X112573333Y-71350238D01*
X112668571Y-71255000D01*
X112763809Y-71207380D01*
X113811428Y-71207380D02*
X114001904Y-71207380D01*
X114097142Y-71255000D01*
X114192380Y-71350238D01*
X114240000Y-71540714D01*
X114240000Y-71874047D01*
X114192380Y-72064523D01*
X114097142Y-72159761D01*
X114001904Y-72207380D01*
X113811428Y-72207380D01*
X113716190Y-72159761D01*
X113620952Y-72064523D01*
X113573333Y-71874047D01*
X113573333Y-71540714D01*
X113620952Y-71350238D01*
X113716190Y-71255000D01*
X113811428Y-71207380D01*
X114525714Y-71207380D02*
X115097142Y-71207380D01*
X114811428Y-72207380D02*
X114811428Y-71207380D01*
X115620952Y-71207380D02*
X115716190Y-71207380D01*
X115811428Y-71255000D01*
X115859047Y-71302619D01*
X115906666Y-71397857D01*
X115954285Y-71588333D01*
X115954285Y-71826428D01*
X115906666Y-72016904D01*
X115859047Y-72112142D01*
X115811428Y-72159761D01*
X115716190Y-72207380D01*
X115620952Y-72207380D01*
X115525714Y-72159761D01*
X115478095Y-72112142D01*
X115430476Y-72016904D01*
X115382857Y-71826428D01*
X115382857Y-71588333D01*
X115430476Y-71397857D01*
X115478095Y-71302619D01*
X115525714Y-71255000D01*
X115620952Y-71207380D01*
%TO.C,C5*%
X134567142Y-104651666D02*
X134614761Y-104699285D01*
X134662380Y-104842142D01*
X134662380Y-104937380D01*
X134614761Y-105080238D01*
X134519523Y-105175476D01*
X134424285Y-105223095D01*
X134233809Y-105270714D01*
X134090952Y-105270714D01*
X133900476Y-105223095D01*
X133805238Y-105175476D01*
X133710000Y-105080238D01*
X133662380Y-104937380D01*
X133662380Y-104842142D01*
X133710000Y-104699285D01*
X133757619Y-104651666D01*
X133662380Y-103746904D02*
X133662380Y-104223095D01*
X134138571Y-104270714D01*
X134090952Y-104223095D01*
X134043333Y-104127857D01*
X134043333Y-103889761D01*
X134090952Y-103794523D01*
X134138571Y-103746904D01*
X134233809Y-103699285D01*
X134471904Y-103699285D01*
X134567142Y-103746904D01*
X134614761Y-103794523D01*
X134662380Y-103889761D01*
X134662380Y-104127857D01*
X134614761Y-104223095D01*
X134567142Y-104270714D01*
%TO.C,U2*%
X147193095Y-83907380D02*
X147193095Y-84716904D01*
X147240714Y-84812142D01*
X147288333Y-84859761D01*
X147383571Y-84907380D01*
X147574047Y-84907380D01*
X147669285Y-84859761D01*
X147716904Y-84812142D01*
X147764523Y-84716904D01*
X147764523Y-83907380D01*
X148193095Y-84002619D02*
X148240714Y-83955000D01*
X148335952Y-83907380D01*
X148574047Y-83907380D01*
X148669285Y-83955000D01*
X148716904Y-84002619D01*
X148764523Y-84097857D01*
X148764523Y-84193095D01*
X148716904Y-84335952D01*
X148145476Y-84907380D01*
X148764523Y-84907380D01*
%TO.C,TP1*%
X125103095Y-76922380D02*
X125674523Y-76922380D01*
X125388809Y-77922380D02*
X125388809Y-76922380D01*
X126007857Y-77922380D02*
X126007857Y-76922380D01*
X126388809Y-76922380D01*
X126484047Y-76970000D01*
X126531666Y-77017619D01*
X126579285Y-77112857D01*
X126579285Y-77255714D01*
X126531666Y-77350952D01*
X126484047Y-77398571D01*
X126388809Y-77446190D01*
X126007857Y-77446190D01*
X127531666Y-77922380D02*
X126960238Y-77922380D01*
X127245952Y-77922380D02*
X127245952Y-76922380D01*
X127150714Y-77065238D01*
X127055476Y-77160476D01*
X126960238Y-77208095D01*
%TO.C,CAM_TOP1*%
X132302619Y-72112142D02*
X132255000Y-72159761D01*
X132112142Y-72207380D01*
X132016904Y-72207380D01*
X131874047Y-72159761D01*
X131778809Y-72064523D01*
X131731190Y-71969285D01*
X131683571Y-71778809D01*
X131683571Y-71635952D01*
X131731190Y-71445476D01*
X131778809Y-71350238D01*
X131874047Y-71255000D01*
X132016904Y-71207380D01*
X132112142Y-71207380D01*
X132255000Y-71255000D01*
X132302619Y-71302619D01*
X132683571Y-71921666D02*
X133159761Y-71921666D01*
X132588333Y-72207380D02*
X132921666Y-71207380D01*
X133255000Y-72207380D01*
X133588333Y-72207380D02*
X133588333Y-71207380D01*
X133921666Y-71921666D01*
X134255000Y-71207380D01*
X134255000Y-72207380D01*
X134493095Y-72302619D02*
X135255000Y-72302619D01*
X135350238Y-71207380D02*
X135921666Y-71207380D01*
X135635952Y-72207380D02*
X135635952Y-71207380D01*
X136445476Y-71207380D02*
X136635952Y-71207380D01*
X136731190Y-71255000D01*
X136826428Y-71350238D01*
X136874047Y-71540714D01*
X136874047Y-71874047D01*
X136826428Y-72064523D01*
X136731190Y-72159761D01*
X136635952Y-72207380D01*
X136445476Y-72207380D01*
X136350238Y-72159761D01*
X136255000Y-72064523D01*
X136207380Y-71874047D01*
X136207380Y-71540714D01*
X136255000Y-71350238D01*
X136350238Y-71255000D01*
X136445476Y-71207380D01*
X137302619Y-72207380D02*
X137302619Y-71207380D01*
X137683571Y-71207380D01*
X137778809Y-71255000D01*
X137826428Y-71302619D01*
X137874047Y-71397857D01*
X137874047Y-71540714D01*
X137826428Y-71635952D01*
X137778809Y-71683571D01*
X137683571Y-71731190D01*
X137302619Y-71731190D01*
X138826428Y-72207380D02*
X138255000Y-72207380D01*
X138540714Y-72207380D02*
X138540714Y-71207380D01*
X138445476Y-71350238D01*
X138350238Y-71445476D01*
X138255000Y-71493095D01*
%TO.C,NRST1*%
X110910952Y-84907380D02*
X110910952Y-83907380D01*
X111482380Y-84907380D01*
X111482380Y-83907380D01*
X112530000Y-84907380D02*
X112196666Y-84431190D01*
X111958571Y-84907380D02*
X111958571Y-83907380D01*
X112339523Y-83907380D01*
X112434761Y-83955000D01*
X112482380Y-84002619D01*
X112530000Y-84097857D01*
X112530000Y-84240714D01*
X112482380Y-84335952D01*
X112434761Y-84383571D01*
X112339523Y-84431190D01*
X111958571Y-84431190D01*
X112910952Y-84859761D02*
X113053809Y-84907380D01*
X113291904Y-84907380D01*
X113387142Y-84859761D01*
X113434761Y-84812142D01*
X113482380Y-84716904D01*
X113482380Y-84621666D01*
X113434761Y-84526428D01*
X113387142Y-84478809D01*
X113291904Y-84431190D01*
X113101428Y-84383571D01*
X113006190Y-84335952D01*
X112958571Y-84288333D01*
X112910952Y-84193095D01*
X112910952Y-84097857D01*
X112958571Y-84002619D01*
X113006190Y-83955000D01*
X113101428Y-83907380D01*
X113339523Y-83907380D01*
X113482380Y-83955000D01*
X113768095Y-83907380D02*
X114339523Y-83907380D01*
X114053809Y-84907380D02*
X114053809Y-83907380D01*
X115196666Y-84907380D02*
X114625238Y-84907380D01*
X114910952Y-84907380D02*
X114910952Y-83907380D01*
X114815714Y-84050238D01*
X114720476Y-84145476D01*
X114625238Y-84193095D01*
%TO.C,C1*%
X122687142Y-89644166D02*
X122734761Y-89691785D01*
X122782380Y-89834642D01*
X122782380Y-89929880D01*
X122734761Y-90072738D01*
X122639523Y-90167976D01*
X122544285Y-90215595D01*
X122353809Y-90263214D01*
X122210952Y-90263214D01*
X122020476Y-90215595D01*
X121925238Y-90167976D01*
X121830000Y-90072738D01*
X121782380Y-89929880D01*
X121782380Y-89834642D01*
X121830000Y-89691785D01*
X121877619Y-89644166D01*
X122782380Y-88691785D02*
X122782380Y-89263214D01*
X122782380Y-88977500D02*
X121782380Y-88977500D01*
X121925238Y-89072738D01*
X122020476Y-89167976D01*
X122068095Y-89263214D01*
%TO.C,J6*%
X164131666Y-113892380D02*
X164131666Y-114606666D01*
X164084047Y-114749523D01*
X163988809Y-114844761D01*
X163845952Y-114892380D01*
X163750714Y-114892380D01*
X165036428Y-113892380D02*
X164845952Y-113892380D01*
X164750714Y-113940000D01*
X164703095Y-113987619D01*
X164607857Y-114130476D01*
X164560238Y-114320952D01*
X164560238Y-114701904D01*
X164607857Y-114797142D01*
X164655476Y-114844761D01*
X164750714Y-114892380D01*
X164941190Y-114892380D01*
X165036428Y-114844761D01*
X165084047Y-114797142D01*
X165131666Y-114701904D01*
X165131666Y-114463809D01*
X165084047Y-114368571D01*
X165036428Y-114320952D01*
X164941190Y-114273333D01*
X164750714Y-114273333D01*
X164655476Y-114320952D01*
X164607857Y-114368571D01*
X164560238Y-114463809D01*
%TO.C,R8*%
X169617380Y-89701666D02*
X169141190Y-90035000D01*
X169617380Y-90273095D02*
X168617380Y-90273095D01*
X168617380Y-89892142D01*
X168665000Y-89796904D01*
X168712619Y-89749285D01*
X168807857Y-89701666D01*
X168950714Y-89701666D01*
X169045952Y-89749285D01*
X169093571Y-89796904D01*
X169141190Y-89892142D01*
X169141190Y-90273095D01*
X169045952Y-89130238D02*
X168998333Y-89225476D01*
X168950714Y-89273095D01*
X168855476Y-89320714D01*
X168807857Y-89320714D01*
X168712619Y-89273095D01*
X168665000Y-89225476D01*
X168617380Y-89130238D01*
X168617380Y-88939761D01*
X168665000Y-88844523D01*
X168712619Y-88796904D01*
X168807857Y-88749285D01*
X168855476Y-88749285D01*
X168950714Y-88796904D01*
X168998333Y-88844523D01*
X169045952Y-88939761D01*
X169045952Y-89130238D01*
X169093571Y-89225476D01*
X169141190Y-89273095D01*
X169236428Y-89320714D01*
X169426904Y-89320714D01*
X169522142Y-89273095D01*
X169569761Y-89225476D01*
X169617380Y-89130238D01*
X169617380Y-88939761D01*
X169569761Y-88844523D01*
X169522142Y-88796904D01*
X169426904Y-88749285D01*
X169236428Y-88749285D01*
X169141190Y-88796904D01*
X169093571Y-88844523D01*
X169045952Y-88939761D01*
%TO.C,R2*%
X116673333Y-84997380D02*
X116340000Y-84521190D01*
X116101904Y-84997380D02*
X116101904Y-83997380D01*
X116482857Y-83997380D01*
X116578095Y-84045000D01*
X116625714Y-84092619D01*
X116673333Y-84187857D01*
X116673333Y-84330714D01*
X116625714Y-84425952D01*
X116578095Y-84473571D01*
X116482857Y-84521190D01*
X116101904Y-84521190D01*
X117054285Y-84092619D02*
X117101904Y-84045000D01*
X117197142Y-83997380D01*
X117435238Y-83997380D01*
X117530476Y-84045000D01*
X117578095Y-84092619D01*
X117625714Y-84187857D01*
X117625714Y-84283095D01*
X117578095Y-84425952D01*
X117006666Y-84997380D01*
X117625714Y-84997380D01*
%TO.C,SERIAL1*%
X121674285Y-95769761D02*
X121817142Y-95817380D01*
X122055238Y-95817380D01*
X122150476Y-95769761D01*
X122198095Y-95722142D01*
X122245714Y-95626904D01*
X122245714Y-95531666D01*
X122198095Y-95436428D01*
X122150476Y-95388809D01*
X122055238Y-95341190D01*
X121864761Y-95293571D01*
X121769523Y-95245952D01*
X121721904Y-95198333D01*
X121674285Y-95103095D01*
X121674285Y-95007857D01*
X121721904Y-94912619D01*
X121769523Y-94865000D01*
X121864761Y-94817380D01*
X122102857Y-94817380D01*
X122245714Y-94865000D01*
X122674285Y-95293571D02*
X123007619Y-95293571D01*
X123150476Y-95817380D02*
X122674285Y-95817380D01*
X122674285Y-94817380D01*
X123150476Y-94817380D01*
X124150476Y-95817380D02*
X123817142Y-95341190D01*
X123579047Y-95817380D02*
X123579047Y-94817380D01*
X123960000Y-94817380D01*
X124055238Y-94865000D01*
X124102857Y-94912619D01*
X124150476Y-95007857D01*
X124150476Y-95150714D01*
X124102857Y-95245952D01*
X124055238Y-95293571D01*
X123960000Y-95341190D01*
X123579047Y-95341190D01*
X124579047Y-95817380D02*
X124579047Y-94817380D01*
X125007619Y-95531666D02*
X125483809Y-95531666D01*
X124912380Y-95817380D02*
X125245714Y-94817380D01*
X125579047Y-95817380D01*
X126388571Y-95817380D02*
X125912380Y-95817380D01*
X125912380Y-94817380D01*
X127245714Y-95817380D02*
X126674285Y-95817380D01*
X126960000Y-95817380D02*
X126960000Y-94817380D01*
X126864761Y-94960238D01*
X126769523Y-95055476D01*
X126674285Y-95103095D01*
%TO.C,LCD1*%
X158357380Y-110731666D02*
X158357380Y-111207857D01*
X157357380Y-111207857D01*
X158262142Y-109826904D02*
X158309761Y-109874523D01*
X158357380Y-110017380D01*
X158357380Y-110112619D01*
X158309761Y-110255476D01*
X158214523Y-110350714D01*
X158119285Y-110398333D01*
X157928809Y-110445952D01*
X157785952Y-110445952D01*
X157595476Y-110398333D01*
X157500238Y-110350714D01*
X157405000Y-110255476D01*
X157357380Y-110112619D01*
X157357380Y-110017380D01*
X157405000Y-109874523D01*
X157452619Y-109826904D01*
X158357380Y-109398333D02*
X157357380Y-109398333D01*
X157357380Y-109160238D01*
X157405000Y-109017380D01*
X157500238Y-108922142D01*
X157595476Y-108874523D01*
X157785952Y-108826904D01*
X157928809Y-108826904D01*
X158119285Y-108874523D01*
X158214523Y-108922142D01*
X158309761Y-109017380D01*
X158357380Y-109160238D01*
X158357380Y-109398333D01*
X158357380Y-107874523D02*
X158357380Y-108445952D01*
X158357380Y-108160238D02*
X157357380Y-108160238D01*
X157500238Y-108255476D01*
X157595476Y-108350714D01*
X157643095Y-108445952D01*
%TO.C,R4*%
X161123333Y-112847380D02*
X160790000Y-112371190D01*
X160551904Y-112847380D02*
X160551904Y-111847380D01*
X160932857Y-111847380D01*
X161028095Y-111895000D01*
X161075714Y-111942619D01*
X161123333Y-112037857D01*
X161123333Y-112180714D01*
X161075714Y-112275952D01*
X161028095Y-112323571D01*
X160932857Y-112371190D01*
X160551904Y-112371190D01*
X161980476Y-112180714D02*
X161980476Y-112847380D01*
X161742380Y-111799761D02*
X161504285Y-112514047D01*
X162123333Y-112514047D01*
%TO.C,R6*%
X126833333Y-71192380D02*
X126500000Y-70716190D01*
X126261904Y-71192380D02*
X126261904Y-70192380D01*
X126642857Y-70192380D01*
X126738095Y-70240000D01*
X126785714Y-70287619D01*
X126833333Y-70382857D01*
X126833333Y-70525714D01*
X126785714Y-70620952D01*
X126738095Y-70668571D01*
X126642857Y-70716190D01*
X126261904Y-70716190D01*
X127690476Y-70192380D02*
X127500000Y-70192380D01*
X127404761Y-70240000D01*
X127357142Y-70287619D01*
X127261904Y-70430476D01*
X127214285Y-70620952D01*
X127214285Y-71001904D01*
X127261904Y-71097142D01*
X127309523Y-71144761D01*
X127404761Y-71192380D01*
X127595238Y-71192380D01*
X127690476Y-71144761D01*
X127738095Y-71097142D01*
X127785714Y-71001904D01*
X127785714Y-70763809D01*
X127738095Y-70668571D01*
X127690476Y-70620952D01*
X127595238Y-70573333D01*
X127404761Y-70573333D01*
X127309523Y-70620952D01*
X127261904Y-70668571D01*
X127214285Y-70763809D01*
%TO.C,C8*%
X138562142Y-85601666D02*
X138609761Y-85649285D01*
X138657380Y-85792142D01*
X138657380Y-85887380D01*
X138609761Y-86030238D01*
X138514523Y-86125476D01*
X138419285Y-86173095D01*
X138228809Y-86220714D01*
X138085952Y-86220714D01*
X137895476Y-86173095D01*
X137800238Y-86125476D01*
X137705000Y-86030238D01*
X137657380Y-85887380D01*
X137657380Y-85792142D01*
X137705000Y-85649285D01*
X137752619Y-85601666D01*
X138085952Y-85030238D02*
X138038333Y-85125476D01*
X137990714Y-85173095D01*
X137895476Y-85220714D01*
X137847857Y-85220714D01*
X137752619Y-85173095D01*
X137705000Y-85125476D01*
X137657380Y-85030238D01*
X137657380Y-84839761D01*
X137705000Y-84744523D01*
X137752619Y-84696904D01*
X137847857Y-84649285D01*
X137895476Y-84649285D01*
X137990714Y-84696904D01*
X138038333Y-84744523D01*
X138085952Y-84839761D01*
X138085952Y-85030238D01*
X138133571Y-85125476D01*
X138181190Y-85173095D01*
X138276428Y-85220714D01*
X138466904Y-85220714D01*
X138562142Y-85173095D01*
X138609761Y-85125476D01*
X138657380Y-85030238D01*
X138657380Y-84839761D01*
X138609761Y-84744523D01*
X138562142Y-84696904D01*
X138466904Y-84649285D01*
X138276428Y-84649285D01*
X138181190Y-84696904D01*
X138133571Y-84744523D01*
X138085952Y-84839761D01*
%TO.C,CAM_LEFT1*%
X121880714Y-82710142D02*
X121833095Y-82757761D01*
X121690238Y-82805380D01*
X121595000Y-82805380D01*
X121452142Y-82757761D01*
X121356904Y-82662523D01*
X121309285Y-82567285D01*
X121261666Y-82376809D01*
X121261666Y-82233952D01*
X121309285Y-82043476D01*
X121356904Y-81948238D01*
X121452142Y-81853000D01*
X121595000Y-81805380D01*
X121690238Y-81805380D01*
X121833095Y-81853000D01*
X121880714Y-81900619D01*
X122261666Y-82519666D02*
X122737857Y-82519666D01*
X122166428Y-82805380D02*
X122499761Y-81805380D01*
X122833095Y-82805380D01*
X123166428Y-82805380D02*
X123166428Y-81805380D01*
X123499761Y-82519666D01*
X123833095Y-81805380D01*
X123833095Y-82805380D01*
X124071190Y-82900619D02*
X124833095Y-82900619D01*
X125547380Y-82805380D02*
X125071190Y-82805380D01*
X125071190Y-81805380D01*
X125880714Y-82281571D02*
X126214047Y-82281571D01*
X126356904Y-82805380D02*
X125880714Y-82805380D01*
X125880714Y-81805380D01*
X126356904Y-81805380D01*
X127118809Y-82281571D02*
X126785476Y-82281571D01*
X126785476Y-82805380D02*
X126785476Y-81805380D01*
X127261666Y-81805380D01*
X127499761Y-81805380D02*
X128071190Y-81805380D01*
X127785476Y-82805380D02*
X127785476Y-81805380D01*
X128928333Y-82805380D02*
X128356904Y-82805380D01*
X128642619Y-82805380D02*
X128642619Y-81805380D01*
X128547380Y-81948238D01*
X128452142Y-82043476D01*
X128356904Y-82091095D01*
%TO.C,R3*%
X160488333Y-105192380D02*
X160155000Y-104716190D01*
X159916904Y-105192380D02*
X159916904Y-104192380D01*
X160297857Y-104192380D01*
X160393095Y-104240000D01*
X160440714Y-104287619D01*
X160488333Y-104382857D01*
X160488333Y-104525714D01*
X160440714Y-104620952D01*
X160393095Y-104668571D01*
X160297857Y-104716190D01*
X159916904Y-104716190D01*
X160821666Y-104192380D02*
X161440714Y-104192380D01*
X161107380Y-104573333D01*
X161250238Y-104573333D01*
X161345476Y-104620952D01*
X161393095Y-104668571D01*
X161440714Y-104763809D01*
X161440714Y-105001904D01*
X161393095Y-105097142D01*
X161345476Y-105144761D01*
X161250238Y-105192380D01*
X160964523Y-105192380D01*
X160869285Y-105144761D01*
X160821666Y-105097142D01*
%TO.C,R1*%
X112498333Y-111542380D02*
X112165000Y-111066190D01*
X111926904Y-111542380D02*
X111926904Y-110542380D01*
X112307857Y-110542380D01*
X112403095Y-110590000D01*
X112450714Y-110637619D01*
X112498333Y-110732857D01*
X112498333Y-110875714D01*
X112450714Y-110970952D01*
X112403095Y-111018571D01*
X112307857Y-111066190D01*
X111926904Y-111066190D01*
X113450714Y-111542380D02*
X112879285Y-111542380D01*
X113165000Y-111542380D02*
X113165000Y-110542380D01*
X113069761Y-110685238D01*
X112974523Y-110780476D01*
X112879285Y-110828095D01*
%TO.C,J1*%
X133011666Y-114122380D02*
X133011666Y-114836666D01*
X132964047Y-114979523D01*
X132868809Y-115074761D01*
X132725952Y-115122380D01*
X132630714Y-115122380D01*
X134011666Y-115122380D02*
X133440238Y-115122380D01*
X133725952Y-115122380D02*
X133725952Y-114122380D01*
X133630714Y-114265238D01*
X133535476Y-114360476D01*
X133440238Y-114408095D01*
%TO.C,R9*%
X169617380Y-94451666D02*
X169141190Y-94785000D01*
X169617380Y-95023095D02*
X168617380Y-95023095D01*
X168617380Y-94642142D01*
X168665000Y-94546904D01*
X168712619Y-94499285D01*
X168807857Y-94451666D01*
X168950714Y-94451666D01*
X169045952Y-94499285D01*
X169093571Y-94546904D01*
X169141190Y-94642142D01*
X169141190Y-95023095D01*
X169617380Y-93975476D02*
X169617380Y-93785000D01*
X169569761Y-93689761D01*
X169522142Y-93642142D01*
X169379285Y-93546904D01*
X169188809Y-93499285D01*
X168807857Y-93499285D01*
X168712619Y-93546904D01*
X168665000Y-93594523D01*
X168617380Y-93689761D01*
X168617380Y-93880238D01*
X168665000Y-93975476D01*
X168712619Y-94023095D01*
X168807857Y-94070714D01*
X169045952Y-94070714D01*
X169141190Y-94023095D01*
X169188809Y-93975476D01*
X169236428Y-93880238D01*
X169236428Y-93689761D01*
X169188809Y-93594523D01*
X169141190Y-93546904D01*
X169045952Y-93499285D01*
%TO.C,C11*%
X142867142Y-119037142D02*
X142819523Y-119084761D01*
X142676666Y-119132380D01*
X142581428Y-119132380D01*
X142438571Y-119084761D01*
X142343333Y-118989523D01*
X142295714Y-118894285D01*
X142248095Y-118703809D01*
X142248095Y-118560952D01*
X142295714Y-118370476D01*
X142343333Y-118275238D01*
X142438571Y-118180000D01*
X142581428Y-118132380D01*
X142676666Y-118132380D01*
X142819523Y-118180000D01*
X142867142Y-118227619D01*
X143819523Y-119132380D02*
X143248095Y-119132380D01*
X143533809Y-119132380D02*
X143533809Y-118132380D01*
X143438571Y-118275238D01*
X143343333Y-118370476D01*
X143248095Y-118418095D01*
X144771904Y-119132380D02*
X144200476Y-119132380D01*
X144486190Y-119132380D02*
X144486190Y-118132380D01*
X144390952Y-118275238D01*
X144295714Y-118370476D01*
X144200476Y-118418095D01*
%TO.C,SD_SPI1*%
X147637857Y-72794761D02*
X147780714Y-72842380D01*
X148018809Y-72842380D01*
X148114047Y-72794761D01*
X148161666Y-72747142D01*
X148209285Y-72651904D01*
X148209285Y-72556666D01*
X148161666Y-72461428D01*
X148114047Y-72413809D01*
X148018809Y-72366190D01*
X147828333Y-72318571D01*
X147733095Y-72270952D01*
X147685476Y-72223333D01*
X147637857Y-72128095D01*
X147637857Y-72032857D01*
X147685476Y-71937619D01*
X147733095Y-71890000D01*
X147828333Y-71842380D01*
X148066428Y-71842380D01*
X148209285Y-71890000D01*
X148637857Y-72842380D02*
X148637857Y-71842380D01*
X148875952Y-71842380D01*
X149018809Y-71890000D01*
X149114047Y-71985238D01*
X149161666Y-72080476D01*
X149209285Y-72270952D01*
X149209285Y-72413809D01*
X149161666Y-72604285D01*
X149114047Y-72699523D01*
X149018809Y-72794761D01*
X148875952Y-72842380D01*
X148637857Y-72842380D01*
X149399761Y-72937619D02*
X150161666Y-72937619D01*
X150352142Y-72794761D02*
X150495000Y-72842380D01*
X150733095Y-72842380D01*
X150828333Y-72794761D01*
X150875952Y-72747142D01*
X150923571Y-72651904D01*
X150923571Y-72556666D01*
X150875952Y-72461428D01*
X150828333Y-72413809D01*
X150733095Y-72366190D01*
X150542619Y-72318571D01*
X150447380Y-72270952D01*
X150399761Y-72223333D01*
X150352142Y-72128095D01*
X150352142Y-72032857D01*
X150399761Y-71937619D01*
X150447380Y-71890000D01*
X150542619Y-71842380D01*
X150780714Y-71842380D01*
X150923571Y-71890000D01*
X151352142Y-72842380D02*
X151352142Y-71842380D01*
X151733095Y-71842380D01*
X151828333Y-71890000D01*
X151875952Y-71937619D01*
X151923571Y-72032857D01*
X151923571Y-72175714D01*
X151875952Y-72270952D01*
X151828333Y-72318571D01*
X151733095Y-72366190D01*
X151352142Y-72366190D01*
X152352142Y-72842380D02*
X152352142Y-71842380D01*
X153352142Y-72842380D02*
X152780714Y-72842380D01*
X153066428Y-72842380D02*
X153066428Y-71842380D01*
X152971190Y-71985238D01*
X152875952Y-72080476D01*
X152780714Y-72128095D01*
%TO.C,C3*%
X131278333Y-89892142D02*
X131230714Y-89939761D01*
X131087857Y-89987380D01*
X130992619Y-89987380D01*
X130849761Y-89939761D01*
X130754523Y-89844523D01*
X130706904Y-89749285D01*
X130659285Y-89558809D01*
X130659285Y-89415952D01*
X130706904Y-89225476D01*
X130754523Y-89130238D01*
X130849761Y-89035000D01*
X130992619Y-88987380D01*
X131087857Y-88987380D01*
X131230714Y-89035000D01*
X131278333Y-89082619D01*
X131611666Y-88987380D02*
X132230714Y-88987380D01*
X131897380Y-89368333D01*
X132040238Y-89368333D01*
X132135476Y-89415952D01*
X132183095Y-89463571D01*
X132230714Y-89558809D01*
X132230714Y-89796904D01*
X132183095Y-89892142D01*
X132135476Y-89939761D01*
X132040238Y-89987380D01*
X131754523Y-89987380D01*
X131659285Y-89939761D01*
X131611666Y-89892142D01*
%TO.C,C10*%
X142464642Y-117317142D02*
X142417023Y-117364761D01*
X142274166Y-117412380D01*
X142178928Y-117412380D01*
X142036071Y-117364761D01*
X141940833Y-117269523D01*
X141893214Y-117174285D01*
X141845595Y-116983809D01*
X141845595Y-116840952D01*
X141893214Y-116650476D01*
X141940833Y-116555238D01*
X142036071Y-116460000D01*
X142178928Y-116412380D01*
X142274166Y-116412380D01*
X142417023Y-116460000D01*
X142464642Y-116507619D01*
X143417023Y-117412380D02*
X142845595Y-117412380D01*
X143131309Y-117412380D02*
X143131309Y-116412380D01*
X143036071Y-116555238D01*
X142940833Y-116650476D01*
X142845595Y-116698095D01*
X144036071Y-116412380D02*
X144131309Y-116412380D01*
X144226547Y-116460000D01*
X144274166Y-116507619D01*
X144321785Y-116602857D01*
X144369404Y-116793333D01*
X144369404Y-117031428D01*
X144321785Y-117221904D01*
X144274166Y-117317142D01*
X144226547Y-117364761D01*
X144131309Y-117412380D01*
X144036071Y-117412380D01*
X143940833Y-117364761D01*
X143893214Y-117317142D01*
X143845595Y-117221904D01*
X143797976Y-117031428D01*
X143797976Y-116793333D01*
X143845595Y-116602857D01*
X143893214Y-116507619D01*
X143940833Y-116460000D01*
X144036071Y-116412380D01*
%TO.C,C6*%
X153617142Y-104651666D02*
X153664761Y-104699285D01*
X153712380Y-104842142D01*
X153712380Y-104937380D01*
X153664761Y-105080238D01*
X153569523Y-105175476D01*
X153474285Y-105223095D01*
X153283809Y-105270714D01*
X153140952Y-105270714D01*
X152950476Y-105223095D01*
X152855238Y-105175476D01*
X152760000Y-105080238D01*
X152712380Y-104937380D01*
X152712380Y-104842142D01*
X152760000Y-104699285D01*
X152807619Y-104651666D01*
X152712380Y-103794523D02*
X152712380Y-103985000D01*
X152760000Y-104080238D01*
X152807619Y-104127857D01*
X152950476Y-104223095D01*
X153140952Y-104270714D01*
X153521904Y-104270714D01*
X153617142Y-104223095D01*
X153664761Y-104175476D01*
X153712380Y-104080238D01*
X153712380Y-103889761D01*
X153664761Y-103794523D01*
X153617142Y-103746904D01*
X153521904Y-103699285D01*
X153283809Y-103699285D01*
X153188571Y-103746904D01*
X153140952Y-103794523D01*
X153093333Y-103889761D01*
X153093333Y-104080238D01*
X153140952Y-104175476D01*
X153188571Y-104223095D01*
X153283809Y-104270714D01*
%TO.C,Capture_Pic1*%
X109569761Y-101227142D02*
X109522142Y-101274761D01*
X109379285Y-101322380D01*
X109284047Y-101322380D01*
X109141190Y-101274761D01*
X109045952Y-101179523D01*
X108998333Y-101084285D01*
X108950714Y-100893809D01*
X108950714Y-100750952D01*
X108998333Y-100560476D01*
X109045952Y-100465238D01*
X109141190Y-100370000D01*
X109284047Y-100322380D01*
X109379285Y-100322380D01*
X109522142Y-100370000D01*
X109569761Y-100417619D01*
X110426904Y-101322380D02*
X110426904Y-100798571D01*
X110379285Y-100703333D01*
X110284047Y-100655714D01*
X110093571Y-100655714D01*
X109998333Y-100703333D01*
X110426904Y-101274761D02*
X110331666Y-101322380D01*
X110093571Y-101322380D01*
X109998333Y-101274761D01*
X109950714Y-101179523D01*
X109950714Y-101084285D01*
X109998333Y-100989047D01*
X110093571Y-100941428D01*
X110331666Y-100941428D01*
X110426904Y-100893809D01*
X110903095Y-100655714D02*
X110903095Y-101655714D01*
X110903095Y-100703333D02*
X110998333Y-100655714D01*
X111188809Y-100655714D01*
X111284047Y-100703333D01*
X111331666Y-100750952D01*
X111379285Y-100846190D01*
X111379285Y-101131904D01*
X111331666Y-101227142D01*
X111284047Y-101274761D01*
X111188809Y-101322380D01*
X110998333Y-101322380D01*
X110903095Y-101274761D01*
X111665000Y-100655714D02*
X112045952Y-100655714D01*
X111807857Y-100322380D02*
X111807857Y-101179523D01*
X111855476Y-101274761D01*
X111950714Y-101322380D01*
X112045952Y-101322380D01*
X112807857Y-100655714D02*
X112807857Y-101322380D01*
X112379285Y-100655714D02*
X112379285Y-101179523D01*
X112426904Y-101274761D01*
X112522142Y-101322380D01*
X112665000Y-101322380D01*
X112760238Y-101274761D01*
X112807857Y-101227142D01*
X113284047Y-101322380D02*
X113284047Y-100655714D01*
X113284047Y-100846190D02*
X113331666Y-100750952D01*
X113379285Y-100703333D01*
X113474523Y-100655714D01*
X113569761Y-100655714D01*
X114284047Y-101274761D02*
X114188809Y-101322380D01*
X113998333Y-101322380D01*
X113903095Y-101274761D01*
X113855476Y-101179523D01*
X113855476Y-100798571D01*
X113903095Y-100703333D01*
X113998333Y-100655714D01*
X114188809Y-100655714D01*
X114284047Y-100703333D01*
X114331666Y-100798571D01*
X114331666Y-100893809D01*
X113855476Y-100989047D01*
X114522142Y-101417619D02*
X115284047Y-101417619D01*
X115522142Y-101322380D02*
X115522142Y-100322380D01*
X115903095Y-100322380D01*
X115998333Y-100370000D01*
X116045952Y-100417619D01*
X116093571Y-100512857D01*
X116093571Y-100655714D01*
X116045952Y-100750952D01*
X115998333Y-100798571D01*
X115903095Y-100846190D01*
X115522142Y-100846190D01*
X116522142Y-101322380D02*
X116522142Y-100655714D01*
X116522142Y-100322380D02*
X116474523Y-100370000D01*
X116522142Y-100417619D01*
X116569761Y-100370000D01*
X116522142Y-100322380D01*
X116522142Y-100417619D01*
X117426904Y-101274761D02*
X117331666Y-101322380D01*
X117141190Y-101322380D01*
X117045952Y-101274761D01*
X116998333Y-101227142D01*
X116950714Y-101131904D01*
X116950714Y-100846190D01*
X116998333Y-100750952D01*
X117045952Y-100703333D01*
X117141190Y-100655714D01*
X117331666Y-100655714D01*
X117426904Y-100703333D01*
X118379285Y-101322380D02*
X117807857Y-101322380D01*
X118093571Y-101322380D02*
X118093571Y-100322380D01*
X117998333Y-100465238D01*
X117903095Y-100560476D01*
X117807857Y-100608095D01*
%TO.C,C2*%
X111593333Y-96177142D02*
X111545714Y-96224761D01*
X111402857Y-96272380D01*
X111307619Y-96272380D01*
X111164761Y-96224761D01*
X111069523Y-96129523D01*
X111021904Y-96034285D01*
X110974285Y-95843809D01*
X110974285Y-95700952D01*
X111021904Y-95510476D01*
X111069523Y-95415238D01*
X111164761Y-95320000D01*
X111307619Y-95272380D01*
X111402857Y-95272380D01*
X111545714Y-95320000D01*
X111593333Y-95367619D01*
X111974285Y-95367619D02*
X112021904Y-95320000D01*
X112117142Y-95272380D01*
X112355238Y-95272380D01*
X112450476Y-95320000D01*
X112498095Y-95367619D01*
X112545714Y-95462857D01*
X112545714Y-95558095D01*
X112498095Y-95700952D01*
X111926666Y-96272380D01*
X112545714Y-96272380D01*
%TO.C,CAM_RIGHT1*%
X161012142Y-99920476D02*
X161059761Y-99968095D01*
X161107380Y-100110952D01*
X161107380Y-100206190D01*
X161059761Y-100349047D01*
X160964523Y-100444285D01*
X160869285Y-100491904D01*
X160678809Y-100539523D01*
X160535952Y-100539523D01*
X160345476Y-100491904D01*
X160250238Y-100444285D01*
X160155000Y-100349047D01*
X160107380Y-100206190D01*
X160107380Y-100110952D01*
X160155000Y-99968095D01*
X160202619Y-99920476D01*
X160821666Y-99539523D02*
X160821666Y-99063333D01*
X161107380Y-99634761D02*
X160107380Y-99301428D01*
X161107380Y-98968095D01*
X161107380Y-98634761D02*
X160107380Y-98634761D01*
X160821666Y-98301428D01*
X160107380Y-97968095D01*
X161107380Y-97968095D01*
X161202619Y-97730000D02*
X161202619Y-96968095D01*
X161107380Y-96158571D02*
X160631190Y-96491904D01*
X161107380Y-96730000D02*
X160107380Y-96730000D01*
X160107380Y-96349047D01*
X160155000Y-96253809D01*
X160202619Y-96206190D01*
X160297857Y-96158571D01*
X160440714Y-96158571D01*
X160535952Y-96206190D01*
X160583571Y-96253809D01*
X160631190Y-96349047D01*
X160631190Y-96730000D01*
X161107380Y-95730000D02*
X160107380Y-95730000D01*
X160155000Y-94730000D02*
X160107380Y-94825238D01*
X160107380Y-94968095D01*
X160155000Y-95110952D01*
X160250238Y-95206190D01*
X160345476Y-95253809D01*
X160535952Y-95301428D01*
X160678809Y-95301428D01*
X160869285Y-95253809D01*
X160964523Y-95206190D01*
X161059761Y-95110952D01*
X161107380Y-94968095D01*
X161107380Y-94872857D01*
X161059761Y-94730000D01*
X161012142Y-94682380D01*
X160678809Y-94682380D01*
X160678809Y-94872857D01*
X161107380Y-94253809D02*
X160107380Y-94253809D01*
X160583571Y-94253809D02*
X160583571Y-93682380D01*
X161107380Y-93682380D02*
X160107380Y-93682380D01*
X160107380Y-93349047D02*
X160107380Y-92777619D01*
X161107380Y-93063333D02*
X160107380Y-93063333D01*
X161107380Y-91920476D02*
X161107380Y-92491904D01*
X161107380Y-92206190D02*
X160107380Y-92206190D01*
X160250238Y-92301428D01*
X160345476Y-92396666D01*
X160393095Y-92491904D01*
D11*
%TO.C,CAM_BOTTOM1*%
X137170000Y-109505000D02*
X144850000Y-109505000D01*
X144850000Y-112165000D02*
X144850000Y-109505000D01*
X137170000Y-112165000D02*
X137170000Y-109505000D01*
X135900000Y-112165000D02*
X134570000Y-112165000D01*
X134570000Y-112165000D02*
X134570000Y-110835000D01*
X137170000Y-112165000D02*
X144850000Y-112165000D01*
%TO.C,C4*%
X132051248Y-95695000D02*
X132573752Y-95695000D01*
X132051248Y-94225000D02*
X132573752Y-94225000D01*
%TO.C,R5*%
X146457936Y-106780000D02*
X146912064Y-106780000D01*
X146457936Y-105310000D02*
X146912064Y-105310000D01*
%TO.C,U1*%
X156850000Y-114065000D02*
X156850000Y-115325000D01*
X150840000Y-114065000D02*
X156850000Y-114065000D01*
X153090000Y-120885000D02*
X156850000Y-120885000D01*
X156850000Y-120885000D02*
X156850000Y-119625000D01*
%TO.C,PGRM1*%
X165160000Y-77755000D02*
X162500000Y-77755000D01*
X165160000Y-82895000D02*
X162500000Y-82895000D01*
X165160000Y-84165000D02*
X165160000Y-85495000D01*
X165160000Y-85495000D02*
X163830000Y-85495000D01*
X162500000Y-82895000D02*
X162500000Y-77755000D01*
X165160000Y-82895000D02*
X165160000Y-77755000D01*
%TO.C,R7*%
X121692936Y-73335000D02*
X122147064Y-73335000D01*
X121692936Y-74805000D02*
X122147064Y-74805000D01*
%TO.C,C7*%
X155040000Y-84941248D02*
X155040000Y-85463752D01*
X153570000Y-84941248D02*
X153570000Y-85463752D01*
%TO.C,C9*%
X132453748Y-98235000D02*
X132976252Y-98235000D01*
X132453748Y-96765000D02*
X132976252Y-96765000D01*
%TO.C,BOOT0*%
X115990000Y-73295000D02*
X111490000Y-73295000D01*
X110240000Y-75795000D02*
X110240000Y-77295000D01*
X117240000Y-77295000D02*
X117240000Y-75795000D01*
X111490000Y-79795000D02*
X115990000Y-79795000D01*
%TO.C,C5*%
X136625000Y-104746252D02*
X136625000Y-104223748D01*
X135155000Y-104746252D02*
X135155000Y-104223748D01*
%TO.C,U2*%
X139005000Y-101689000D02*
X138305000Y-101689000D01*
X139005000Y-87469000D02*
X138305000Y-87469000D01*
X138305000Y-87469000D02*
X138305000Y-88169000D01*
X138305000Y-101689000D02*
X138305000Y-100989000D01*
X151825000Y-87469000D02*
X152525000Y-87469000D01*
X152525000Y-101689000D02*
X152525000Y-100989000D01*
X138305000Y-88169000D02*
X136940000Y-88169000D01*
X151825000Y-101689000D02*
X152525000Y-101689000D01*
X152525000Y-87469000D02*
X152525000Y-88169000D01*
D10*
%TO.C,TP1*%
X124305000Y-77470000D02*
G75*
G03*
X124305000Y-77470000I-1750000J0D01*
G01*
D11*
%TO.C,CAM_TOP1*%
X140405000Y-75970000D02*
X140405000Y-73310000D01*
X132725000Y-75970000D02*
X140405000Y-75970000D01*
X131455000Y-75970000D02*
X130125000Y-75970000D01*
X132725000Y-73310000D02*
X140405000Y-73310000D01*
X130125000Y-75970000D02*
X130125000Y-74640000D01*
X132725000Y-75970000D02*
X132725000Y-73310000D01*
%TO.C,NRST1*%
X115915000Y-85995000D02*
X111415000Y-85995000D01*
X117165000Y-89995000D02*
X117165000Y-88495000D01*
X111415000Y-92495000D02*
X115915000Y-92495000D01*
X110165000Y-88495000D02*
X110165000Y-89995000D01*
%TO.C,C1*%
X121385000Y-89216248D02*
X121385000Y-89738752D01*
X119915000Y-89216248D02*
X119915000Y-89738752D01*
%TO.C,J6*%
X165795000Y-113440000D02*
X164465000Y-113440000D01*
X165795000Y-110840000D02*
X163135000Y-110840000D01*
X165795000Y-112110000D02*
X165795000Y-113440000D01*
X163135000Y-110840000D02*
X163135000Y-108240000D01*
X165795000Y-110840000D02*
X165795000Y-108240000D01*
X165795000Y-108240000D02*
X163135000Y-108240000D01*
%TO.C,R8*%
X170080000Y-89762064D02*
X170080000Y-89307936D01*
X171550000Y-89762064D02*
X171550000Y-89307936D01*
%TO.C,R2*%
X117067064Y-83630000D02*
X116612936Y-83630000D01*
X117067064Y-82160000D02*
X116612936Y-82160000D01*
%TO.C,SERIAL1*%
X125790000Y-96805000D02*
X125790000Y-98135000D01*
X124460000Y-96805000D02*
X125790000Y-96805000D01*
X125790000Y-99405000D02*
X125790000Y-112165000D01*
X123130000Y-112165000D02*
X125790000Y-112165000D01*
X123130000Y-99405000D02*
X123130000Y-112165000D01*
X123130000Y-99405000D02*
X125790000Y-99405000D01*
%TO.C,LCD1*%
X154305000Y-108235000D02*
X146625000Y-108235000D01*
X146625000Y-108235000D02*
X146625000Y-110895000D01*
X154305000Y-110895000D02*
X146625000Y-110895000D01*
X154305000Y-108235000D02*
X154305000Y-110895000D01*
X155575000Y-108235000D02*
X156905000Y-108235000D01*
X156905000Y-108235000D02*
X156905000Y-109565000D01*
%TO.C,R4*%
X157887936Y-113130000D02*
X158342064Y-113130000D01*
X157887936Y-111660000D02*
X158342064Y-111660000D01*
%TO.C,R6*%
X126772936Y-71655000D02*
X127227064Y-71655000D01*
X126772936Y-73125000D02*
X127227064Y-73125000D01*
%TO.C,C8*%
X135790000Y-85173748D02*
X135790000Y-85696252D01*
X137260000Y-85173748D02*
X137260000Y-85696252D01*
%TO.C,CAM_LEFT1*%
X123765000Y-83353000D02*
X125095000Y-83353000D01*
X123765000Y-85953000D02*
X123765000Y-93633000D01*
X123765000Y-85953000D02*
X126425000Y-85953000D01*
X123765000Y-84683000D02*
X123765000Y-83353000D01*
X123765000Y-93633000D02*
X126425000Y-93633000D01*
X126425000Y-85953000D02*
X126425000Y-93633000D01*
%TO.C,R3*%
X160427936Y-105655000D02*
X160882064Y-105655000D01*
X160427936Y-107125000D02*
X160882064Y-107125000D01*
%TO.C,R1*%
X112437936Y-113475000D02*
X112892064Y-113475000D01*
X112437936Y-112005000D02*
X112892064Y-112005000D01*
%TO.C,J1*%
X128870000Y-115790000D02*
X137820000Y-115790000D01*
X137940000Y-122470000D02*
X137940000Y-125200000D01*
X128750000Y-122470000D02*
X128750000Y-125200000D01*
X137940000Y-118870000D02*
X137940000Y-119770000D01*
X128750000Y-125200000D02*
X137940000Y-125200000D01*
X128750000Y-118870000D02*
X128750000Y-119770000D01*
%TO.C,R9*%
X171550000Y-94512064D02*
X171550000Y-94057936D01*
X170080000Y-94512064D02*
X170080000Y-94057936D01*
%TO.C,C11*%
X143248748Y-119625000D02*
X143771252Y-119625000D01*
X143248748Y-121095000D02*
X143771252Y-121095000D01*
%TO.C,SD_SPI1*%
X145415000Y-76260000D02*
X145415000Y-73600000D01*
X144145000Y-76260000D02*
X142815000Y-76260000D01*
X145415000Y-76260000D02*
X158175000Y-76260000D01*
X145415000Y-73600000D02*
X158175000Y-73600000D01*
X158175000Y-76260000D02*
X158175000Y-73600000D01*
X142815000Y-76260000D02*
X142815000Y-74930000D01*
%TO.C,C3*%
X132453748Y-92520000D02*
X132976252Y-92520000D01*
X132453748Y-91050000D02*
X132976252Y-91050000D01*
%TO.C,C10*%
X143368752Y-116015000D02*
X142846248Y-116015000D01*
X143368752Y-114545000D02*
X142846248Y-114545000D01*
%TO.C,C6*%
X154205000Y-104746252D02*
X154205000Y-104223748D01*
X155675000Y-104746252D02*
X155675000Y-104223748D01*
%TO.C,Capture_Pic1*%
X117165000Y-105870000D02*
X117165000Y-104370000D01*
X111415000Y-108370000D02*
X115915000Y-108370000D01*
X110165000Y-104370000D02*
X110165000Y-105870000D01*
X115915000Y-101870000D02*
X111415000Y-101870000D01*
%TO.C,C2*%
X111498748Y-96765000D02*
X112021252Y-96765000D01*
X111498748Y-98235000D02*
X112021252Y-98235000D01*
%TO.C,CAM_RIGHT1*%
X162500000Y-90515000D02*
X165160000Y-90515000D01*
X162500000Y-89245000D02*
X162500000Y-87915000D01*
X162500000Y-87915000D02*
X163830000Y-87915000D01*
X162500000Y-90515000D02*
X162500000Y-103275000D01*
X162500000Y-103275000D02*
X165160000Y-103275000D01*
X165160000Y-90515000D02*
X165160000Y-103275000D01*
%TD*%
M02*
