M48
; DRILL file {KiCad (6.0.5)} date Fri Mar  8 11:52:15 2024
; FORMAT={-:-/ absolute / inch / decimal}
; #@! TF.CreationDate,2024-03-08T11:52:15-06:00
; #@! TF.GenerationSoftware,Kicad,Pcbnew,(6.0.5)
; #@! TF.FileFunction,Plated,1,2,PTH
FMAT,2
INCH
; #@! TA.AperFunction,Plated,PTH,ViaDrill
T1C0.0157
; #@! TA.AperFunction,Plated,PTH,ComponentDrill
T2C0.0157
; #@! TA.AperFunction,Plated,PTH,ComponentDrill
T3C0.0236
; #@! TA.AperFunction,Plated,PTH,ComponentDrill
T4C0.0394
; #@! TA.AperFunction,Plated,PTH,ComponentDrill
T5C0.0433
; #@! TA.AperFunction,Plated,PTH,ComponentDrill
T6C0.0630
%
G90
G05
T1
X5.05Y-3.625
X5.25Y-4.175
X5.275Y-3.325
X5.575Y-3.75
X5.6Y-3.55
X5.85Y-3.825
X5.85Y-4.75
X5.975Y-4.45
X6.0Y-4.2
X6.175Y-3.125
T2
X5.1327Y-4.5854
X5.1327Y-4.6386
X5.1661Y-4.5854
X5.1661Y-4.6386
X5.1996Y-4.5854
X5.1996Y-4.6386
X5.2331Y-4.5854
X5.2331Y-4.6386
X5.2665Y-4.5854
X5.2665Y-4.6386
X5.3Y-4.5854
X5.3Y-4.6386
X5.3335Y-4.5854
X5.3335Y-4.6386
X5.3669Y-4.5854
X5.3669Y-4.6386
T4
X4.9Y-3.8636
X4.9Y-3.9636
X4.9Y-4.0636
X4.9Y-4.1636
X4.9Y-4.2636
X4.9Y-4.3636
X4.925Y-3.334
X4.925Y-3.434
X4.925Y-3.534
X4.925Y-3.634
X5.1754Y-2.9386
X5.2754Y-2.9386
X5.3504Y-4.3636
X5.3754Y-2.9386
X5.4504Y-4.3636
X5.4754Y-2.9386
X5.5504Y-4.3636
X5.6504Y-4.3636
X5.675Y-2.95
X5.775Y-2.95
X5.825Y-4.3136
X5.875Y-2.95
X5.925Y-4.3136
X5.975Y-2.95
X6.025Y-4.3136
X6.075Y-2.95
X6.125Y-4.3136
X6.175Y-2.95
X6.45Y-3.1136
X6.45Y-3.2136
X6.45Y-3.3136
X6.45Y-3.5136
X6.45Y-3.6136
X6.45Y-3.7136
X6.45Y-3.8136
X6.45Y-3.9136
X6.45Y-4.0136
X6.475Y-4.3138
X6.475Y-4.4138
T5
X4.347Y-3.425
X4.347Y-3.6022
X4.347Y-4.05
X4.347Y-4.2272
X4.35Y-2.925
X4.35Y-3.1022
X4.603Y-3.425
X4.603Y-3.6022
X4.603Y-4.05
X4.603Y-4.2272
X4.6059Y-2.925
X4.6059Y-3.1022
T6
X4.825Y-3.05
T3
G00X5.0795Y-4.5945
M15
G01X5.0795Y-4.6535
M16
G05
G00X5.0795Y-4.7413
M15
G01X5.0795Y-4.7728
M16
G05
G00X5.4201Y-4.5945
M15
G01X5.4201Y-4.6535
M16
G05
G00X5.4201Y-4.7413
M15
G01X5.4201Y-4.7728
M16
G05
T0
M30
